<?xml version="1.0" encoding="utf-8"?>
<!-- Generated by IcoMoon.io -->
<!DOCTYPE svg PUBLIC "-//W3C//DTD SVG 1.1//EN" "http://www.w3.org/Graphics/SVG/1.1/DTD/svg11.dtd">
<svg version="1.1" xmlns="http://www.w3.org/2000/svg" xmlns:xlink="http://www.w3.org/1999/xlink" width="32" height="32" viewBox="0 0 32 32">
<path fill="#444444" d="M21.333 6.933c1.333 0 2.4-1.067 2.4-2.4s-1.067-2.4-2.4-2.4c-1.333 0-2.4 1.067-2.4 2.4s1.067 2.4 2.4 2.4zM25.333 16.533c-3.733 0-6.667 2.933-6.667 6.667s2.933 6.667 6.667 6.667c3.733 0 6.667-2.933 6.667-6.667s-2.933-6.667-6.667-6.667zM25.333 27.867c-2.533 0-4.667-2.133-4.667-4.667s2.133-4.667 4.667-4.667 4.667 2.133 4.667 4.667c0 2.533-2.133 4.667-4.667 4.667zM19.733 13.867h5.6v-2.4h-4.267l-2.533-4.4c-0.4-0.667-1.067-1.067-2-1.067-0.667 0-1.2 0.267-1.6 0.667l-4.933 4.933c-0.4 0.4-0.667 0.933-0.667 1.6 0 0.8 0.4 1.6 1.067 2l4.533 2.667v6.667h2.4v-8.667l-2.933-2.267 3.067-3.067 2.267 3.333zM6.667 16.533c-3.733 0-6.667 2.933-6.667 6.667s2.933 6.667 6.667 6.667c3.733 0 6.667-2.933 6.667-6.667s-2.933-6.667-6.667-6.667zM6.667 27.867c-2.533 0-4.667-2.133-4.667-4.667s2.133-4.667 4.667-4.667 4.667 2.133 4.667 4.667c0 2.533-2.133 4.667-4.667 4.667z"></path>
</svg>
