<?xml version="1.0" encoding="utf-8"?>
<!-- Generated by IcoMoon.io -->
<!DOCTYPE svg PUBLIC "-//W3C//DTD SVG 1.1//EN" "http://www.w3.org/Graphics/SVG/1.1/DTD/svg11.dtd">
<svg version="1.1" xmlns="http://www.w3.org/2000/svg" xmlns:xlink="http://www.w3.org/1999/xlink" width="32" height="32" viewBox="0 0 32 32">
<path fill="#444444" d="M17.469 6.037c0 1.308-1.074 2.368-2.4 2.368s-2.4-1.060-2.4-2.368c0-1.308 1.074-2.368 2.4-2.368s2.4 1.060 2.4 2.368z"></path>
<path fill="#444444" d="M22.101 0c-0.419 0-0.733 0.34-0.733 0.758v0.137h-1.192c-0.147-0.326-0.584-0.654-1.016-0.543-0.286 0.074-0.501 0.38-0.592 0.543h-0.944v-0.137c0-0.419-0.395-0.758-0.814-0.758s-0.814 0.34-0.814 0.758v2.023c0 0.419 0.395 0.758 0.814 0.758s0.814-0.34 0.814-0.758v-0.257h1.131c0.311 1.791 0.434 4.879-1.009 6.269 0 0-3.901-0.017-5.228-0.017-0.162 0-0.344 0.035-0.458 0.1-2.936 1.674-2.73 5.969-2.392 8.215-0.31 0.311-0.501 0.738-0.501 1.213 0 0.952 0.797 1.723 1.749 1.723 0.524 0 1.009-0.236 1.335-0.606v11.295c0 0.709 0.512 1.284 1.221 1.284s1.221-0.574 1.221-1.284v-9.792h0.651v9.792c0 0.709 0.594 1.284 1.302 1.284s1.294-0.575 1.294-1.284l-0.012-20.018c0 0 0.103-0.009 0.149-0.035 2.918-1.665 2.736-6.023 2.404-8.139h0.886v0.257c0 0.419 0.314 0.758 0.733 0.758s0.733-0.34 0.733-0.758v-2.023c-0-0.419-0.314-0.758-0.733-0.758zM11.379 16.636c-0.246-1.792-0.431-4.321 0.872-5.684v6.231c-0.163-0.263-0.527-0.456-0.872-0.546z"></path>
</svg>
