<?xml version="1.0" encoding="utf-8"?>
<!-- Generated by IcoMoon.io -->
<!DOCTYPE svg PUBLIC "-//W3C//DTD SVG 1.1//EN" "http://www.w3.org/Graphics/SVG/1.1/DTD/svg11.dtd">
<svg version="1.1" xmlns="http://www.w3.org/2000/svg" xmlns:xlink="http://www.w3.org/1999/xlink" width="32" height="32" viewBox="0 0 32 32">
<path fill="#444444" d="M15.221 5.169c0.7-0.023 1.287-0.295 1.762-0.816s0.7-1.133 0.677-1.836c-0.023-0.703-0.282-1.303-0.779-1.802s-1.095-0.737-1.795-0.714-1.287 0.295-1.762 0.816c-0.474 0.521-0.711 1.133-0.711 1.836s0.26 1.303 0.779 1.802c0.519 0.499 1.129 0.737 1.829 0.714z"></path>
<path fill="#444444" d="M23.791 13.77l-3.726-2.040-3.049-4.895c-0.587-0.725-1.31-1.088-2.168-1.088-0.587 0-1.152 0.249-1.694 0.748l-4.607 4.691c-0.136 0.181-0.226 0.385-0.271 0.612l-0.61 5.235v0.136c0 0.317 0.113 0.589 0.339 0.816s0.497 0.34 0.813 0.34 0.576-0.113 0.779-0.34c0.203-0.227 0.327-0.476 0.373-0.748l0.474-4.488 1.626-1.632-1.491 12.511-2.642 5.915c-0.090 0.272-0.136 0.521-0.136 0.748 0 0.498 0.169 0.918 0.508 1.258s0.757 0.487 1.253 0.442c0.678 0 1.174-0.318 1.49-0.952l2.846-6.391c0-0.046 0.023-0.125 0.068-0.238s0.090-0.216 0.136-0.306c0.045-0.091 0.068-0.182 0.068-0.272l0.339-3.060 2.913 10.063c0.316 0.816 0.881 1.201 1.694 1.156 0.452 0 0.847-0.17 1.186-0.51s0.508-0.76 0.508-1.258c0-0.046-0.011-0.102-0.034-0.17s-0.034-0.125-0.034-0.17l-4.065-13.938 0.474-4.555 1.152 1.836c0.090 0.136 0.203 0.249 0.339 0.34l3.997 2.244c0.271 0.091 0.452 0.136 0.542 0.136 0.316 0 0.587-0.125 0.813-0.374s0.339-0.533 0.339-0.85c0-0.408-0.181-0.725-0.542-0.952z"></path>
</svg>
