<?xml version="1.0" encoding="utf-8"?>
<!-- Generated by IcoMoon.io -->
<!DOCTYPE svg PUBLIC "-//W3C//DTD SVG 1.1//EN" "http://www.w3.org/Graphics/SVG/1.1/DTD/svg11.dtd">
<svg version="1.1" xmlns="http://www.w3.org/2000/svg" xmlns:xlink="http://www.w3.org/1999/xlink" width="32" height="32" viewBox="0 0 32 32">
<path fill="#444444" d="M15.002 18.541c0-3.239-2.635-5.874-5.874-5.874s-5.874 2.635-5.874 5.874c0 0.949 0.226 1.846 0.628 2.641l5.246 10.819 5.247-10.82c0.401-0.794 0.627-1.691 0.627-2.639zM9.127 21.792c-1.792 0-3.251-1.458-3.251-3.251s1.458-3.251 3.251-3.251c1.793 0 3.251 1.458 3.251 3.251s-1.458 3.251-3.251 3.251z"></path>
<path fill="#444444" d="M25.772 0c-1.64 0-2.975 1.334-2.975 2.974 0 0.481 0.115 0.935 0.318 1.337l2.657 5.478 2.657-5.479c0.203-0.402 0.318-0.856 0.318-1.336 0-1.64-1.334-2.975-2.975-2.975zM25.772 4.621c-0.908 0-1.646-0.738-1.646-1.646s0.738-1.646 1.646-1.646c0.908 0 1.646 0.739 1.646 1.646s-0.738 1.646-1.646 1.646z"></path>
<path fill="#444444" d="M23.181 19.297c-0.121-0.568-0.277-1.124-0.475-1.67-0.265-0.732-0.582-1.447-0.825-2.187-0.454-1.383 0.329-2.537 0.477-2.747 0.258-0.367 0.56-0.705 0.878-1.020 0.613-0.608 1.289-1.151 1.997-1.652-0.088-0.136-0.173-0.273-0.253-0.413-1.017 0.399-6.25 2.228-6.122 6.268 0.026 0.81 0.338 1.581 0.531 2.366 0.093 0.378 0.173 0.76 0.223 1.147 0.021 0.174 0.034 0.349 0.049 0.524 0-0.001 0-0.002-0.001-0.003 0 0.005 0.013 0.554-0.011 0.792-0.076 0.745-0.186 1.498-0.5 2.181-0.292 0.635-0.733 1.188-1.278 1.625-1.246 0.998-2.898 1.398-4.456 1.558-0.074 0.008-0.148 0.014-0.223 0.021l-2.782 5.737c1.373-0.085 2.742-0.273 4.078-0.602 1.572-0.387 3.104-0.971 4.477-1.838 1.372-0.865 2.551-2.036 3.336-3.462 0.821-1.491 1.151-3.199 1.080-4.891-0.024-0.578-0.079-1.167-0.199-1.735z"></path>
</svg>
