<?xml version="1.0" encoding="utf-8"?>
<!-- Generated by IcoMoon.io -->
<!DOCTYPE svg PUBLIC "-//W3C//DTD SVG 1.1//EN" "http://www.w3.org/Graphics/SVG/1.1/DTD/svg11.dtd">
<svg version="1.1" xmlns="http://www.w3.org/2000/svg" xmlns:xlink="http://www.w3.org/1999/xlink" width="32" height="32" viewBox="0 0 32 32">
<path fill="#444444" d="M31.805 21.186l-3.313-6.627c-4.25 0.432-5.691 1.297-6.195 1.945-0.072 0.144-0.36 0.504-0.072 1.369 0.648 2.233 0 3.746-0.648 4.61-1.585 2.161-5.186 3.097-11.525 3.097-1.945 0-3.313 0.432-3.746 1.080s-0.144 1.801 0 2.161v0h17.072c0.648 0 1.225-0.36 1.513-0.864 0.36-0.504 0.36-1.225 0.072-1.729l-1.152-2.377h6.267c0.648 0 1.225-0.36 1.513-0.864 0.504-0.576 0.504-1.225 0.216-1.801z"></path>
<path fill="#444444" d="M18.84 20.394c0.072-0.144 0.36-0.504 0.072-1.513-0.576-2.017 0-3.458 0.576-4.322 1.152-1.729 3.457-2.737 7.419-3.313l-1.657-3.386c-0.288-0.648-0.936-1.008-1.657-1.008s-1.297 0.36-1.657 1.008l-2.953 5.979-4.682-9.652c-0.288-0.648-0.936-1.008-1.657-1.008s-1.297 0.36-1.657 1.008l-10.805 21.97c-0.288 0.576-0.216 1.225 0.072 1.801 0.36 0.504 0.936 0.864 1.513 0.864h1.008c-0.216-1.080-0.288-2.593 0.648-4.034 1.153-1.801 3.385-2.737 6.699-2.737 6.483-0 8.284-1.009 8.716-1.657z"></path>
</svg>
