<?xml version="1.0" encoding="utf-8"?>
<!-- Generated by IcoMoon.io -->
<!DOCTYPE svg PUBLIC "-//W3C//DTD SVG 1.1//EN" "http://www.w3.org/Graphics/SVG/1.1/DTD/svg11.dtd">
<svg version="1.1" xmlns="http://www.w3.org/2000/svg" xmlns:xlink="http://www.w3.org/1999/xlink" width="32" height="32" viewBox="0 0 32 32">
<path fill="#444444" d="M26.401 9.316c-2.796-2.398-6.425-3.857-10.403-3.857-8.835 0-15.998 7.163-15.998 16.002 0 0.237 0.023 2.449 0.034 2.685v2.396h31.901v-2.221l0.030-0.175c0.010-0.237 0.035-2.448 0.035-2.685 0.001-7.844-5.599-12.145-5.599-12.145zM3.892 24.146c-0.013-0.146 0.005-2.27-0.004-2.416h3.282v-1.060h-3.051c0-0.012-0.231 0.002-0.231 0.002 0.129-2.747 1.176-5.488 3.152-7.65l0.083-0.089 0.148 0.128 2.184 2.185 0.686-0.688-2.32-2.318c2.1-1.92 4.764-3.022 7.607-3.148l0.165-0.001c0 0 0.069-0.003 0.064 0.041v3.236h0.874v-3.276c0.431 0.018 0.862 0.069 1.287 0.135 2.441 0.322 4.71 1.376 6.547 3.055l-2.315 2.317 0.644 0.647 2.224-2.225 0.123-0.099 0.105 0.139c1.923 2.102 3.023 4.764 3.152 7.608h-3.278v1.060l3.293-0.004c0 0 0.003 2.281-0.009 2.413l-24.409 0.008zM20.304 16.5c0 0-5.204 1.596-6.201 2.591-0.998 0.999-0.998 2.614 0.002 3.613 0.995 0.998 2.611 0.998 3.61 0 0.996-0.999 2.589-6.204 2.589-6.204z"></path>
</svg>
