<?xml version="1.0" encoding="utf-8"?>
<!-- Generated by IcoMoon.io -->
<!DOCTYPE svg PUBLIC "-//W3C//DTD SVG 1.1//EN" "http://www.w3.org/Graphics/SVG/1.1/DTD/svg11.dtd">
<svg version="1.1" xmlns="http://www.w3.org/2000/svg" xmlns:xlink="http://www.w3.org/1999/xlink" width="32" height="32" viewBox="0 0 32 32">
<path fill="#444444" d="M29.668 10.001l-3.92-4.702-2.72 2.269c-1.205-0.805-2.555-1.405-3.994-1.782v-2.154h2.177v-3.631h-8.923v3.631h2.49v1.751c-6.938 0.459-12.447 6.235-12.447 13.286 0 7.352 5.98 13.331 13.33 13.331 7.352 0 13.332-5.979 13.332-13.331 0-2.411-0.653-4.669-1.778-6.622l2.452-2.046zM16.181 29.483v-3.128h-0.518v3.157c-2.826 0-5.394-1.097-7.327-2.875 0.23-0.149 0.393-0.398 0.393-0.695 0-0.468-0.38-0.847-0.848-0.847-0.278 0-0.513 0.144-0.668 0.351-1.49-1.857-2.388-4.207-2.39-6.768h2.694v-0.518h-2.668c0.124-2.637 1.19-5.027 2.874-6.845 0.156 0.185 0.38 0.311 0.642 0.311 0.468 0 0.847-0.379 0.847-0.848 0-0.237-0.1-0.451-0.257-0.605 1.847-1.462 4.175-2.342 6.707-2.342v3.638h0.518v-3.612c2.28 0.108 4.375 0.92 6.076 2.23-0.12 0.146-0.204 0.327-0.204 0.533 0 0.469 0.379 0.848 0.849 0.848 0.237 0 0.452-0.102 0.607-0.26 1.74 1.829 2.846 4.262 2.971 6.951h-2.551v0.517h2.578c-0.002 2.119-0.623 4.091-1.678 5.765-0.145-0.115-0.318-0.193-0.517-0.193-0.469 0-0.848 0.38-0.848 0.848 0 0.287 0.152 0.527 0.37 0.683-1.884 2.157-4.603 3.561-7.651 3.706z"></path>
<path fill="#444444" d="M16.335 10.775v4.186c1.797 0.317 3.173 1.828 3.296 3.685l4.114-0.673c-0.439-3.834-3.542-6.869-7.411-7.198z"></path>
</svg>
