<?xml version="1.0" encoding="utf-8"?>
<!-- Generated by IcoMoon.io -->
<!DOCTYPE svg PUBLIC "-//W3C//DTD SVG 1.1//EN" "http://www.w3.org/Graphics/SVG/1.1/DTD/svg11.dtd">
<svg version="1.1" xmlns="http://www.w3.org/2000/svg" xmlns:xlink="http://www.w3.org/1999/xlink" width="32" height="32" viewBox="0 0 32 32">
<path fill="#444444" d="M5.367 22.663c-0.862-1.393-1.491-3.523-1.491-5.8 0-6.829 5.556-12.385 12.384-12.385 1.406 0 2.754 0.247 4.014 0.68l-1.504-1.826c-0.816-0.152-1.653-0.241-2.51-0.241-7.593 0-13.77 6.178-13.77 13.771 0 2.535 0.702 4.906 1.686 6.504l1.19-0.703z"></path>
<path fill="#444444" d="M28.258 13.809c0.249 0.977 0.386 1.999 0.386 3.054 0 6.828-5.556 12.384-12.385 12.384-2.9 0-5.562-1.007-7.671-2.685l-1.226 0.781c2.399 2.047 5.502 3.29 8.897 3.29 7.593 0 13.77-6.178 13.77-13.77 0-0.503-0.035-0.996-0.088-1.483l-1.684-1.571z"></path>
<path fill="#444444" d="M31.981 13.094c-0.172-0.82-3.559-5.598-3.559-5.598s2.878-2.78 3.068-3.11c0.189-0.33 0.918-1.069-0.011-1.833-0.93-0.763-1.596-0.27-1.925 0.025-0.331 0.296-2.802 2.51-2.802 2.51s-5.017-3.653-5.846-3.717c-0.828-0.065-1.381 0.676-1.381 0.676l5.104 5.146-2.501 2.951-2.235-0.652-1.235 0.761c0 0 2.452 1.069 2.937 1.685s1.126 2.661 1.126 2.661l1.177-0.62-0.549-2.692 2.839-2.26 4.867 5.338c0.001 0 1.098-0.45 0.926-1.269z"></path>
<path fill="#444444" d="M20.521 12.75c-0.461-0.433-1.198-0.705-1.198-0.705-6.097 5.925-13.707 12.451-15.362 12.661-0.628 0.045-1.025-0.101-1.181-0.439-0.177-0.386-0.389-0.635 0.060-1.087l-1.286-2.866c-1.228 1.235-1.981 3.611-1.291 5.111 0.601 1.308 1.895 2.061 3.507 2.061 0.13 0 0.264-0.006 0.398-0.015 3.276-0.244 13.907-10.347 17.088-13.437-0.001-0.001-0.274-0.85-0.735-1.283z"></path>
</svg>
