<?xml version="1.0" encoding="utf-8"?>
<!-- Generated by IcoMoon.io -->
<!DOCTYPE svg PUBLIC "-//W3C//DTD SVG 1.1//EN" "http://www.w3.org/Graphics/SVG/1.1/DTD/svg11.dtd">
<svg version="1.1" xmlns="http://www.w3.org/2000/svg" xmlns:xlink="http://www.w3.org/1999/xlink" width="33" height="32" viewBox="0 0 33 32">
<path fill="#444444" d="M0 16.938q0-1.672 3.016-3.016t7.844-1.906q0.031-2.344 1.727-4.023t4.039-1.68q2.359 0 4.055 1.68t1.727 4.023q4.813 0.563 7.836 1.906t3.023 3.016q0 1.422-2.227 2.633t-6.055 1.914-8.359 0.703q-4.516 0-8.344-0.703t-6.055-1.914-2.227-2.633zM3.891 16.938q0 0.391 0.281 0.664t0.672 0.273 0.656-0.273 0.266-0.664-0.266-0.664-0.656-0.273-0.672 0.273-0.281 0.664zM9.797 16.938q0 0.391 0.273 0.664t0.664 0.273 0.664-0.273 0.273-0.664-0.273-0.664-0.664-0.273-0.664 0.273-0.273 0.664zM12.75 11.828q1.766-0.156 3.875-0.156 2.125 0 3.906 0.156-0.109-1.516-1.227-2.563t-2.68-1.047q-1.531 0-2.656 1.047t-1.219 2.563zM15.703 16.938q0 0.391 0.266 0.664t0.656 0.273 0.672-0.273 0.281-0.664-0.281-0.664-0.672-0.273-0.656 0.273-0.266 0.664zM21.594 16.938q0 0.391 0.273 0.664t0.664 0.273q0.375 0 0.656-0.273t0.281-0.664-0.281-0.664-0.656-0.273q-0.406 0-0.672 0.273t-0.266 0.664zM27.484 16.938q0 0.391 0.273 0.664t0.648 0.273q0.391 0 0.672-0.273t0.281-0.664-0.273-0.664-0.68-0.273q-0.375 0-0.648 0.273t-0.273 0.664z"></path>
</svg>
