<?xml version="1.0" encoding="utf-8"?>
<!-- Generated by IcoMoon.io -->
<!DOCTYPE svg PUBLIC "-//W3C//DTD SVG 1.1//EN" "http://www.w3.org/Graphics/SVG/1.1/DTD/svg11.dtd">
<svg version="1.1" xmlns="http://www.w3.org/2000/svg" xmlns:xlink="http://www.w3.org/1999/xlink" width="18" height="32" viewBox="0 0 18 32">
<path fill="#444444" d="M0 9.297q0-1.25 0.891-2.141t2.141-0.891q1.234 0 2.117 0.891t0.883 2.141-0.883 2.141-2.117 0.891q-1.25 0-2.141-0.891t-0.891-2.141zM1.469 9.297q0 0.656 0.453 1.109 0.469 0.469 1.109 0.469t1.109-0.469 0.469-1.109-0.469-1.109-1.109-0.469q-0.656 0-1.109 0.461t-0.453 1.117zM7.953 16.672q0 1.922 1.063 3.422 0.563 0.781 1.547 1.242t2.234 0.461q3.656 0 4.578-2.781 0.094-0.359-0.102-0.68t-0.555-0.383q-0.359-0.094-0.672 0.109t-0.391 0.563q0 0.016-0.023 0.086l-0.039 0.117q-0.281 0.469-0.75 0.75-0.781 0.469-2.047 0.469-0.781 0-1.391-0.266-1-0.422-1.422-1.484-0.281-0.688-0.281-1.625v-5.375q0-0.375 0.047-0.75 0.094-0.953 0.75-1.734 0.734-0.875 2.297-0.875 1.297 0 2.047 0.453 0.5 0.297 0.75 0.75 0.016 0.047 0.039 0.133t0.023 0.102q0.094 0.344 0.391 0.508t0.672 0.086q0.359-0.078 0.555-0.383t0.102-0.664v-0.016l-0.141-0.391q-0.125-0.281-0.461-0.719t-0.758-0.734q-0.516-0.375-1.367-0.625t-1.852-0.25q-1.266 0-2.242 0.445t-1.523 1.211q-1.078 1.484-1.078 3.453v5.375z"></path>
</svg>
