<?xml version="1.0" encoding="utf-8"?>
<!-- Generated by IcoMoon.io -->
<!DOCTYPE svg PUBLIC "-//W3C//DTD SVG 1.1//EN" "http://www.w3.org/Graphics/SVG/1.1/DTD/svg11.dtd">
<svg version="1.1" xmlns="http://www.w3.org/2000/svg" xmlns:xlink="http://www.w3.org/1999/xlink" width="35" height="32" viewBox="0 0 35 32">
<path fill="#444444" d="M0 19.188q0 1.641 0.625 3.133t1.695 2.578 2.547 1.758 3.117 0.75q0.281 0 0.281-0.281v-2.219q0-0.313-0.281-0.313-2.172-0.156-3.656-1.719t-1.484-3.688q0-2.094 1.414-3.648t3.492-1.727l0.875-0.125q0.328 0 0.328-0.281l0.125-0.859q0.172-1.781 1.148-3.242t2.531-2.281 3.352-0.82q2.734 0 4.773 1.797t2.32 4.5l0.094 0.953q0 0.297 0.313 0.297h2.688q2.25 0 3.859 1.609t1.609 3.828q0 2.125-1.484 3.688t-3.656 1.719q-0.328 0-0.328 0.313v2.219q0 0.281 0.328 0.281 3.344-0.156 5.648-2.523t2.305-5.695q0-2.234-1.117-4.133t-3.023-3.008-4.141-1.109h-0.531q-0.828-3.328-3.523-5.469t-6.133-2.141q-3.516 0-6.25 2.211t-3.516 5.633q-2.766 0.656-4.555 2.898t-1.789 5.117zM10.375 21.297q0 1.859 0.93 3.445t2.516 2.523 3.43 0.938q2.875 0 4.922-2.039t2.047-4.867q0-0.578-0.422-1t-1.016-0.422-1.023 0.422-0.43 1q0 1.672-1.195 2.875t-2.883 1.203q-1.656 0-2.852-1.203t-1.195-2.875q0-1.5 0.891-2.672t2.188-1.281l-0.688 0.656q-0.375 0.375-0.375 0.953 0 0.625 0.375 1.094 0.344 0.375 0.883 0.391t1.164-0.391l3.031-3.109q0.422-0.422 0.422-0.969 0-0.625-0.422-1.016l-3.031-3.047q-0.469-0.438-1.031-0.438-0.578 0-0.984 0.422t-0.406 1.016 0.375 0.969l0.578 0.594q-2.5 0.422-4.148 2.328t-1.648 4.5z"></path>
</svg>
