<?xml version="1.0" encoding="utf-8"?>
<!-- Generated by IcoMoon.io -->
<!DOCTYPE svg PUBLIC "-//W3C//DTD SVG 1.1//EN" "http://www.w3.org/Graphics/SVG/1.1/DTD/svg11.dtd">
<svg version="1.1" xmlns="http://www.w3.org/2000/svg" xmlns:xlink="http://www.w3.org/1999/xlink" width="35" height="32" viewBox="0 0 35 32">
<path fill="#444444" d="M0 19.125q0 3.344 2.328 5.734t5.672 2.547q0.281 0 0.281-0.281v-2.234q0-0.297-0.281-0.297-2.141-0.109-3.648-1.703t-1.508-3.766q0-2.078 1.414-3.617t3.508-1.789l0.875-0.047q0.328 0 0.328-0.281l0.125-0.922q0.25-2.703 2.273-4.523t4.773-1.82q2.719 0 4.766 1.82t2.328 4.523l0.125 0.969q0 0.281 0.281 0.281h2.703q2.219 0 3.852 1.609t1.633 3.797q0 2.172-1.516 3.766t-3.656 1.703q-0.313 0-0.313 0.297v2.234q0 0.281 0.313 0.281 2.188-0.063 4.023-1.195t2.891-3.008 1.055-4.078q0-2.25-1.109-4.141t-3.016-2.977-4.156-1.086h-0.547q-0.813-3.344-3.508-5.484t-6.148-2.141q-3.531 0-6.266 2.188t-3.516 5.609q-2.75 0.641-4.555 2.898t-1.805 5.133zM11.609 21.672q0 0.594 0.406 1l4.313 4.344q0.313 0.391 0.953 0.391 0.703 0 1.016-0.391l4.328-4.344q0.406-0.438 0.406-1 0-0.578-0.406-0.969t-1-0.391-1.031 0.391l-1.875 1.844v-6.641q0-0.594-0.422-0.984t-1.016-0.391-0.984 0.391-0.391 0.984v6.641l-1.828-1.844q-0.438-0.391-1.047-0.391-0.625 0-1.023 0.383t-0.398 0.977z"></path>
</svg>
