<?xml version="1.0" encoding="utf-8"?>
<!-- Generated by IcoMoon.io -->
<!DOCTYPE svg PUBLIC "-//W3C//DTD SVG 1.1//EN" "http://www.w3.org/Graphics/SVG/1.1/DTD/svg11.dtd">
<svg version="1.1" xmlns="http://www.w3.org/2000/svg" xmlns:xlink="http://www.w3.org/1999/xlink" width="35" height="32" viewBox="0 0 35 32">
<path fill="#444444" d="M0 19.141q0 3.328 2.32 5.719t5.664 2.547q0.281 0 0.281-0.281v-2.219q0-0.313-0.281-0.313-2.141-0.109-3.641-1.695t-1.5-3.758q0-2.063 1.406-3.594t3.5-1.781h0.875q0.328 0 0.328-0.297l0.094-0.953q0.266-2.703 2.297-4.531t4.766-1.828q2.703 0 4.742 1.828t2.32 4.531l0.125 0.953q0 0.297 0.297 0.297h2.688q2.219 0 3.844 1.602t1.625 3.773q0 2.156-1.508 3.75t-3.633 1.703q-0.328 0-0.328 0.313v2.219q0 0.281 0.328 0.281 2.172-0.063 4-1.188t2.883-3.008 1.055-4.070q0-1.672-0.656-3.188t-1.766-2.609-2.641-1.742-3.203-0.648h-0.531q-0.828-3.344-3.516-5.477t-6.125-2.133q-3.531 0-6.266 2.195t-3.5 5.602q-2.766 0.641-4.555 2.883t-1.789 5.117zM11.578 20.188q0 0.625 0.406 1.063 0.375 0.375 1.016 0.375 0.609 0 1.031-0.375l1.844-1.906v6.625q0 0.594 0.391 1.016t0.984 0.422q0.578 0 1-0.422t0.422-1.016v-6.563l1.875 1.844q1 0.766 2.031 0 0.406-0.375 0.406-1.031 0-0.594-0.406-1.031l-4.313-4.281q-0.406-0.406-1-0.406-0.609 0-0.984 0.406l-4.297 4.281q-0.406 0.406-0.406 1z"></path>
</svg>
