<?xml version="1.0" encoding="utf-8"?>
<!-- Generated by IcoMoon.io -->
<!DOCTYPE svg PUBLIC "-//W3C//DTD SVG 1.1//EN" "http://www.w3.org/Graphics/SVG/1.1/DTD/svg11.dtd">
<svg version="1.1" xmlns="http://www.w3.org/2000/svg" xmlns:xlink="http://www.w3.org/1999/xlink" width="40" height="32" viewBox="0 0 40 32">
<path fill="#444444" d="M0 26.063q0-0.609 0.422-1.016t1.047-0.406h14.953q0.594 0 0.984 0.398t0.391 1.023q0 0.594-0.398 0.992t-0.977 0.398h-14.953q-0.625 0-1.047-0.398t-0.422-0.992zM4.391 20.969q0-0.594 0.453-1 0.359-0.375 0.984-0.375h15q0.578 0 0.961 0.391t0.383 0.984-0.383 1.016-0.961 0.422h-15q-0.578 0-1.008-0.43t-0.43-1.008zM5.422 17.078q0 0.234 0.281 0.234h2.375q0.234 0 0.391-0.234 0.563-1.359 1.734-2.25t2.625-1l0.906-0.109q0.281 0 0.281-0.297l0.109-0.859q0.281-2.719 2.32-4.531t4.789-1.813q2.719 0 4.719 1.789t2.344 4.508l0.125 0.984q0 0.266 0.297 0.266h2.672q2.266 0 3.867 1.594t1.602 3.859q0 2.188-1.625 3.805t-3.844 1.617h-11.484q-0.297 0-0.297 0.281v2.234q0 0.297 0.297 0.297h11.484q1.688 0 3.227-0.648t2.641-1.758 1.758-2.633 0.656-3.195q0-2.25-1.102-4.148t-3.008-3-4.172-1.102h-0.516q-0.813-3.359-3.508-5.492t-6.133-2.133q-3.547 0-6.273 2.211t-3.461 5.648q-2.156 0.484-3.781 2.023t-2.266 3.695v0.031q-0.031 0.063-0.031 0.125zM7.328 31.219q0-0.609 0.438-1 0.375-0.391 0.984-0.391h14.984q0.609 0 1.023 0.398t0.414 0.992-0.422 1.016-1.016 0.422h-14.984q-0.578 0-1-0.422t-0.422-1.016z"></path>
</svg>
