<?xml version="1.0" encoding="utf-8"?>
<!-- Generated by IcoMoon.io -->
<!DOCTYPE svg PUBLIC "-//W3C//DTD SVG 1.1//EN" "http://www.w3.org/Graphics/SVG/1.1/DTD/svg11.dtd">
<svg version="1.1" xmlns="http://www.w3.org/2000/svg" xmlns:xlink="http://www.w3.org/1999/xlink" width="35" height="32" viewBox="0 0 35 32">
<path fill="#444444" d="M0 19.141q0-2.875 1.797-5.125t4.563-2.891q0.781-3.422 3.516-5.617t6.266-2.195q3.453 0 6.148 2.141t3.508 5.484h0.547q2.25 0 4.156 1.086t3.016 2.977 1.109 4.141q0 2.203-1.055 4.078t-2.891 3.008-4.023 1.195h-18.656q-3.344-0.156-5.672-2.547t-2.328-5.734zM2.844 19.141q0 2.172 1.508 3.773t3.648 1.711h18.656q2.141-0.109 3.656-1.711t1.516-3.773q0-2.188-1.625-3.789t-3.859-1.602h-2.703q-0.281 0-0.281-0.297l-0.125-0.953q-0.281-2.703-2.328-4.531t-4.766-1.828q-2.734 0-4.758 1.828t-2.289 4.531l-0.125 0.953q0 0.297-0.328 0.297h-0.875q-2.094 0.25-3.508 1.781t-1.414 3.609z"></path>
</svg>
