<?xml version="1.0" encoding="utf-8"?>
<!-- Generated by IcoMoon.io -->
<!DOCTYPE svg PUBLIC "-//W3C//DTD SVG 1.1//EN" "http://www.w3.org/Graphics/SVG/1.1/DTD/svg11.dtd">
<svg version="1.1" xmlns="http://www.w3.org/2000/svg" xmlns:xlink="http://www.w3.org/1999/xlink" width="38" height="32" viewBox="0 0 38 32">
<path fill="#444444" d="M0 26.016q0-0.625 0.422-1.047 0.438-0.406 1-0.406h9.031q1.844 0 3.148 1.32t1.305 3.164q0 1.859-1.297 3.164t-3.156 1.305-3.172-1.313q-0.391-0.391-0.391-1t0.383-1.008 1.008-0.398q0.578 0 1.016 0.406 0.5 0.484 1.156 0.484t1.141-0.477 0.484-1.164q0-0.656-0.484-1.133t-1.141-0.477h-9.031q-0.578 0-1-0.414t-0.422-1.008zM0 20.953q0-0.609 0.422-1.031 0.438-0.406 1-0.406h17.578q0.656 0 1.141-0.484t0.484-1.156-0.484-1.148-1.141-0.477q-0.688 0-1.141 0.469-0.453 0.375-1.063 0.375t-0.992-0.383-0.383-0.992q0-0.625 0.375-1.016 1.266-1.266 3.203-1.266 1.859 0 3.164 1.297t1.305 3.141-1.305 3.148-3.164 1.305h-17.578q-0.594 0-1.008-0.398t-0.414-0.977zM3.578 17.016q0 0.203 0.266 0.203h2.406q0.203 0 0.359-0.25 0.563-1.359 1.75-2.25t2.656-1l0.875-0.125q0.328 0 0.328-0.281l0.125-0.859q0.266-2.703 2.289-4.539t4.773-1.836q2.766 0 4.797 1.82t2.313 4.555l0.125 0.984q0 0.281 0.281 0.281h2.703q2.266 0 3.883 1.594t1.617 3.828-1.617 3.828-3.883 1.594h-11.516q-0.313 0-0.313 0.281v2.313q0 0.281 0.313 0.281h11.516q2.266 0 4.18-1.109t3.031-3.023 1.117-4.164q0-2.266-1.117-4.172t-3.031-3.016-4.18-1.109h-0.516q-0.781-3.328-3.492-5.453t-6.211-2.125q-3.531 0-6.25 2.195t-3.453 5.617q-2.141 0.5-3.797 2.055t-2.297 3.68v0.063q-0.031 0.078-0.031 0.141z"></path>
</svg>
