<?xml version="1.0" encoding="utf-8"?>
<!-- Generated by IcoMoon.io -->
<!DOCTYPE svg PUBLIC "-//W3C//DTD SVG 1.1//EN" "http://www.w3.org/Graphics/SVG/1.1/DTD/svg11.dtd">
<svg version="1.1" xmlns="http://www.w3.org/2000/svg" xmlns:xlink="http://www.w3.org/1999/xlink" width="25" height="32" viewBox="0 0 25 32">
<path fill="#444444" d="M0 15.016q0-0.484 0.328-0.828t0.797-0.344q0.484 0 0.813 0.344t0.328 0.828q0 0.469-0.336 0.797t-0.805 0.328-0.797-0.336-0.328-0.789zM3.297 15.016q0-0.484 0.328-0.828t0.797-0.344h5.375l-3.797-3.797q-0.344-0.313-0.344-0.789t0.344-0.82 0.813-0.344 0.813 0.344l3.781 3.781v-5.344q0-0.484 0.344-0.828t0.828-0.344q0.469 0 0.797 0.344t0.328 0.828v5.391l3.813-3.828q0.344-0.344 0.813-0.344t0.813 0.344q0.297 0.344 0.297 0.82t-0.297 0.789l-3.797 3.797h5.375q0.453 0 0.789 0.344t0.336 0.828q0 0.453-0.336 0.789t-0.789 0.336h-5.391l3.813 3.813q0.297 0.313 0.297 0.781t-0.297 0.813q-0.359 0.344-0.82 0.344t-0.805-0.344l-3.813-3.828v5.406q0 0.484-0.328 0.82t-0.797 0.336q-0.484 0-0.828-0.336t-0.344-0.82v-5.359l-3.781 3.781q-0.344 0.344-0.813 0.344t-0.813-0.344-0.344-0.813 0.344-0.781l3.828-3.813h-5.406q-0.469 0-0.797-0.336t-0.328-0.789zM3.328 23.086q0-0.461 0.344-0.805 0.313-0.344 0.789-0.344t0.82 0.344 0.344 0.805-0.344 0.805-0.82 0.344-0.789-0.344q-0.344-0.344-0.344-0.805zM3.328 6.898q0-0.461 0.344-0.805 0.313-0.344 0.789-0.344t0.82 0.344 0.344 0.805-0.344 0.82q-0.344 0.344-0.82 0.344t-0.789-0.344q-0.344-0.359-0.344-0.82zM11.406 26.422q0-0.453 0.344-0.789t0.828-0.336q0.469 0 0.797 0.336t0.328 0.789q0 0.484-0.328 0.82t-0.797 0.336q-0.484 0-0.828-0.336t-0.344-0.82zM11.406 3.563q0-0.484 0.344-0.82t0.828-0.336q0.469 0 0.797 0.336t0.328 0.82q0 0.453-0.328 0.789t-0.797 0.336q-0.484 0-0.828-0.336t-0.344-0.789zM19.516 23.086q0-0.461 0.344-0.805 0.313-0.344 0.789-0.344t0.82 0.344 0.344 0.805-0.344 0.805-0.82 0.344-0.789-0.344q-0.344-0.344-0.344-0.805zM19.516 6.898q0-0.461 0.344-0.805 0.313-0.344 0.789-0.344t0.82 0.344 0.344 0.805-0.344 0.82q-0.344 0.344-0.82 0.344t-0.789-0.344q-0.344-0.359-0.344-0.82zM22.859 15.016q0-0.484 0.336-0.828t0.82-0.344q0.453 0 0.789 0.344t0.336 0.828q0 0.453-0.336 0.789t-0.789 0.336q-0.484 0-0.82-0.336t-0.336-0.789z"></path>
</svg>
