<?xml version="1.0" encoding="utf-8"?>
<!-- Generated by IcoMoon.io -->
<!DOCTYPE svg PUBLIC "-//W3C//DTD SVG 1.1//EN" "http://www.w3.org/Graphics/SVG/1.1/DTD/svg11.dtd">
<svg version="1.1" xmlns="http://www.w3.org/2000/svg" xmlns:xlink="http://www.w3.org/1999/xlink" width="49" height="32" viewBox="0 0 49 32">
<path fill="#444444" d="M0 26.016q0 0.594 0.453 1 0.422 0.422 1.016 0.422h9.797q0.641 0 1.133 0.469t0.492 1.141-0.492 1.156-1.133 0.484-1.141-0.5q-0.453-0.406-1.016-0.406-0.594 0-1 0.398t-0.406 0.992 0.406 1q1.328 1.328 3.156 1.328 1.844 0 3.141-1.305t1.297-3.148-1.297-3.156-3.141-1.313h-9.797q-0.594 0-1.031 0.43t-0.438 1.008zM0 21q0 0.547 0.453 0.953 0.422 0.422 1.016 0.422h18.281q1.844 0 3.148-1.305t1.305-3.148-1.297-3.125-3.156-1.281q-1.891 0-3.141 1.266-0.391 0.406-0.391 1.016t0.383 0.992 0.992 0.383q0.594 0 1.031-0.391 0.469-0.469 1.125-0.469t1.133 0.469 0.477 1.141-0.477 1.156-1.133 0.484h-18.281q-0.594 0-1.031 0.43t-0.438 1.008zM4.422 17.078q0 0.203 0.281 0.203h2.391q0.172 0 0.328-0.234 0.563-1.359 1.742-2.242t2.664-0.992l0.875-0.125q0.313 0 0.313-0.281l0.109-0.859q0.266-2.703 2.281-4.516t4.75-1.813q2.75 0 4.773 1.805t2.305 4.523l0.109 0.969q0 0.297 0.297 0.297h2.719q2.25 0 3.836 1.57t1.586 3.789q0 2.234-1.586 3.82t-3.836 1.586h-11.5q-0.313 0-0.313 0.297v2.281q0 0.281 0.313 0.281h11.5q2.234 0 4.133-1.109t3-3.016 1.102-4.141q0-1.844-0.703-3.375 1.891-2.484 1.891-5.516 0-2.344-1.18-4.359t-3.195-3.195-4.359-1.18q-3.859 0-6.438 2.891-2-1.016-4.453-1.016-3.516 0-6.219 2.18t-3.438 5.57q-2.125 0.5-3.758 2.047t-2.273 3.656v0.063q-0.047 0.078-0.047 0.141zM18.047-1.297q0 0.578 0.453 1l1.016 1.078q0.406 0.406 1.016 0.406 0.625 0 1.023-0.383t0.398-1.008q0-0.594-0.375-1l-1.094-1.078q-0.391-0.438-0.984-0.438t-1.023 0.422-0.43 1zM26.922 6.047q1.797-1.703 4.125-1.703 2.422 0 4.18 1.75t1.758 4.188q0 1.625-0.859 3.047-2.391-2.391-5.766-2.391h-0.563q-0.594-2.703-2.875-4.891zM29.625-2.688q0 0.578 0.414 0.977t1.008 0.398 1.016-0.398 0.422-0.977v-3.406q0-0.594-0.422-1.016t-1.016-0.422-1.008 0.422-0.414 1.016v3.406zM38.875 1.094q0 0.609 0.375 1 0.422 0.422 1.016 0.43t0.953-0.43l2.438-2.391q0.422-0.422 0.422-1.016 0-0.578-0.422-1t-1.016-0.422-1 0.406l-2.391 2.453q-0.375 0.391-0.375 0.969zM40.156 20.813q0 0.578 0.422 1l1.063 1.078q0.5 0.406 1.031 0.406 0.484 0 0.984-0.406 0.422-0.422 0.422-1 0-0.547-0.422-1.016l-1.063-1.078q-0.406-0.406-0.969-0.406-0.625 0-1.047 0.414t-0.422 1.008zM42.672 10.281q0 0.594 0.422 0.984 0.375 0.438 0.953 0.438h3.375q0.594 0 1.016-0.422t0.422-1-0.43-1.008-1.008-0.43h-3.375q-0.594 0-0.984 0.422t-0.391 1.016z"></path>
</svg>
