<?xml version="1.0" encoding="utf-8"?>
<!-- Generated by IcoMoon.io -->
<!DOCTYPE svg PUBLIC "-//W3C//DTD SVG 1.1//EN" "http://www.w3.org/Graphics/SVG/1.1/DTD/svg11.dtd">
<svg version="1.1" xmlns="http://www.w3.org/2000/svg" xmlns:xlink="http://www.w3.org/1999/xlink" width="45" height="32" viewBox="0 0 45 32">
<path fill="#444444" d="M0 19.172q0 2.25 1.102 4.156t2.992 3.008 4.125 1.102h18.047q2.234 0 4.141-1.102t3.016-3.008 1.109-4.156q0-1.656-0.703-3.328 1.906-2.328 1.906-5.516 0-1.781-0.688-3.398t-1.859-2.789-2.789-1.859-3.398-0.688q-3.703 0-6.469 2.906-1.938-1.094-4.5-1.094-3.516 0-6.219 2.18t-3.469 5.586q-2.797 0.641-4.57 2.875t-1.773 5.125zM2.844 19.172q0-2.094 1.398-3.609t3.508-1.766l0.828-0.047q0.313 0 0.313-0.297l0.109-0.906q0.344-2.703 2.344-4.523t4.688-1.82q2.75 0 4.789 1.828t2.289 4.516l0.125 0.969q0.063 0.281 0.344 0.281h2.688q2.203 0 3.797 1.594t1.594 3.781q0 2.266-1.586 3.867t-3.805 1.602h-18.047q-2.188 0-3.781-1.617t-1.594-3.852zM14.016-1.281q0 0.609 0.406 1.047l1.094 1.063q0.625 0.469 1.063 0.422 0.516 0 0.922-0.43t0.406-1.039-0.438-0.984l-0.984-1.094q-0.453-0.406-1.016-0.406-0.609 0-1.031 0.414t-0.422 1.008zM22.922 6.094q1.734-1.672 4.078-1.672 2.469 0 4.195 1.719t1.727 4.188q0 1.563-0.844 3.063-2.422-2.391-5.813-2.391h-0.531q-0.625-2.719-2.813-4.906zM25.625-2.703q0 0.641 0.391 1.031t0.984 0.391q0.641 0 1.031-0.391t0.391-1.031v-3.406q0-0.594-0.398-0.984t-1.023-0.391q-0.594 0-0.984 0.391t-0.391 0.984v3.406zM34.828 1.125q0 0.641 0.375 1.031 0.531 0.406 1.031 0.406 0.453 0 0.984-0.406l2.391-2.391q0.406-0.453 0.406-1.063 0-0.594-0.406-1t-0.984-0.406q-0.594 0-0.969 0.406l-2.453 2.391q-0.375 0.438-0.375 1.031zM36.156 20.844q0 0.594 0.422 1.047l1.078 1.047q0.375 0.406 0.969 0.406t0.992-0.414 0.398-1.039q0-0.563-0.406-0.969l-1.078-1.078q-0.406-0.406-0.953-0.406-0.594 0-1.008 0.406t-0.414 1zM38.594 10.328q0 0.578 0.438 0.969 0.406 0.406 1.016 0.406h3.406q0.578 0 0.961-0.391t0.383-0.984-0.383-1.008-0.961-0.414h-3.406q-0.594 0-1.023 0.422t-0.43 1z"></path>
</svg>
