<?xml version="1.0" encoding="utf-8"?>
<!-- Generated by IcoMoon.io -->
<!DOCTYPE svg PUBLIC "-//W3C//DTD SVG 1.1//EN" "http://www.w3.org/Graphics/SVG/1.1/DTD/svg11.dtd">
<svg version="1.1" xmlns="http://www.w3.org/2000/svg" xmlns:xlink="http://www.w3.org/1999/xlink" width="45" height="32" viewBox="0 0 45 32">
<path fill="#444444" d="M0 19.172q0 3.328 2.32 5.719t5.664 2.547q0.281 0 0.281-0.281v-2.281q0-0.297-0.281-0.297-2.172-0.172-3.656-1.727t-1.484-3.68q0-2.094 1.414-3.648t3.492-1.727l0.875-0.125q0.328 0 0.328-0.281l0.094-0.844q0.266-2.703 2.289-4.523t4.773-1.82q2.719 0 4.742 1.813t2.32 4.531l0.109 0.969q0 0.281 0.313 0.281h2.672q2.266 0 3.867 1.578t1.602 3.797q0 2.125-1.484 3.68t-3.656 1.727q-0.328 0-0.328 0.297v2.281q0 0.281 0.328 0.281 3.328-0.109 5.633-2.516t2.305-5.75q0-1.688-0.781-3.453 1.984-2.359 1.984-5.453 0-1.781-0.695-3.398t-1.867-2.789-2.789-1.859-3.383-0.688q-3.859 0-6.469 2.891-2.141-1.031-4.422-1.031-3.547 0-6.273 2.172t-3.492 5.609q-2.75 0.641-4.547 2.883t-1.797 5.117zM12.5 37.953h0.5l8.859-13.078q0.094-0.109 0.039-0.227t-0.227-0.117h-3.641l3.828-7.016q0.188-0.359-0.234-0.359h-4.906q-0.203 0-0.359 0.234l-3.594 9.531q-0.063 0.344 0.234 0.344h3.609zM13.969-1.344q0 0.625 0.406 1.031l1.094 1.078q1.047 0.797 2.016 0 0.406-0.453 0.406-1.063 0-0.578-0.406-0.984l-1.063-1.078q-0.469-0.422-1.031-0.422-0.578 0-1 0.422t-0.422 1.016zM22.875 6.031q1.703-1.703 4.125-1.703 2.438 0 4.156 1.734t1.719 4.203q0 1.516-0.844 3.016-2.438-2.344-5.766-2.344h-0.516q-0.672-2.844-2.875-4.906zM25.578-2.781q0 0.625 0.398 1.031t1.023 0.406q0.594 0 0.984-0.398t0.391-1.039v-3.406q0-0.594-0.391-0.984t-0.984-0.391-1.008 0.391-0.414 0.984v3.406zM34.766 1.078q0 0.578 0.453 1t0.922 0.422q0.406 0 1.031-0.422l2.406-2.391q0.422-0.453 0.422-1.047 0-0.609-0.414-1.016t-1.008-0.406q-0.547 0-0.969 0.422l-2.391 2.391q-0.453 0.484-0.453 1.047zM36.125 20.781q0 0.578 0.406 1.016l1.078 1.094q0.406 0.406 0.969 0.406 0.594 0 1.008-0.422t0.414-1.047q0-0.563-0.422-0.953l-1.031-1.094q-0.469-0.391-1.031-0.391-0.578 0-0.984 0.406t-0.406 0.984zM38.547 10.266q0 0.547 0.438 0.953 0.422 0.422 1 0.422h3.406q0.594 0 1.016-0.398t0.422-0.977q0-0.594-0.43-1.016t-1.008-0.422h-3.406q-0.578 0-1.008 0.422t-0.43 1.016z"></path>
</svg>
