<?xml version="1.0" encoding="utf-8"?>
<!-- Generated by IcoMoon.io -->
<!DOCTYPE svg PUBLIC "-//W3C//DTD SVG 1.1//EN" "http://www.w3.org/Graphics/SVG/1.1/DTD/svg11.dtd">
<svg version="1.1" xmlns="http://www.w3.org/2000/svg" xmlns:xlink="http://www.w3.org/1999/xlink" width="35" height="32" viewBox="0 0 35 32">
<path fill="#444444" d="M0 17.031q0-0.594 0.422-1.016 0.453-0.422 1-0.422h3.406q0.578 0 0.961 0.422t0.383 1.016-0.383 1.008-0.961 0.414h-3.406q-0.578 0-1-0.422t-0.422-1zM4.766 5.516q0-0.578 0.391-1.016 0.5-0.422 1.063-0.422 0.531 0 0.984 0.422l2.375 2.438q0.406 0.375 0.406 0.984 0 0.594-0.398 0.992t-0.992 0.398q-0.609 0-0.984-0.406l-2.453-2.375q-0.391-0.422-0.391-1.016zM5.031 21.031q0-0.563 0.391-0.922t1.063-0.359h9.516q0.672 0 1.070 0.359t0.398 0.922q0 0.672-0.391 1.070t-1.078 0.398h-9.516q-0.672 0-1.063-0.391t-0.391-1.078zM6.672 25.953q0-0.547 0.461-1t1.008-0.453q0.656 0 1.055 0.438t0.398 1.016q0 0.688-0.391 1.078t-1.063 0.391q-0.578 0-1.023-0.406t-0.445-1.063zM9.031 17.516v-0.109q0.078-3.141 2.18-5.469t5.164-2.813h0.078q0.484-0.094 1.266-0.094t1.266 0.094h0.063q3.063 0.484 5.164 2.813t2.18 5.469v0.109q0 0.406-0.375 0.406h-1.891q-0.297 0-0.422-0.156t-0.125-0.297q-0.094-2.328-1.797-3.945t-4.063-1.617-4.063 1.617-1.797 3.945q0 0.141-0.133 0.297t-0.43 0.156h-1.891q-0.375 0-0.375-0.406zM10.703 25.953q0-0.578 0.398-1.016t1.055-0.438h6.391q0.547 0 1.008 0.453t0.461 1q0 0.656-0.445 1.063t-1.023 0.406h-6.391q-0.672 0-1.063-0.391t-0.391-1.078zM16.281 4.156v-3.391q0-0.594 0.422-1.016t1-0.422 1 0.422 0.422 1.016v3.391q0 0.578-0.414 0.969t-1.008 0.391-1.008-0.391-0.414-0.969zM18.547 21.031q0-0.531 0.453-0.906t1.016-0.375 1.016 0.375 0.453 0.906q0 0.656-0.445 1.063t-1.023 0.406-1.023-0.406-0.445-1.063zM21.109 25.953q0-0.578 0.406-1.016t1.063-0.438h3.094q0.656 0 1.055 0.438t0.398 1.016q0 0.688-0.383 1.078t-1.070 0.391h-3.094q-0.672 0-1.070-0.391t-0.398-1.078zM22.578 21.031q0-0.531 0.445-0.906t1.008-0.375h5.094q0.547 0 0.906 0.367t0.359 0.914q0 0.672-0.352 1.070t-0.914 0.398h-5.094q-0.578 0-1.016-0.406t-0.438-1.063zM25.484 7.922q0-0.625 0.375-0.984l2.375-2.438q0.453-0.422 0.984-0.422 0.578 0 1 0.422t0.422 1.016q0 0.609-0.406 1.016l-2.438 2.375q-0.453 0.406-1 0.406-0.563 0-0.938-0.398t-0.375-0.992zM29.25 17.031q0-0.578 0.406-1.016 0.422-0.422 0.953-0.422h3.375q0.578 0 1.008 0.43t0.43 1.008-0.43 1-1.008 0.422h-3.375q-0.578 0-0.969-0.414t-0.391-1.008z"></path>
</svg>
