<?xml version="1.0" encoding="utf-8"?>
<!-- Generated by IcoMoon.io -->
<!DOCTYPE svg PUBLIC "-//W3C//DTD SVG 1.1//EN" "http://www.w3.org/Graphics/SVG/1.1/DTD/svg11.dtd">
<svg version="1.1" xmlns="http://www.w3.org/2000/svg" xmlns:xlink="http://www.w3.org/1999/xlink" width="45" height="32" viewBox="0 0 45 32">
<path fill="#444444" d="M0 19.219q0 2.156 1.063 4.016t2.898 2.984 4.008 1.188q0.281 0 0.281-0.281v-2.219q0-0.313-0.281-0.313-2.125-0.109-3.633-1.695t-1.508-3.68q0-2.063 1.414-3.594t3.492-1.781l0.875-0.094q0.297 0 0.297-0.313l0.125-0.844q0.266-2.734 2.273-4.555t4.742-1.82q2.719 0 4.758 1.82t2.305 4.508l0.125 0.969q0 0.281 0.281 0.281h2.688q2.25 0 3.844 1.602t1.594 3.82q0 2.094-1.508 3.68t-3.617 1.695q-0.313 0-0.313 0.313v2.219q0 0.281 0.313 0.281 3.313-0.109 5.625-2.5t2.313-5.688q0-1.891-0.719-3.391 1.969-2.359 1.969-5.5 0-2.344-1.172-4.352t-3.188-3.18-4.359-1.172q-3.844 0-6.453 2.891-2.031-1.094-4.484-1.094-3.516 0-6.234 2.18t-3.484 5.57q-2.797 0.688-4.563 2.922t-1.766 5.125zM9.141 32.016q0 0.516 0.406 0.953 0.438 0.406 0.969 0.406 0.594 0 0.984-0.391t0.391-0.969q0-0.594-0.398-0.984t-0.977-0.391-0.977 0.391-0.398 0.984zM10.578 25.969q0 0.594 0.398 1.016t0.977 0.422 0.977-0.422 0.398-1.016q0-0.563-0.398-0.969t-0.977-0.406-0.977 0.406-0.398 0.969zM13.734 35.266q0 0.547 0.406 0.953 0.422 0.422 0.969 0.422 0.594 0 1.008-0.391t0.414-0.984-0.422-1.008-1-0.414q-0.547 0-0.961 0.422t-0.414 1zM13.984-1.203q0 0.609 0.406 0.984l1.094 1.094q0.406 0.406 0.891 0.422 0.516 0.078 1.016-0.367t0.5-1.055-0.406-1.063l-1.063-1.016q-0.375-0.422-0.969-0.422-0.625 0-1.047 0.414t-0.422 1.008zM15.156 29.172q0 0.547 0.422 1 0.406 0.406 0.953 0.406 0.594 0 1.016-0.406t0.422-1q0-0.578-0.422-0.992t-1.016-0.414q-0.563 0-0.969 0.414t-0.406 0.992zM15.875 23.172q0 0.563 0.406 0.969t0.969 0.406q0.594 0 1.008-0.398t0.414-0.977-0.414-0.984-1.008-0.406q-0.563 0-0.969 0.406t-0.406 0.984zM19.828 32.016q0 0.531 0.391 0.953 0.438 0.406 1 0.406 0.594 0 0.984-0.391t0.391-0.969q0-0.594-0.391-0.984t-0.984-0.391-0.992 0.398-0.398 0.977zM21.25 25.969q0 0.594 0.406 1.016t0.984 0.422 0.977-0.422 0.398-1.016q0-0.563-0.398-0.969t-0.977-0.406-0.984 0.406-0.406 0.969zM22.875 6.094q1.719-1.656 4.109-1.656 2.422 0 4.141 1.734t1.719 4.156q0 1.563-0.844 3.063-2.391-2.391-5.797-2.391h-0.531q-0.734-2.922-2.797-4.906zM25.547-2.594q0 0.578 0.422 0.969t1.016 0.391 0.984-0.391 0.391-0.969v-3.406q0-0.594-0.398-1.016t-0.977-0.422-1.008 0.43-0.43 1.008v3.406zM34.734 1.188q0 0.578 0.422 0.984 0.375 0.391 0.93 0.43t1.039-0.43l2.391-2.391q0.438-0.438 0.438-1.016 0-0.594-0.43-1.016t-1.008-0.422q-0.547 0-0.969 0.422l-2.391 2.438q-0.422 0.391-0.422 1zM36.078 20.844q0 0.625 0.406 1.031l1.063 1.047q0.609 0.406 1.063 0.406 0.516 0 0.93-0.43t0.414-1.023q0-0.563-0.438-0.969l-1.031-1.078q-0.438-0.406-1.016-0.406t-0.984 0.414-0.406 1.008zM38.484 10.328q0 0.594 0.438 0.984 0.422 0.453 1.031 0.453h3.375q0.578 0 1-0.422t0.422-1.016-0.422-1.008-1-0.414h-3.375q-0.594 0-1.031 0.422t-0.438 1z"></path>
</svg>
