<?xml version="1.0" encoding="utf-8"?>
<!-- Generated by IcoMoon.io -->
<!DOCTYPE svg PUBLIC "-//W3C//DTD SVG 1.1//EN" "http://www.w3.org/Graphics/SVG/1.1/DTD/svg11.dtd">
<svg version="1.1" xmlns="http://www.w3.org/2000/svg" xmlns:xlink="http://www.w3.org/1999/xlink" width="45" height="32" viewBox="0 0 45 32">
<path fill="#444444" d="M0 26.172q0 0.594 0.453 1 0.422 0.422 1.016 0.422h9.797q0.641 0 1.133 0.469t0.492 1.141-0.492 1.156-1.133 0.484-1.141-0.5q-0.453-0.406-1.016-0.406-0.594 0-1 0.398t-0.406 0.992 0.406 1q1.328 1.328 3.156 1.328 1.844 0 3.141-1.305t1.297-3.148-1.297-3.148-3.141-1.305h-9.797q-0.594 0-1.031 0.422t-0.438 1zM0 21.156q0 0.563 0.453 0.969 0.406 0.406 1.016 0.406h18.281q1.844 0 3.148-1.305t1.305-3.148-1.297-3.125-3.156-1.281q-1.891 0-3.141 1.266-0.391 0.406-0.391 1.016t0.383 0.992 0.992 0.383q0.594 0 1.031-0.391 0.469-0.469 1.125-0.469t1.133 0.469 0.477 1.141-0.477 1.156-1.133 0.484h-18.281q-0.594 0-1.031 0.43t-0.438 1.008zM9.641 10.25q0-0.594 0.438-1.031 0.438-0.406 1-0.406h3.391q0.578 0 0.969 0.422t0.391 1.016-0.391 1.008-0.969 0.414h-3.391q-0.594 0-1.016-0.422t-0.422-1zM14.406-1.281q0-0.578 0.391-1.016 0.484-0.406 1.063-0.406 0.547 0 0.984 0.406l2.375 2.453q0.406 0.375 0.406 0.984 0 0.594-0.406 0.992t-0.984 0.398q-0.609 0-0.984-0.406l-2.453-2.375q-0.391-0.422-0.391-1.031zM18.656 10.047v-0.109q0.047-2.281 1.234-4.211t3.172-3.047 4.281-1.117q1.75 0 3.359 0.695t2.773 1.859 1.852 2.773 0.688 3.359q0 2.344-1.156 4.336t-3.141 3.156-4.328 1.18h-0.344q-0.172 0-0.289-0.125t-0.117-0.297v-2.031q0-0.328 0.359-0.328h0.406q2.406-0.016 4.117-1.742t1.711-4.148q0-2.406-1.727-4.109t-4.164-1.703q-2.359 0-4.063 1.625t-1.797 3.953q0 0.141-0.133 0.289t-0.43 0.148h-1.891q-0.375 0-0.375-0.406zM25.922 26.516v-3.313q0-0.594 0.414-1t1.008-0.406q0.625 0 1.023 0.406t0.398 1v3.313q0 0.609-0.414 1.031t-1.008 0.422-1.008-0.422-0.414-1.031zM25.922-2.625v-3.406q0-0.578 0.414-1t1.008-0.422 1.008 0.422 0.414 1v3.406q0 0.578-0.414 0.961t-1.008 0.383-1.008-0.383-0.414-0.961zM35.125 19.344q0-0.578 0.375-0.938 0.375-0.391 0.953-0.391 0.609 0 1 0.391l2.422 2.375q0.406 0.438 0.406 1.016t-0.406 0.984q-1 0.781-2 0l-2.375-2.375q-0.375-0.422-0.375-1.063zM35.125 1.141q0-0.625 0.375-0.984l2.375-2.453q0.438-0.406 0.984-0.406 0.578 0 1 0.422t0.422 1q0 0.625-0.406 1.031l-2.422 2.375q-0.453 0.406-1 0.406-0.563 0-0.945-0.398t-0.383-0.992zM38.891 10.25q0-0.594 0.406-1.031 0.406-0.406 0.953-0.406h3.375q0.578 0 1.016 0.43t0.438 1.008-0.438 1-1.016 0.422h-3.375q-0.578 0-0.969-0.414t-0.391-1.008z"></path>
</svg>
