<?xml version="1.0" encoding="utf-8"?>
<!-- Generated by IcoMoon.io -->
<!DOCTYPE svg PUBLIC "-//W3C//DTD SVG 1.1//EN" "http://www.w3.org/Graphics/SVG/1.1/DTD/svg11.dtd">
<svg version="1.1" xmlns="http://www.w3.org/2000/svg" xmlns:xlink="http://www.w3.org/1999/xlink" width="45" height="32" viewBox="0 0 45 32">
<path fill="#444444" d="M0 19.141q0 3.344 2.328 5.742t5.672 2.555q0.297 0 0.297-0.281v-2.234q0-0.297-0.297-0.297-2.141-0.109-3.648-1.711t-1.508-3.773q0-2.078 1.414-3.609t3.508-1.781l0.891-0.063q0.328 0 0.328-0.297l0.109-0.922q0.266-2.703 2.289-4.523t4.773-1.82q2.719 0 4.773 1.82t2.336 4.523l0.125 0.969q0 0.313 0.281 0.313h2.703q2.234 0 3.867 1.602t1.633 3.789q0 2.172-1.516 3.773t-3.656 1.711q-0.328 0-0.328 0.297v2.234q0 0.281 0.328 0.281 3.344-0.109 5.656-2.523t2.313-5.773q0-1.859-0.688-3.344 1.969-2.406 1.969-5.547 0-2.359-1.188-4.383t-3.211-3.211-4.383-1.188q-3.906 0-6.5 2.922-2-1.094-4.516-1.094-3.531 0-6.273 2.188t-3.523 5.609q-2.766 0.656-4.563 2.906t-1.797 5.141zM8.891 30.906q0.25 0.547 0.766 0.75 0.5 0.25 1.055 0.039t0.742-0.742q0.25-0.547 0.039-1.078t-0.742-0.734q-0.5-0.266-1.039-0.047t-0.789 0.781q-0.234 0.422-0.031 1.031zM9.969 26.172q0 0.344 0.156 0.641 0.484 0.766 1.484 0.766 0.797 0 1.156-1.078l1.734-5.359q0.203-0.609-0.117-1.117t-0.914-0.617q-0.547-0.172-1.055 0.102t-0.68 0.836l-1.719 5.375q-0.047 0.234-0.047 0.453zM13.078 35.531q0 0.328 0.078 0.484 0.219 0.547 0.75 0.75 0.234 0.125 0.578 0.125 0.156 0 0.5-0.094 0.547-0.203 0.789-0.758t-0.008-1.102-0.75-0.758-1.031 0.008q-0.484 0.188-0.695 0.586t-0.211 0.758zM14.094-1.375q0 0.625 0.406 1l1.078 1.078q0.406 0.406 0.906 0.453 0.516 0.078 1.023-0.383t0.508-1.070q0-0.594-0.406-1l-1.063-1.063q-0.469-0.422-1.031-0.422-0.609 0-1.016 0.406t-0.406 1zM14.297 31.047q0 0.406 0.266 0.797t0.797 0.547q0.281 0.063 0.406 0.063 0.375 0 0.641-0.125 0.5-0.203 0.719-0.953l3-10.234q0.172-0.594-0.094-1.086t-0.828-0.648q-0.594-0.172-1.102 0.094t-0.68 0.844l-3.063 10.313q-0.063 0.313-0.063 0.391zM20.047 30.406q0 0.313 0.109 0.516 0.219 0.516 0.75 0.734 0.266 0.125 0.578 0.125 0.156 0 0.5-0.094 0.563-0.219 0.766-0.734 0.203-0.547 0-1.055t-0.703-0.758q-0.563-0.266-1.094-0.047t-0.797 0.781q-0.109 0.203-0.109 0.531zM21.25 26.125q0 0.391 0.258 0.758t0.773 0.523q0.219 0.047 0.422 0.047 0.969 0 1.313-1.016l1.719-5.297q0.188-0.578-0.109-1.078t-0.859-0.656q-0.594-0.172-1.070 0.094t-0.664 0.844l-1.703 5.328q-0.078 0.344-0.078 0.453zM23.031 6q1.672-1.609 4.141-1.609 2.438 0 4.172 1.711t1.734 4.148q0 1.563-0.859 3.078-2.391-2.406-5.844-2.406h-0.516q-0.734-2.891-2.828-4.922zM25.734-2.781q0 0.594 0.422 1.016t1.016 0.422q0.578 0 0.977-0.422t0.398-1.016v-3.438q0-0.594-0.398-1.016t-0.977-0.422q-0.594 0-1.016 0.422t-0.422 1.016v3.438zM34.984 1.031q0 0.609 0.422 1 0.375 0.438 0.961 0.43t1.008-0.43l2.406-2.406q0.453-0.375 0.453-1 0-0.594-0.43-1.016t-1.023-0.422q-0.547 0-0.953 0.453l-2.422 2.391q-0.422 0.391-0.422 1zM36.328 20.875q0 0.563 0.406 1l1.094 1.047q0.359 0.453 1 0.453 0.594 0 0.953-0.453 0.453-0.406 0.453-1t-0.453-1.016l-1.078-1.031q-0.391-0.438-0.969-0.438t-0.992 0.422-0.414 1.016zM38.766 10.25q0 0.594 0.438 1 0.438 0.438 1.031 0.438h3.391q0.594 0 1.023-0.422t0.43-1.016q0-0.578-0.422-0.977t-1.031-0.398h-3.391q-0.625 0-1.047 0.398t-0.422 0.977z"></path>
</svg>
