<?xml version="1.0" encoding="utf-8"?>
<!-- Generated by IcoMoon.io -->
<!DOCTYPE svg PUBLIC "-//W3C//DTD SVG 1.1//EN" "http://www.w3.org/Graphics/SVG/1.1/DTD/svg11.dtd">
<svg version="1.1" xmlns="http://www.w3.org/2000/svg" xmlns:xlink="http://www.w3.org/1999/xlink" width="45" height="32" viewBox="0 0 45 32">
<path fill="#444444" d="M0 19.203v-0.016q0-2.891 1.805-5.141t4.57-2.906q0.766-3.422 3.508-5.625t6.289-2.203q2.484 0 4.531 1.094 1.25-1.328 2.938-2.086t3.484-0.758q2.375 0 4.398 1.18t3.203 3.203 1.18 4.398q0 3.078-1.906 5.484 0.719 1.531 0.719 3.359 0 2.203-1.063 4.086t-2.898 3.023-4.039 1.203q-0.328 0-0.328-0.297v-2.234q0-0.297 0.328-0.297 2.141-0.109 3.633-1.711t1.492-3.773q0-2.219-1.609-3.813t-3.844-1.594h-2.688q-0.297 0-0.297-0.281l-0.125-0.984q-0.281-2.703-2.336-4.539t-4.773-1.836q-2.75 0-4.773 1.836t-2.289 4.539l-0.125 0.984q-0.078 0.219-0.375 0.219l-0.844 0.063q-2.109 0.25-3.516 1.773t-1.406 3.633v0.078h0.047q0.031 2.438 1.844 4.047 0.547 0.484 1.234 0.813v0.031q1.031 0.469 2.016 0.516 0.281 0 0.281 0.281v2.234q0 0.281-0.281 0.281-1.297-0.078-2.469-0.5v0.031q-2.078-0.719-3.523-2.391t-1.852-3.844v-0.063q-0.016-0.016-0.016-0.047-0.125-0.625-0.125-1.453zM9.172 31.156q0-0.078 0.031-0.211t0.031-0.195l0.156-0.984q0.172-0.594 0.68-0.883t1.133-0.133q0.563 0.172 0.844 0.68t0.109 1.039l-0.234 1q-0.25 1.094-1.266 1.094-0.078 0-0.242-0.023t-0.211-0.023q-0.516-0.156-0.773-0.547t-0.258-0.813zM10.406 26.25q0-0.594 0.391-0.984t0.984-0.391 0.984 0.391 0.391 0.984q0 0.578-0.391 0.961t-0.984 0.383q-0.578 0-0.953-0.406-0.422-0.391-0.422-0.938zM13.141 36.219q0-0.094 0.063-0.375l0.219-0.969q0.172-0.563 0.688-0.852t1.047-0.117q0.578 0.109 0.875 0.609t0.141 1.141l-0.219 0.984q-0.25 1.016-1.328 1.016-0.125 0-0.406-0.063-0.547-0.156-0.813-0.555t-0.266-0.82zM14.031-1.297q0-0.594 0.422-1t1.047-0.406q0.594 0 1 0.406l1.047 1.094q0.422 0.422 0.422 1 0 0.609-0.5 1.070t-1.016 0.383q-0.516-0.047-0.922-0.453l-1.078-1.094q-0.422-0.422-0.422-1zM14.453 31.391q0-0.578 0.391-0.969t0.984-0.391 0.984 0.391 0.391 0.969q0 0.594-0.391 0.984t-0.984 0.391q-0.547 0-0.969-0.422-0.406-0.406-0.406-0.953zM15.484 27.594q0-0.219 0.047-0.438l0.375-1.5q0.172-0.578 0.688-0.883t1.063-0.133q0.594 0.172 0.883 0.664t0.117 1.039l-0.438 1.5q-0.203 0.688-0.688 0.945t-1.063 0.102q-0.5-0.094-0.758-0.508t-0.227-0.789zM20.094 31.172q0-0.078 0.023-0.219t0.023-0.188l0.156-0.984q0.172-0.594 0.68-0.883t1.133-0.133q0.563 0.172 0.852 0.688t0.117 1.047l-0.234 1q-0.25 1.078-1.266 1.078-0.078 0-0.25-0.023t-0.219-0.023q-0.5-0.156-0.758-0.547t-0.258-0.813zM21.328 26.266q0-0.594 0.391-0.984t0.984-0.391 0.984 0.391 0.391 0.984q0 0.578-0.391 0.969t-0.984 0.391q-0.578 0-0.969-0.422-0.406-0.375-0.406-0.938zM23.047 6.078q2.094 1.906 2.828 4.875h0.516q3.438 0 5.859 2.422 0.781-1.375 0.781-3.031 0-2.453-1.727-4.164t-4.18-1.711q-2.406 0-4.078 1.609zM25.703-2.703v-3.422q0-0.594 0.422-1.023t1-0.43q0.594 0 0.992 0.422t0.398 1.031v3.422q0 0.609-0.398 1.031t-0.992 0.422q-0.578 0-1-0.43t-0.422-1.023zM35 1.125q0-0.609 0.391-1l2.406-2.422q0.375-0.422 0.969-0.422 0.609 0 1 0.422 0.438 0.406 0.438 1t-0.438 1l-2.406 2.422q-0.484 0.469-1.055 0.43t-0.914-0.43q-0.391-0.391-0.391-1zM36.297 20.969q0-0.594 0.414-1.016t1.008-0.422q0.578 0 1.016 0.438l1.031 1.047q0.438 0.438 0.438 1.016 0 0.594-0.438 1-0.344 0.438-0.906 0.438l-0.031-0.031q-0.594 0-1.031-0.406l-1.078-1.063q-0.422-0.422-0.422-1zM38.734 10.344q0-0.594 0.414-0.992t1.023-0.398h3.438q0.609 0 1.023 0.398t0.414 0.992-0.422 1.016-1.016 0.422h-3.438q-0.594 0-1-0.453-0.438-0.375-0.438-0.984z"></path>
</svg>
