<?xml version="1.0" encoding="utf-8"?>
<!-- Generated by IcoMoon.io -->
<!DOCTYPE svg PUBLIC "-//W3C//DTD SVG 1.1//EN" "http://www.w3.org/Graphics/SVG/1.1/DTD/svg11.dtd">
<svg version="1.1" xmlns="http://www.w3.org/2000/svg" xmlns:xlink="http://www.w3.org/1999/xlink" width="49" height="32" viewBox="0 0 49 32">
<path fill="#444444" d="M0 25.953q0 0.609 0.406 1.016 1.094 0.453 1.469 0.453h13.125q0.594 0 1.008-0.43t0.414-1.023q0-0.578-0.414-0.977t-1.008-0.398h-13.125q-0.656 0-1.266 0.398t-0.609 0.961zM2.328 20.953q0 0.594 0.422 0.984 0.375 0.438 0.969 0.438h15.672q0.594 0 1.016-0.414t0.422-1.008-0.422-1.016-1.016-0.422h-15.672q-0.578 0-0.984 0.422t-0.406 1.016zM4.078 17q0 0.219 0.281 0.219h2.313q0.297 0 0.359-0.219 0.641-1.328 1.813-2.195t2.641-1.039h0.906q0.266 0 0.266-0.313l0.125-0.938q0.172-1.781 1.156-3.242t2.555-2.289 3.367-0.828q2.719 0 4.75 1.828t2.313 4.531l0.125 0.938q0 0.313 0.297 0.313h2.672q2.219 0 3.836 1.594t1.617 3.781q0 2.25-1.609 3.852t-3.844 1.602h-11.484q-0.281 0-0.281 0.313v2.219q0 0.297 0.281 0.297h11.484q2.25 0 4.156-1.109t3.016-3.016 1.109-4.156q0-1.813-0.719-3.344 1.938-2.406 1.938-5.469 0-2.344-1.18-4.359t-3.203-3.195-4.383-1.18q-1.828 0-3.492 0.742t-2.898 2.086q-2.063-1.078-4.5-1.078-3.531 0-6.266 2.188t-3.484 5.594q-2.125 0.531-3.742 2.086t-2.258 3.68q-0.031 0.031-0.031 0.109zM5.266 31.266q0 0.594 0.438 0.984 0.391 0.422 0.969 0.422h15.703q0.578 0 0.984-0.414t0.406-0.992q0-0.625-0.398-1.039t-0.992-0.414h-15.703q-0.594 0-1 0.414t-0.406 1.039zM17.734-1.25q0 0.625 0.406 1l1.063 1.094q0.406 0.406 1 0.406 0.641 0 1.039-0.398t0.398-1.023q0-0.578-0.406-0.984l-1.078-1.078q-0.422-0.422-0.953-0.422-0.625 0-1.047 0.414t-0.422 0.992zM26.672 6.047q1.656-1.578 4.078-1.578 2.438 0 4.148 1.711t1.711 4.148q0 1.672-0.766 3.016-2.359-2.375-5.828-2.375h-0.5q-0.719-2.875-2.844-4.922zM29.344-2.656q0 0.594 0.414 0.984t0.992 0.391q0.625 0 1.008-0.383t0.383-0.992v-3.406q0-0.609-0.391-1.023t-1-0.414q-0.578 0-0.992 0.422t-0.414 1.016v3.406zM38.547 1.156q0 0.609 0.422 1 0.313 0.406 1 0.406 0.672 0 0.984-0.406l2.438-2.406q0.406-0.375 0.406-1.031 0-0.578-0.414-0.992t-1.008-0.414-1.016 0.391l-2.391 2.469q-0.422 0.406-0.422 0.984zM39.875 20.922q0 0.609 0.391 1l1.094 1.047q0.609 0.453 1.016 0.453t1.016-0.453q0.406-0.406 0.406-1 0-0.578-0.406-1.016l-1.063-1.016q-0.469-0.438-1.078-0.438-0.594 0-0.984 0.406t-0.391 1.016zM42.281 10.391q0 0.609 0.453 1.016 0.453 0.422 1 0.422h3.391q0.563 0 0.977-0.422t0.414-1.016q0-0.563-0.406-0.945t-0.984-0.383h-3.391q-0.609 0-1.031 0.383t-0.422 0.945z"></path>
</svg>
