<?xml version="1.0" encoding="utf-8"?>
<!-- Generated by IcoMoon.io -->
<!DOCTYPE svg PUBLIC "-//W3C//DTD SVG 1.1//EN" "http://www.w3.org/Graphics/SVG/1.1/DTD/svg11.dtd">
<svg version="1.1" xmlns="http://www.w3.org/2000/svg" xmlns:xlink="http://www.w3.org/1999/xlink" width="45" height="32" viewBox="0 0 45 32">
<path fill="#444444" d="M0 19.141q0 3.328 2.32 5.711t5.664 2.555q0.281 0 0.281-0.281v-2.234q0-0.297-0.281-0.297-2.125-0.109-3.609-1.695t-1.484-3.758q0-2.094 1.398-3.609t3.508-1.766l0.828-0.063q0.328 0 0.328-0.297l0.094-0.891q0.266-2.703 2.289-4.523t4.773-1.82q2.734 0 4.766 1.82t2.281 4.523l0.125 0.953q0 0.297 0.297 0.297h2.781q2.188 0 3.781 1.594t1.594 3.781q0 2.125-1.492 3.703t-3.602 1.75q-0.281 0-0.281 0.297v2.234q0 0.281 0.281 0.281 2.188-0.063 4-1.195t2.852-3 1.039-4.070q0-1.781-0.688-3.266 1.891-2.344 1.891-5.469 0-1.781-0.688-3.398t-1.859-2.789-2.789-1.859-3.398-0.688q-3.766 0-6.344 2.766-1.984-1.063-4.547-1.063-3.531 0-6.242 2.18t-3.445 5.586q-2.813 0.641-4.617 2.875t-1.805 5.125zM9.031 30.297q0 0.453 0.266 0.891t0.75 0.594q0.484 0.172 1.023-0.102t0.727-0.914l0.422-1.75q0.172-0.516-0.117-1.039t-0.852-0.695q-0.625-0.156-1.125 0.141t-0.609 0.891l-0.469 1.656q-0.016 0.109-0.016 0.328zM11.203 22.438q0 0.953 1.063 1.313 0.547 0.188 1.063-0.086t0.688-0.883l0.406-1.719q0.172-0.516-0.109-1.031t-0.844-0.703q-0.609-0.156-1.109 0.133t-0.609 0.867l-0.5 1.703q-0.047 0.219-0.047 0.406zM13.234 35.578q0 0.406 0.281 0.828t0.813 0.594q0.016 0 0.164 0.023t0.242 0.023q0.344 0 0.609-0.125 0.469-0.203 0.688-0.969l0.453-1.656q0.172-0.578-0.117-1.086t-0.852-0.664q-0.578-0.172-1.086 0.117t-0.664 0.852l-0.469 1.703q-0.063 0.25-0.063 0.359zM14-1.203q0 0.625 0.422 1.031l1.094 1.078q0.844 0.844 1.953 0 0.406-0.438 0.406-1.016t-0.406-1.016l-1.047-1.094q-0.406-0.406-1-0.406-0.578 0-1 0.414t-0.422 1.008zM15.484 27.594q0 0.422 0.266 0.844t0.781 0.578q0.578 0.172 1.063-0.078t0.672-0.938l0.406-1.688q0.172-0.578-0.102-1.086t-0.836-0.68q-0.625-0.172-1.133 0.133t-0.617 0.883l-0.469 1.719q-0.031 0.094-0.031 0.313zM20.125 30.469q0.063 0.938 1.047 1.375l0.422 0.063q0.406 0 0.789-0.266t0.539-0.828l0.484-1.688q0.156-0.594-0.148-1.102t-0.883-0.617q-0.516-0.172-1.031 0.117t-0.688 0.852l-0.453 1.703zM22.453 22.531q0 0.406 0.258 0.805t0.758 0.539l0.422 0.047q0.484 0 0.859-0.297t0.469-0.781l0.453-1.656q0.172-0.594-0.109-1.086t-0.844-0.648q-0.578-0.172-1.070 0.102t-0.648 0.836l-0.5 1.766q-0.047 0.203-0.047 0.375zM23 6.094q1.656-1.594 4-1.594 2.453 0 4.188 1.727t1.734 4.18q0 1.406-0.781 2.938-2.391-2.391-5.781-2.391h-0.563q-0.672-2.828-2.797-4.859zM25.578-2.625q0 0.625 0.398 1.023t1.023 0.398 1.023-0.398 0.398-1.023v-3.359q0-0.625-0.398-1.031t-1.023-0.406-1.023 0.406-0.398 1.031v3.359zM34.828 1.203q0 0.625 0.375 1.016 0.516 0.422 1.031 0.422 0.469 0 0.984-0.422l2.391-2.391q0.406-0.453 0.406-1.047t-0.406-1-0.984-0.406-1.016 0.406l-2.406 2.391q-0.375 0.438-0.375 1.031zM36.141 20.922q0 0.578 0.438 1.047l1.031 1.063q0.516 0.516 1.031 0.516 0.484 0 0.969-0.516 0.453-0.453 0.438-1.023t-0.438-0.992l-1.078-1.094q-0.406-0.406-0.953-0.406-0.594 0-1.016 0.414t-0.422 0.992zM38.594 10.406q0 0.563 0.406 0.969t0.969 0.406h3.406q0.641 0 1.047-0.391t0.406-0.984q0-0.625-0.414-1.031t-1.039-0.406h-3.406q-0.578 0-0.977 0.422t-0.398 1.016z"></path>
</svg>
