<?xml version="1.0" encoding="utf-8"?>
<!-- Generated by IcoMoon.io -->
<!DOCTYPE svg PUBLIC "-//W3C//DTD SVG 1.1//EN" "http://www.w3.org/Graphics/SVG/1.1/DTD/svg11.dtd">
<svg version="1.1" xmlns="http://www.w3.org/2000/svg" xmlns:xlink="http://www.w3.org/1999/xlink" width="45" height="32" viewBox="0 0 45 32">
<path fill="#444444" d="M0 19.188q0 2.813 1.672 5.023t4.297 2.945q0.234 0.031 0.406-0.125l1.953-2.344q-2.234 0-3.828-1.617t-1.594-3.883q0-2.078 1.414-3.609t3.523-1.781l0.813-0.047q0.328 0 0.328-0.313l0.125-0.906q0.266-2.703 2.297-4.531t4.766-1.828q2.75 0 4.797 1.828t2.313 4.531l0.109 0.984q0.109 0.281 0.359 0.281h2.734q2.203 0 3.797 1.586t1.594 3.805q0 2.109-1.414 3.688t-3.445 1.75q-1.219 0.141-1.5 0.469l-3.656 4.703q-0.344 0.469-0.266 1.047t0.516 0.938q0.375 0.422 0.992 0.344t0.992-0.594l3.203-4.094q2.047-0.203 3.742-1.359t2.68-2.984 0.984-3.906q0-1.797-0.703-3.344 1.969-2.391 1.969-5.547 0-1.766-0.703-3.391t-1.883-2.797-2.805-1.875-3.406-0.703q-3.75 0-6.469 2.906-1.984-1.094-4.531-1.094-3.531 0-6.25 2.195t-3.453 5.617q-2.828 0.641-4.648 2.891t-1.82 5.141zM6.5 32.922q0.188 0.547 0.766 0.797 0.547 0.25 1.109 0.016t0.766-0.781q0.234-0.516 0.008-1.039t-0.742-0.773q-0.547-0.25-1.102-0.031t-0.758 0.766q-0.203 0.641-0.047 1.047zM9.516 28.344v0.188q0.047 0.547 0.5 0.922 0.438 0.375 1.047 0.328t0.953-0.484l3.641-4.703q0.359-0.453 0.313-1.055t-0.484-0.945q-0.453-0.375-1.055-0.313t-1.008 0.516l-3.578 4.672q-0.328 0.406-0.328 0.875zM10.375 36.453q0 0.156 0.094 0.5 0.219 0.547 0.766 0.766 0.281 0.109 0.594 0.109 0.234 0 0.516-0.078 0.531-0.203 0.734-0.734 0.25-0.547 0.039-1.109t-0.742-0.766q-0.547-0.25-1.117-0.023t-0.758 0.758q-0.125 0.266-0.125 0.578zM13.156 32.5v0.172q0.047 0.563 0.547 0.969 0.375 0.406 1 0.336t1-0.57l6.906-8.719q0.344-0.5 0.281-1.070t-0.516-0.977q-0.453-0.359-1.031-0.289t-0.938 0.523l-6.938 8.766q-0.313 0.375-0.313 0.859zM14.125-1.313q0 0.609 0.453 0.984l1.016 1.094q0.391 0.391 0.906 0.438 0.516 0.078 1.023-0.375t0.508-1.063q0-0.563-0.406-1l-1.078-1.078q-0.375-0.406-0.969-0.406-0.609 0-1.031 0.406t-0.422 1zM19.031 34.406q0 0.297 0.109 0.516 0.219 0.547 0.75 0.766 0.266 0.125 0.578 0.125 0.156 0 0.5-0.094 0.563-0.219 0.766-0.766 0.25-0.547 0.039-1.102t-0.742-0.758q-0.547-0.25-1.117-0.031t-0.773 0.75q-0.109 0.281-0.109 0.594zM23.047 6.047q1.766-1.609 4.125-1.609 2.469 0 4.219 1.711t1.75 4.148q0 1.656-0.859 3.094-2.422-2.422-5.797-2.422h-0.563q-0.688-2.875-2.875-4.922zM25.75-2.719q0 0.578 0.414 0.977t1.008 0.398q0.609 0 1.031-0.398t0.422-0.977v-3.453q0-0.578-0.43-1t-1.023-0.422q-0.578 0-1 0.414t-0.422 1.008v3.453zM35.047 1.078q0 0.594 0.375 1 0.438 0.422 1.023 0.43t0.945-0.43l2.484-2.406q0.406-0.406 0.406-1.016 0-0.594-0.43-1.023t-1.008-0.43q-0.547 0-1 0.422l-2.422 2.453q-0.375 0.406-0.375 1zM36.344 20.922q0 0.594 0.406 1l1.094 1.047q0.406 0.406 0.906 0.453h0.094q0.438 0 1.031-0.453 0.406-0.406 0.406-0.969 0-0.594-0.406-1.047l-1.094-1.031q-0.406-0.422-0.984-0.422-0.609 0-1.031 0.414t-0.422 1.008zM38.844 10.297q0 0.594 0.406 1 0.406 0.453 1 0.453h3.406q0.594 0 1.016-0.43t0.422-1.023q0-0.578-0.422-0.977t-1.016-0.398h-3.406q-0.594 0-1 0.398t-0.406 0.977z"></path>
</svg>
