<?xml version="1.0" encoding="utf-8"?>
<!-- Generated by IcoMoon.io -->
<!DOCTYPE svg PUBLIC "-//W3C//DTD SVG 1.1//EN" "http://www.w3.org/Graphics/SVG/1.1/DTD/svg11.dtd">
<svg version="1.1" xmlns="http://www.w3.org/2000/svg" xmlns:xlink="http://www.w3.org/1999/xlink" width="40" height="32" viewBox="0 0 40 32">
<path fill="#444444" d="M0 13.375q0 0.672 0.469 1.109t1.203 0.438h2.813q0.672 0 1.148-0.445t0.477-1.102q0-0.719-0.469-1.188t-1.156-0.469h-2.813q-0.734 0-1.203 0.461t-0.469 1.195zM2.953 23.688q0 2.422 1.766 4.195t4.188 1.773h11.438q2.422 0 4.148-1.75t1.727-4.219q0-1.203-0.344-2.047 2.078-1.328 3.289-3.539t1.211-4.727q0-2.031-0.797-3.883t-2.133-3.188-3.188-2.133-3.867-0.797q-2.734 0-5.039 1.344t-3.625 3.641-1.32 5.016v0.563q-2.5 1.422-3.297 4.156-1.891 0.594-3.023 2.109t-1.133 3.484zM5.547 0.078q0 0.703 0.438 1.125l2.688 2.813q1.172 0.891 2.344 0 0.469-0.469 0.469-1.172 0-0.672-0.469-1.172l-2.75-2.734q-0.531-0.484-1.156-0.484-0.703 0-1.133 0.469t-0.43 1.156zM6.25 23.688q0-1.047 0.672-1.797t1.703-0.844l1.031-0.141q0.328 0 0.328-0.375l0.156-0.938q0.172-1.438 1.219-2.406t2.469-0.969q1.453 0 2.523 0.969t1.242 2.406l0.141 1.078q0.156 0.375 0.406 0.375h2.203q1.078 0 1.867 0.781t0.789 1.859q0 1.125-0.789 1.922t-1.867 0.797h-11.438q-1.125 0-1.891-0.797t-0.766-1.922zM13.625 13.031q0.172-2.734 2.109-4.594t4.656-1.859q2.781 0 4.734 1.984t1.953 4.813q0 1.75-0.852 3.242t-2.305 2.414q-1.469-1.219-3.391-1.219-0.734-2.188-2.563-3.484t-4.141-1.297h-0.203zM18.766-1.547q0 0.688 0.477 1.164t1.148 0.477q0.688 0 1.164-0.477t0.477-1.164v-3.906q0-0.656-0.477-1.102t-1.164-0.445q-0.672 0-1.148 0.445t-0.477 1.102v3.906zM29.297 23.828q0 0.672 0.453 1.172l2.734 2.703q1.047 1.063 2.344 0 0.438-0.422 0.438-1.125 0-0.672-0.438-1.109l-2.813-2.797q-0.453-0.422-1.141-0.422t-1.133 0.453-0.445 1.125zM29.297 2.813q0 0.703 0.453 1.203 0.453 0.453 1.125 0.453 0.688 0 1.141-0.453l2.813-2.813q0.438-0.422 0.438-1.125 0-0.688-0.477-1.156t-1.164-0.469q-0.656 0-1.141 0.484l-2.734 2.734q-0.453 0.453-0.453 1.141zM33.609 13.375q0 0.672 0.469 1.109t1.203 0.438h2.813q0.672 0 1.148-0.445t0.477-1.102q0-0.719-0.469-1.188t-1.156-0.469h-2.813q-0.734 0-1.203 0.461t-0.469 1.195z"></path>
</svg>
