<?xml version="1.0" encoding="utf-8"?>
<!-- Generated by IcoMoon.io -->
<!DOCTYPE svg PUBLIC "-//W3C//DTD SVG 1.1//EN" "http://www.w3.org/Graphics/SVG/1.1/DTD/svg11.dtd">
<svg version="1.1" xmlns="http://www.w3.org/2000/svg" xmlns:xlink="http://www.w3.org/1999/xlink" width="45" height="32" viewBox="0 0 45 32">
<path fill="#444444" d="M0 19.172q0 2.766 1.641 4.938t4.281 2.969l-1.063 2.828q-0.109 0.344 0.234 0.344h3.531l-2.078 6.578h0.484l6.953-8.984q0.094-0.109 0.023-0.227t-0.242-0.117h-3.625l4.125-7.719q0.172-0.359-0.234-0.359h-4.906q-0.234 0-0.391 0.234l-1.781 4.797q-1.781-0.453-2.953-1.938t-1.172-3.344q0-2.078 1.414-3.609t3.508-1.781l0.875-0.109q0.328 0 0.328-0.297l0.094-0.844q0.266-2.703 2.297-4.531t4.766-1.828q2.719 0 4.758 1.828t2.336 4.531l0.094 0.969q0 0.281 0.297 0.281h2.688q2.266 0 3.867 1.578t1.602 3.813q0 2.125-1.484 3.68t-3.656 1.727q-0.328 0-0.328 0.297v2.281q0 0.281 0.328 0.281 3.328-0.109 5.648-2.516t2.32-5.75q0-1.844-0.719-3.344 1.969-2.391 1.969-5.531 0-2.344-1.18-4.359t-3.195-3.195-4.375-1.18q-3.859 0-6.469 2.891-2.016-1.078-4.5-1.078-3.531 0-6.266 2.188t-3.5 5.594q-2.766 0.641-4.555 2.883t-1.789 5.133zM13.484 35.141q-0.031 0.375 0.227 0.734t0.773 0.547q0.172 0.047 0.344 0.047 0.422 0 0.844-0.25t0.563-0.781l3.813-14.281q0.156-0.578-0.109-1.070t-0.813-0.664q-0.578-0.172-1.086 0.109t-0.664 0.844l-3.844 14.328q-0.047 0.203-0.047 0.438zM14.031-1.281q0 0.594 0.422 0.984l1.063 1.094q0.422 0.422 1.016 0.43t0.953-0.43q0.469-0.375 0.469-1 0-0.594-0.422-0.984l-1.047-1.094q-0.438-0.406-1.016-0.406-0.625 0-1.031 0.406t-0.406 1zM20.406 30.047q0 0.297 0.188 0.625 0.313 0.5 0.828 0.719 0.172 0.078 0.5 0.078 0.375 0 0.547-0.094 0.5-0.203 0.688-0.969l2.484-9.25q0.156-0.594-0.125-1.078t-0.844-0.656q-0.578-0.172-1.070 0.109t-0.648 0.844l-2.484 9.297q0 0.063-0.031 0.188t-0.031 0.188zM22.953 6.063q1.672-1.609 4.125-1.609 2.438 0 4.164 1.703t1.727 4.141q0 1.563-0.859 3.078-2.484-2.453-5.828-2.453h-0.516q-0.766-2.938-2.813-4.859zM25.641-2.688q0 0.578 0.43 1.008t1.008 0.43q0.594 0 0.984-0.422t0.391-1.016v-3.422q0-0.594-0.391-1.016t-0.984-0.422q-0.578 0-1.008 0.422t-0.43 1.016v3.422zM34.859 1.125q0 0.609 0.438 1 0.359 0.422 0.945 0.422t1.008-0.422l2.406-2.422q0.438-0.391 0.438-0.984t-0.422-1.016-1.016-0.422q-0.547 0-0.953 0.438l-2.406 2.406q-0.438 0.391-0.438 1zM36.203 20.891q0 0.563 0.406 1l1.094 1.047q0.313 0.359 0.906 0.406l0.016 0.016q0.031 0 0.078 0.008t0.078 0.008q0.469 0 0.875-0.438 0.438-0.406 0.438-1 0-0.578-0.438-1.016l-1.078-1.016q-0.406-0.453-0.969-0.453-0.578 0-0.992 0.422t-0.414 1.016zM38.625 10.297q0 0.578 0.453 1 0.453 0.453 1.016 0.453h3.391q0.578 0 1.008-0.43t0.43-1.023q0-0.578-0.422-0.977t-1.016-0.398h-3.391q-0.625 0-1.047 0.398t-0.422 0.977z"></path>
</svg>
