<?xml version="1.0" encoding="utf-8"?>
<!-- Generated by IcoMoon.io -->
<!DOCTYPE svg PUBLIC "-//W3C//DTD SVG 1.1//EN" "http://www.w3.org/Graphics/SVG/1.1/DTD/svg11.dtd">
<svg version="1.1" xmlns="http://www.w3.org/2000/svg" xmlns:xlink="http://www.w3.org/1999/xlink" width="45" height="32" viewBox="0 0 45 32">
<path fill="#444444" d="M0 19.156q0 3.328 2.32 5.727t5.68 2.555q0.281 0 0.281-0.281v-2.234q0-0.281-0.281-0.281-2.141-0.109-3.648-1.711t-1.508-3.773q0-2.063 1.414-3.594t3.508-1.781l0.875-0.078q0.328 0 0.328-0.281l0.109-0.906q0.266-2.703 2.289-4.531t4.758-1.828q2.719 0 4.766 1.828t2.328 4.531l0.125 0.953q0 0.313 0.281 0.313h2.703q2.219 0 3.836 1.594t1.617 3.781q0 2.172-1.5 3.773t-3.641 1.711q-0.313 0-0.313 0.281v2.234q0 0.281 0.313 0.281 3.328-0.109 5.648-2.523t2.32-5.758q0-1.797-0.703-3.344 1.953-2.422 1.953-5.516 0-2.375-1.18-4.398t-3.195-3.195-4.375-1.172q-3.891 0-6.469 2.906-2.047-1.094-4.516-1.094-3.531 0-6.266 2.195t-3.5 5.602q-2.766 0.656-4.563 2.898t-1.797 5.117zM9 30.578q0 0.422 0.273 0.82t0.82 0.555q0.281 0.063 0.453 0.063 0.984 0 1.281-1.063l2.641-9.797q0.172-0.594-0.133-1.109t-0.883-0.625q-0.547-0.172-1.055 0.109t-0.68 0.844l-2.641 9.844q-0.078 0.313-0.078 0.359zM13.344 35.719q0 0.469 0.25 0.867t0.859 0.492q0.281 0.063 0.438 0.063 0.391 0 0.75-0.289t0.453-0.805l4-14.891q0.156-0.578-0.117-1.070t-0.836-0.664q-0.578-0.172-1.086 0.109t-0.664 0.844l-4 14.891q-0.047 0.422-0.047 0.453zM14.047-1.328q0 0.594 0.422 1.016l1.078 1.094q0.484 0.375 1.031 0.375 0.531 0 0.969-0.391t0.438-0.984q0-0.609-0.406-1.063l-1.063-1.078q-0.453-0.422-1-0.422-0.609 0-1.039 0.43t-0.43 1.023zM20.266 30.625q0 0.406 0.258 0.789t0.773 0.539q0.281 0.063 0.422 0.063 0.438 0 0.82-0.242t0.492-0.82l2.641-9.797q0.156-0.578-0.117-1.070t-0.836-0.664q-0.594-0.172-1.086 0.109t-0.648 0.844l-2.641 9.844q-0.078 0.359-0.078 0.406zM22.984 6.047q1.766-1.672 4.125-1.672 2.453 0 4.172 1.727t1.719 4.195q0 1.563-0.859 3.078-2.422-2.422-5.813-2.422h-0.547q-0.703-2.906-2.797-4.906zM25.672-2.703q0 0.578 0.422 0.977t1.016 0.398q0.578 0 0.977-0.391t0.398-0.984v-3.422q0-0.641-0.391-1.047t-0.984-0.406q-0.625 0-1.031 0.414t-0.406 1.039v3.422zM34.891 1.094q0 0.609 0.453 0.984 0.344 0.391 0.914 0.43t1.039-0.43l2.406-2.391q0.438-0.422 0.438-1.047 0-0.609-0.414-1.016t-1.023-0.406q-0.516 0-0.969 0.422l-2.391 2.406q-0.453 0.422-0.453 1.047zM36.25 20.844q0 0.594 0.406 1.047l1.078 1.047q0.438 0.344 1 0.344l0.031 0.031q0.563 0 0.969-0.406t0.406-1.016q0-0.594-0.438-0.969l-1.031-1.094q-0.453-0.406-1.031-0.406t-0.984 0.414-0.406 1.008zM38.672 10.297q0 0.594 0.438 0.984 0.438 0.438 1.031 0.438h3.391q0.594 0 1.016-0.422t0.422-1q0-0.594-0.422-1.023t-1.016-0.43h-3.391q-0.594 0-1.031 0.43t-0.438 1.023z"></path>
</svg>
