<?xml version="1.0" encoding="utf-8"?>
<!-- Generated by IcoMoon.io -->
<!DOCTYPE svg PUBLIC "-//W3C//DTD SVG 1.1//EN" "http://www.w3.org/Graphics/SVG/1.1/DTD/svg11.dtd">
<svg version="1.1" xmlns="http://www.w3.org/2000/svg" xmlns:xlink="http://www.w3.org/1999/xlink" width="49" height="32" viewBox="0 0 49 32">
<path fill="#444444" d="M0 26.094q0 0.578 0.422 0.977t1.047 0.398h31.188q0.594 0 1.016-0.398t0.422-0.977q0-0.594-0.422-1.008t-1.016-0.414h-31.188q-0.625 0-1.047 0.414t-0.422 1.008zM4.375 20.875q0 0.578 0.422 0.969 0.422 0.453 1 0.453h31.203q0.578 0 0.977-0.414t0.398-1.008q0-0.578-0.391-0.977t-0.984-0.398h-31.203q-0.594 0-1.008 0.398t-0.414 0.977zM4.578 16.875q0 0.219 0.266 0.219h2.391q0.172 0 0.344-0.266 0.594-1.297 1.773-2.125t2.602-0.938l0.906-0.125q0.281 0 0.281-0.297l0.109-0.844q0.266-2.703 2.289-4.516t4.758-1.813q2.703 0 4.727 1.797t2.305 4.469l0.125 0.969q0 0.281 0.313 0.281h2.688q1.609 0 2.93 0.859t1.961 2.281q0.172 0.266 0.328 0.266h2.406q0.328 0 0.219-0.375l-0.328-0.922q1.891-2.344 1.891-5.516 0-1.766-0.688-3.375t-1.844-2.781-2.781-1.859-3.406-0.688q-3.859 0-6.375 2.797-2.109-1.047-4.469-1.047-3.5 0-6.227 2.195t-3.492 5.617q-4.453 1.172-5.969 5.578-0.031 0.047-0.031 0.156zM7.281 31.219q0 0.594 0.453 1 0.391 0.438 0.984 0.438h31.234q0.578 0 1-0.422t0.422-1.016q0-0.578-0.414-0.961t-1.008-0.383h-31.234q-0.594 0-1.016 0.383t-0.422 0.961zM18.234-1.234q0 0.594 0.391 0.984l1.078 1.063q0.422 0.453 0.969 0.453 0.563 0 0.992-0.414t0.43-1.023q0-0.594-0.422-1.047l-1.063-1.016q-0.406-0.438-1-0.438-0.609 0-0.992 0.414t-0.383 1.023zM27.094 6.063q1.688-1.688 4.047-1.688 2.453 0 4.18 1.734t1.727 4.172q0 1.625-0.813 3-2.375-2.375-5.781-2.375h-0.563q-0.703-2.938-2.797-4.844zM29.766-2.656q0 0.578 0.398 0.977t0.977 0.398q0.625 0 1.047-0.398t0.422-0.977v-3.406q0-0.578-0.438-1t-1.031-0.422q-0.578 0-0.977 0.414t-0.398 1.008v3.406zM38.922 1.141q0 0.563 0.406 1 0.922 0.891 2.047 0l2.375-2.391q0.406-0.438 0.406-1.063 0-0.578-0.406-0.984t-0.984-0.406q-0.594 0-1 0.406l-2.438 2.453q-0.406 0.438-0.406 0.984zM40.266 20.797q0 0.594 0.438 1l1.063 1.078q0.406 0.406 0.969 0.406 0.516 0 1.016-0.406 0.406-0.438 0.406-1.063 0-0.563-0.406-0.938l-1.078-1.094q-0.438-0.406-1-0.406-0.594 0-1 0.414t-0.406 1.008zM42.734 10.281q0 0.609 0.438 1 0.375 0.422 0.984 0.422h3.422q0.578 0 0.977-0.414t0.398-1.008-0.398-1-0.977-0.406h-3.422q-0.594 0-1.008 0.414t-0.414 0.992z"></path>
</svg>
