<?xml version="1.0" encoding="utf-8"?>
<!-- Generated by IcoMoon.io -->
<!DOCTYPE svg PUBLIC "-//W3C//DTD SVG 1.1//EN" "http://www.w3.org/Graphics/SVG/1.1/DTD/svg11.dtd">
<svg version="1.1" xmlns="http://www.w3.org/2000/svg" xmlns:xlink="http://www.w3.org/1999/xlink" width="45" height="32" viewBox="0 0 45 32">
<path fill="#444444" d="M0 19.156q0 2.172 1.063 4.039t2.891 2.992 4 1.219q0.297 0 0.297-0.281v-2.219q0-0.313-0.297-0.313-2.125-0.109-3.625-1.695t-1.5-3.742q0-2.063 1.406-3.586t3.484-1.773l0.875-0.047q0.313 0 0.313-0.297l0.125-0.906q0.266-2.703 2.273-4.516t4.742-1.813q2.688 0 4.727 1.82t2.336 4.508l0.109 0.969q0 0.281 0.281 0.281h2.703q2.203 0 3.82 1.594t1.617 3.766q0 2.156-1.5 3.742t-3.641 1.695q-0.297 0-0.297 0.313v2.219q0 0.281 0.297 0.281 2.172-0.063 4-1.195t2.875-3.008 1.047-4.047q0-1.844-0.688-3.328 1.938-2.375 1.938-5.5 0-2.359-1.172-4.367t-3.172-3.172-4.344-1.164q-3.875 0-6.453 2.891-2.047-1.094-4.484-1.094-3.516 0-6.234 2.18t-3.484 5.57q-2.75 0.656-4.539 2.891t-1.789 5.094zM9.844 20.625q0 0.953 0.703 1.625t1.688 0.672q1 0 1.672-0.664t0.672-1.633q0-0.609-0.586-1.672t-1.086-1.656q-0.531-0.563-0.672-0.703l-0.594 0.672q-0.672 0.719-1.234 1.719t-0.563 1.641zM13.984-1.234q0 0.641 0.406 1.016l1.078 1.094q1.047 0.781 2.016 0 0.406-0.484 0.406-1.063t-0.406-0.984l-1.063-1.078q-0.469-0.422-1.016-0.422-0.609 0-1.016 0.422t-0.406 1.016zM14.797 27.219q0 1.641 1.133 2.758t2.742 1.117q1.625 0 2.766-1.141t1.141-2.734q0-1.344-1.344-3.281-1.156-1.516-2.125-2.484-0.203-0.141-0.438-0.375l-0.391 0.375q-0.891 0.813-2.125 2.453-1.359 1.891-1.359 3.313zM17.25 16.188q0 0.625 0.477 1.078t1.148 0.453q0.641 0 1.094-0.453t0.453-1.078q0-1.031-1.547-2.672l-0.406 0.422q-0.453 0.5-0.836 1.164t-0.383 1.086zM22.875 6.094q1.656-1.656 4.109-1.656 2.438 0 4.148 1.719t1.711 4.172q0 1.469-0.859 3.063-2.422-2.391-5.781-2.391h-0.547q-0.719-2.906-2.781-4.906zM25.547-2.672q0 0.594 0.43 1.016t1.008 0.422 0.969-0.422 0.391-1.016v-3.391q0-0.594-0.383-0.984t-0.977-0.391-1.016 0.391-0.422 0.984v3.391zM34.734 1.188q0 0.609 0.422 0.984 0.438 0.406 0.938 0.406 0.438 0 1.016-0.406l2.391-2.391q0.453-0.453 0.453-1.031 0-0.609-0.422-1.016t-1.016-0.406q-0.547 0-0.969 0.422l-2.391 2.391q-0.422 0.422-0.422 1.047zM36.078 20.813q0 0.625 0.391 1.063l1.078 0.969q0.359 0.453 0.984 0.453 0.609 0 0.969-0.453 0.453-0.406 0.453-0.969 0-0.547-0.453-0.969l-1.016-1.078q-0.438-0.406-1.016-0.406-0.594 0-0.992 0.406t-0.398 0.984zM38.484 10.328q0 0.563 0.422 0.969 0.438 0.406 1.047 0.406h3.375q0.594 0 1.008-0.398t0.414-0.977q0-0.594-0.422-1.008t-1-0.414h-3.375q-0.594 0-1.031 0.422t-0.438 1z"></path>
</svg>
