<?xml version="1.0" encoding="utf-8"?>
<!-- Generated by IcoMoon.io -->
<!DOCTYPE svg PUBLIC "-//W3C//DTD SVG 1.1//EN" "http://www.w3.org/Graphics/SVG/1.1/DTD/svg11.dtd">
<svg version="1.1" xmlns="http://www.w3.org/2000/svg" xmlns:xlink="http://www.w3.org/1999/xlink" width="45" height="32" viewBox="0 0 45 32">
<path fill="#444444" d="M0 19.141q0 2.797 1.664 5t4.305 2.938l-1.094 2.828q-0.125 0.359 0.234 0.359h3.547l-2.375 7.016h0.484l7.266-9.438q0.094-0.109 0.031-0.227t-0.234-0.117h-3.656l4.156-7.75q0.188-0.359-0.234-0.359h-4.938q-0.234 0-0.391 0.25l-1.781 4.797q-1.797-0.453-2.969-1.93t-1.172-3.367q0-2.109 1.406-3.641t3.516-1.781l0.844-0.047q0.297 0 0.375-0.234l0.125-0.984q0.266-2.703 2.289-4.539t4.773-1.836q2.719 0 4.773 1.836t2.336 4.539l0.125 0.984q0 0.281 0.297 0.281h2.688q2.234 0 3.844 1.602t1.609 3.82q0 2.172-1.492 3.773t-3.633 1.711q-0.328 0-0.328 0.297v2.234q0 0.281 0.328 0.281 2.203-0.063 4.039-1.195t2.898-3.016 1.063-4.086q0-1.828-0.719-3.359 1.906-2.406 1.906-5.484 0-2.375-1.18-4.398t-3.203-3.203-4.398-1.18q-1.797 0-3.492 0.75t-2.93 2.078q-2.016-1.078-4.531-1.078-3.547 0-6.289 2.195t-3.508 5.617q-2.766 0.641-4.57 2.906t-1.805 5.156zM13.641 35.672q0 0.375 0.266 0.781t0.766 0.563q0.281 0.063 0.422 0.063 0.375 0 0.641-0.125 0.531-0.203 0.719-0.953l0.453-1.719q0.156-0.625-0.141-1.117t-0.891-0.617q-0.516-0.172-1.031 0.125t-0.703 0.859l-0.422 1.734q-0.078 0.344-0.078 0.406zM14.031-1.344q0 0.578 0.422 1l1.078 1.094q0.391 0.391 0.922 0.438 0.516 0.078 1.016-0.375t0.5-1.063q0-0.578-0.422-1l-1.047-1.094q-0.406-0.406-1-0.406-0.625 0-1.047 0.406t-0.422 1zM15.875 27.672q-0.016 0.406 0.234 0.789t0.797 0.539q0.531 0.172 1.039-0.102t0.695-0.93l0.5-1.719q0.172-0.547-0.133-1.055t-0.898-0.68q-0.563-0.172-1.070 0.117t-0.68 0.883l-0.406 1.75q-0.078 0.359-0.078 0.406zM20.594 30.469q0 0.359 0.172 0.656 0.328 0.531 0.906 0.719 0.281 0.094 0.469 0.094 0.313 0 0.516-0.125 0.5-0.188 0.75-1l0.422-1.688q0.172-0.594-0.109-1.086t-0.844-0.648q-0.578-0.172-1.086 0.109t-0.68 0.844l-0.469 1.734q-0.047 0.219-0.047 0.391zM22.875 22.438q0 0.438 0.273 0.836t0.82 0.555q0.422 0.141 1.016-0.078 0.5-0.219 0.719-0.953l0.453-1.672q0.156-0.625-0.133-1.117t-0.883-0.617q-0.563-0.172-1.063 0.102t-0.672 0.836l-0.484 1.766q-0.047 0.328-0.047 0.344zM23.047 6.031q1.672-1.609 4.078-1.609 2.453 0 4.18 1.711t1.727 4.164q0 1.641-0.781 3.016-2.406-2.406-5.859-2.406h-0.516q-0.734-2.969-2.828-4.875zM25.703-2.75q0 0.594 0.414 1.016t1.008 0.422 0.992-0.414 0.398-1.023v-3.438q0-0.609-0.398-1.023t-0.992-0.414-1.008 0.422-0.414 1.016v3.438zM35 1.063q0 0.609 0.391 1 0.344 0.391 0.914 0.43t1.055-0.43l2.406-2.406q0.438-0.406 0.438-1t-0.438-1q-0.406-0.438-1-0.438-0.578 0-0.969 0.438l-2.406 2.406q-0.391 0.391-0.391 1zM36.297 20.922q0 0.578 0.422 1l1.078 1.047q0.453 0.422 1.031 0.422l0.031 0.031q0.547 0 0.906-0.453 0.438-0.406 0.438-1 0-0.578-0.438-1.016l-1.031-1.031q-0.453-0.453-1.016-0.453-0.594 0-1.008 0.43t-0.414 1.023zM38.734 10.297q0 0.609 0.438 0.984 0.391 0.438 1 0.438h3.438q0.594 0 1.016-0.414t0.422-1.008-0.414-0.992-1.023-0.398h-3.438q-0.609 0-1.023 0.398t-0.414 0.992z"></path>
</svg>
