<?xml version="1.0" encoding="utf-8"?>
<!-- Generated by IcoMoon.io -->
<!DOCTYPE svg PUBLIC "-//W3C//DTD SVG 1.1//EN" "http://www.w3.org/Graphics/SVG/1.1/DTD/svg11.dtd">
<svg version="1.1" xmlns="http://www.w3.org/2000/svg" xmlns:xlink="http://www.w3.org/1999/xlink" width="45" height="32" viewBox="0 0 45 32">
<path fill="#444444" d="M0 19.25q0 3.313 2.281 5.672t5.625 2.516q0.297 0 0.297-0.281v-2.219q0-0.297-0.297-0.297-2.141-0.109-3.609-1.664t-1.469-3.727q0-2.109 1.406-3.656t3.5-1.719l0.875-0.125q0.266 0 0.266-0.234l0.125-0.922q0.313-2.734 2.305-4.531t4.727-1.797 4.773 1.797 2.305 4.484l0.109 0.969q0.063 0.281 0.359 0.281h2.672q2.219 0 3.813 1.602t1.594 3.852q0 2.172-1.469 3.727t-3.609 1.664q-0.328 0-0.328 0.297v2.219q0 0.281 0.328 0.281 3.328-0.109 5.609-2.484t2.281-5.703q0-1.688-0.641-3.344 1.938-2.406 1.938-5.578 0-1.766-0.688-3.383t-1.859-2.789-2.789-1.867-3.398-0.695q-3.844 0-6.438 2.906-2.234-1.094-4.563-1.094-3.531 0-6.227 2.188t-3.461 5.625q-2.813 0.641-4.578 2.883t-1.766 5.148zM8.922 30.969q0 0.422 0.273 0.844t0.789 0.578q0.578 0.172 1.070-0.063t0.664-0.938l0.234-1.016q0.125-0.563-0.164-1.055t-0.867-0.664q-0.563-0.172-1.063 0.125t-0.656 0.891l-0.234 0.984q-0.047 0.141-0.047 0.313zM10.203 26.141q0 0.547 0.406 0.953 0.391 0.422 0.938 0.422 0.594 0 1.008-0.398t0.414-0.977-0.414-0.977-1.008-0.398q-0.578 0-0.961 0.391t-0.383 0.984zM11.219 22.344q-0.031 0.391 0.219 0.758t0.797 0.539q0.516 0.156 1.039-0.117t0.695-0.852l0.453-1.5q0.188-0.609-0.109-1.086t-0.906-0.648q-0.547-0.172-1.055 0.109t-0.68 0.828l-0.406 1.531q-0.047 0.422-0.047 0.438zM13.141 36.172q0 0.422 0.266 0.82t0.813 0.555q0.203 0.047 0.406 0.047 1.078 0 1.328-1.016l0.219-0.984q0.156-0.641-0.141-1.141t-0.875-0.609q-0.531-0.172-1.047 0.117t-0.688 0.852l-0.219 0.984q-0.063 0.281-0.063 0.375zM14.078-1.234q0 0.594 0.406 1l1.094 1.063q0.344 0.391 0.898 0.43t1.039-0.43q0.406-0.406 0.406-0.984 0-0.594-0.406-1l-1.047-1.078q-0.391-0.391-0.984-0.438-0.578 0-0.992 0.422t-0.414 1.016zM14.453 31.328q0 0.563 0.406 0.969t0.969 0.406q0.594 0 0.984-0.391t0.391-0.984q0-0.578-0.391-0.969t-0.984-0.391-0.984 0.391-0.391 0.969zM15.484 27.547q-0.031 0.375 0.227 0.781t0.758 0.5q0.578 0.156 1.063-0.094t0.688-0.938l0.438-1.5q0.172-0.547-0.117-1.047t-0.883-0.672q-0.547-0.172-1.063 0.133t-0.688 0.883l-0.375 1.5q-0.047 0.219-0.047 0.453zM20.094 31.125q0 0.422 0.25 0.805t0.766 0.539q0.078 0 0.234 0.031t0.234 0.031q1.016 0 1.266-1.094l0.234-1q0.172-0.531-0.117-1.047t-0.852-0.688q-0.625-0.156-1.133 0.133t-0.68 0.883l-0.156 0.984q0 0.031-0.023 0.188t-0.023 0.234zM21.328 26.203q0 0.578 0.406 0.953 0.375 0.406 0.969 0.406t0.984-0.391 0.391-0.969q0-0.594-0.391-0.984t-0.984-0.391-0.984 0.391-0.391 0.984zM22.344 22.344q0 0.422 0.266 0.805t0.813 0.539q0.047 0 0.203 0.031t0.234 0.031q0.266 0 0.609-0.156 0.516-0.266 0.672-0.875l0.406-1.5q0.156-0.563-0.117-1.055t-0.836-0.664q-0.578-0.172-1.070 0.094t-0.664 0.844l-0.469 1.516q0 0.047-0.023 0.18t-0.023 0.211zM22.922 6.156q1.656-1.656 4.109-1.656 2.469 0 4.203 1.695t1.734 4.133q0 1.656-0.891 3.125-2.453-2.453-5.828-2.453h-0.516q-0.703-2.734-2.813-4.844zM25.672-2.625q0 0.578 0.383 0.961t0.977 0.383q0.609 0 1.031-0.383t0.422-0.961v-3.438q0-0.578-0.43-1t-1.023-0.422q-0.578 0-0.969 0.414t-0.391 1.008v3.438zM34.875 1.156q0 0.625 0.375 1 0.891 0.891 2.016 0l2.391-2.391q0.422-0.422 0.422-1.047 0-0.594-0.414-1.008t-1.008-0.414q-0.578 0-1.016 0.406l-2.391 2.469q-0.375 0.359-0.375 0.984zM36.172 20.906q0 0.578 0.453 0.984l1.016 1.047q0.5 0.406 1.016 0.406 0.5 0 1-0.406 0.422-0.391 0.422-0.984 0-0.563-0.422-1.031l-1.078-1.016q-0.375-0.422-0.953-0.422t-1 0.422q-0.453 0.422-0.453 1zM38.641 10.328q0 0.594 0.438 0.984 0.453 0.453 1.031 0.453h3.375q0.578 0 0.977-0.422t0.398-1.016-0.398-1.008-0.977-0.414h-3.375q-0.594 0-1.031 0.422t-0.438 1z"></path>
</svg>
