<?xml version="1.0" encoding="utf-8"?>
<!-- Generated by IcoMoon.io -->
<!DOCTYPE svg PUBLIC "-//W3C//DTD SVG 1.1//EN" "http://www.w3.org/Graphics/SVG/1.1/DTD/svg11.dtd">
<svg version="1.1" xmlns="http://www.w3.org/2000/svg" xmlns:xlink="http://www.w3.org/1999/xlink" width="26" height="32" viewBox="0 0 26 32">
<path fill="#444444" d="M0 18.641q0-0.563 0.391-0.93t1.063-0.367h9.516q0.672 0 1.063 0.367t0.391 0.93q0 0.688-0.383 1.070t-1.070 0.383h-9.516q-0.672 0-1.063-0.383t-0.391-1.070zM0 8.781q0-0.563 0.391-0.922t1.063-0.359h4.938q0.672 0 1.070 0.359t0.398 0.922q0 0.672-0.398 1.070t-1.070 0.398h-4.938q-0.672 0-1.063-0.391t-0.391-1.078zM1.641 23.563q0-0.547 0.461-1.008t1.008-0.461q0.656 0 1.047 0.445t0.391 1.023q0 0.688-0.383 1.078t-1.055 0.391q-0.578 0-1.023-0.406t-0.445-1.063zM4.016 13.688q0-0.578 0.367-1.023t0.898-0.445q0.656 0 1.063 0.445t0.406 1.023q0 0.688-0.391 1.078t-1.078 0.391q-0.563 0-0.914-0.398t-0.352-1.070zM5.656 23.563q0-0.578 0.406-1.023t1.063-0.445h6.391l1.469 1.469q0 0.656-0.445 1.063t-1.023 0.406h-6.391q-0.688 0-1.078-0.398t-0.391-1.070zM7.859 13.688q0-0.547 0.461-1.008t1.008-0.461h6.391q0.656 0 1.055 0.445t0.398 1.023q0 0.688-0.391 1.078t-1.063 0.391h-6.391q-0.578 0-1.023-0.406t-0.445-1.063zM9.125 8.781q0-0.563 0.398-0.922t1.070-0.359h9.516q0.563 0 1.016 0.375t0.453 0.906q0 0.656-0.445 1.063t-1.023 0.406h-9.516q-0.688 0-1.078-0.398t-0.391-1.070zM13.516 18.641q0-0.531 0.453-0.914t1.016-0.383 1.016 0.383 0.453 0.914q0 0.656-0.445 1.055t-1.023 0.398-1.023-0.398-0.445-1.055zM16.078 23.563q0-0.578 0.398-1.023t1.055-0.445h3.109q0.656 0 1.055 0.438t0.398 1.031q0 0.688-0.383 1.078t-1.070 0.391h-3.109q-0.672 0-1.063-0.391t-0.391-1.078zM17.531 18.641q0-0.531 0.453-0.914t1.016-0.383h5.109q0.547 0 0.906 0.375t0.359 0.922q0 0.672-0.352 1.063t-0.914 0.391h-5.109q-0.578 0-1.023-0.398t-0.445-1.055zM18.266 13.688q0-0.547 0.461-1.008t1.008-0.461h3.266q0.531 0 0.906 0.453t0.375 1.016q0 0.672-0.359 1.070t-0.922 0.398h-3.266q-0.578 0-1.023-0.406t-0.445-1.063zM22.828 8.781q0-0.547 0.367-0.914t0.914-0.367q0.672 0 1.070 0.359t0.398 0.922q0 0.672-0.398 1.070t-1.070 0.398q-0.563 0-0.922-0.398t-0.359-1.070z"></path>
</svg>
