<?xml version="1.0" encoding="utf-8"?>
<!-- Generated by IcoMoon.io -->
<!DOCTYPE svg PUBLIC "-//W3C//DTD SVG 1.1//EN" "http://www.w3.org/Graphics/SVG/1.1/DTD/svg11.dtd">
<svg version="1.1" xmlns="http://www.w3.org/2000/svg" xmlns:xlink="http://www.w3.org/1999/xlink" width="18" height="32" viewBox="0 0 18 32">
<path fill="#444444" d="M0 9.344q0-1.25 0.891-2.141t2.141-0.891q1.234 0 2.117 0.891t0.883 2.141-0.883 2.148-2.117 0.898-2.133-0.898-0.898-2.148zM1.469 9.344q0 0.656 0.453 1.109 0.469 0.469 1.109 0.469t1.109-0.469 0.469-1.109-0.469-1.102-1.109-0.461q-0.656 0-1.109 0.453t-0.453 1.109zM8.828 20.828q0 0.359 0.258 0.617t0.617 0.258 0.617-0.258 0.258-0.617v-6.313h4.766q0.359 0 0.617-0.266t0.258-0.625q0-0.375-0.25-0.625t-0.625-0.25h-4.766v-4.547h6.375q0.359 0 0.594-0.25t0.234-0.625-0.234-0.625-0.594-0.25h-7.953q-0.172 0-0.172 0.188v14.188z"></path>
</svg>
