<?xml version="1.0" encoding="utf-8"?>
<!-- Generated by IcoMoon.io -->
<!DOCTYPE svg PUBLIC "-//W3C//DTD SVG 1.1//EN" "http://www.w3.org/Graphics/SVG/1.1/DTD/svg11.dtd">
<svg version="1.1" xmlns="http://www.w3.org/2000/svg" xmlns:xlink="http://www.w3.org/1999/xlink" width="41" height="32" viewBox="0 0 41 32">
<path fill="#444444" d="M0 26.078q0-0.609 0.422-1.016t1.047-0.406h31.109q0.625 0 1.023 0.398t0.398 1.023q0 0.578-0.414 0.969t-1.008 0.391h-31.109q-0.625 0-1.047-0.391t-0.422-0.969zM4.359 20.844q0-0.609 0.438-1 0.375-0.375 0.984-0.375h31.125q0.578 0 0.969 0.398t0.391 0.977q0 0.594-0.391 1.008t-0.969 0.414h-31.125q-0.594 0-1.008-0.422t-0.414-1zM4.578 16.875q0 0.219 0.25 0.219h2.391q0.156 0 0.328-0.266 0.594-1.297 1.773-2.125t2.586-0.938l0.922-0.125q0.281 0 0.281-0.297l0.109-0.828q0.266-2.703 2.289-4.508t4.742-1.805q2.703 0 4.711 1.781t2.289 4.469l0.125 0.953q0 0.281 0.328 0.281h2.656q1.609 0 2.93 0.859t1.961 2.281q0.172 0.266 0.344 0.266h2.391q0.297 0 0.234-0.375-0.734-2.563-2.906-4.188t-4.953-1.625h-0.531q-0.828-3.328-3.492-5.445t-6.086-2.117q-3.5 0-6.219 2.195t-3.484 5.602q-2.125 0.5-3.727 2.016t-2.227 3.625v-0.063q-0.016 0.047-0.016 0.156zM7.266 31.188q0-0.594 0.438-0.984 0.375-0.375 1-0.375h31.141q0.594 0 1.008 0.391t0.414 0.969q0 0.594-0.422 1.016t-1 0.422h-31.141q-0.578 0-1.008-0.43t-0.43-1.008z"></path>
</svg>
