<?xml version="1.0" encoding="utf-8"?>
<!-- Generated by IcoMoon.io -->
<!DOCTYPE svg PUBLIC "-//W3C//DTD SVG 1.1//EN" "http://www.w3.org/Graphics/SVG/1.1/DTD/svg11.dtd">
<svg version="1.1" xmlns="http://www.w3.org/2000/svg" xmlns:xlink="http://www.w3.org/1999/xlink" width="35" height="32" viewBox="0 0 35 32">
<path fill="#444444" d="M0 19.172q0 3.328 2.32 5.719t5.664 2.547q0.281 0 0.281-0.281v-2.234q0-0.281-0.281-0.281-2.141-0.109-3.641-1.703t-1.5-3.766q0-2.063 1.406-3.594t3.484-1.781l0.891-0.047q0.328 0 0.328-0.313l0.094-0.891q0.266-2.703 2.289-4.523t4.758-1.82q2.719 0 4.75 1.82t2.313 4.523l0.125 0.969q0 0.281 0.297 0.281h2.688q2.219 0 3.844 1.594t1.625 3.781q0 2.172-1.508 3.766t-3.633 1.703q-0.328 0-0.328 0.281v2.234q0 0.281 0.328 0.281 2.172-0.063 4-1.188t2.883-3.008 1.055-4.070q0-2.234-1.109-4.117t-3.016-2.969-4.141-1.086h-0.531q-0.813-3.344-3.508-5.469t-6.133-2.125q-3.516 0-6.25 2.18t-3.5 5.586q-2.766 0.641-4.555 2.883t-1.789 5.117zM9.078 31.172q0.234 0.531 0.766 0.766 0.5 0.25 1.039 0.031t0.742-0.75q0.25-0.547 0.039-1.070t-0.758-0.727q-0.5-0.266-1.023-0.047t-0.773 0.781q-0.234 0.406-0.031 1.016zM10.125 26.469q0 0.391 0.258 0.758t0.773 0.539q0.484 0.281 1.031 0.023t0.734-0.992l1.5-5.641q0.156-0.625-0.133-1.117t-0.883-0.602q-0.219-0.047-0.406-0.047-0.406 0-0.789 0.25t-0.539 0.734l-1.469 5.656q-0.078 0.344-0.078 0.438zM13.234 35.781q0 0.297 0.094 0.484 0.219 0.547 0.75 0.75 0.234 0.125 0.547 0.125 0.156 0 0.5-0.094 0.547-0.203 0.789-0.75t-0.008-1.094-0.742-0.766-1.039 0q-0.469 0.203-0.68 0.594t-0.211 0.75zM14.453 31.438q0 0.922 1.047 1.219 0.281 0.063 0.406 0.063 0.375 0 0.641-0.125 0.516-0.203 0.703-0.953l2.781-10.484q0.156-0.594-0.102-1.078t-0.82-0.641q-0.203-0.047-0.453-0.047-0.406 0-0.805 0.25t-0.492 0.734l-2.844 10.563q-0.063 0.344-0.063 0.5zM20.172 30.672q0 0.297 0.125 0.531 0.203 0.484 0.734 0.734 0.281 0.109 0.578 0.109 0.156 0 0.5-0.094 0.531-0.203 0.766-0.734 0.188-0.547-0.016-1.047t-0.703-0.75q-0.563-0.266-1.086-0.047t-0.773 0.781q-0.125 0.234-0.125 0.516zM21.375 26.391q0 0.359 0.266 0.75t0.75 0.547q0.391 0.078 0.453 0.078 0.234 0 0.609-0.172 0.5-0.234 0.672-0.875l1.5-5.563q0.047-0.422 0.047-0.438 0-0.391-0.258-0.766t-0.758-0.516q-0.219-0.047-0.438-0.047-0.406 0-0.781 0.242t-0.516 0.742l-1.5 5.594q0 0.047-0.008 0.102t-0.016 0.102-0.016 0.109-0.008 0.109z"></path>
</svg>
