<?xml version="1.0" encoding="utf-8"?>
<!-- Generated by IcoMoon.io -->
<!DOCTYPE svg PUBLIC "-//W3C//DTD SVG 1.1//EN" "http://www.w3.org/Graphics/SVG/1.1/DTD/svg11.dtd">
<svg version="1.1" xmlns="http://www.w3.org/2000/svg" xmlns:xlink="http://www.w3.org/1999/xlink" width="36" height="32" viewBox="0 0 36 32">
<path fill="#444444" d="M0 17.5q0-0.656 0.453-1.031 0.359-0.375 1.031-0.375h3.469q0.609 0 1.008 0.398t0.398 1.008q0 0.594-0.406 1.016t-1 0.422h-3.469q-0.609 0-1.047-0.422t-0.438-1.016zM1.547 25.969q0-0.578 0.438-1.016 0.406-0.391 1.016-0.391h30.344q0.609 0 1.031 0.406t0.422 1-0.43 1.023-1.023 0.43h-30.344q-0.594 0-1.023-0.43t-0.43-1.023zM4.953 5.688q0-0.641 0.391-0.984 0.422-0.453 1.031-0.453 0.594 0 1.016 0.453l2.406 2.438q0.438 0.406 0.438 1 0 0.625-0.398 1.023t-1.008 0.398q-0.547 0-1-0.406l-2.484-2.453q-0.391-0.344-0.391-1.016zM9.281 17.5q0 2.172 0.891 3.891 0.078 0.234 0.406 0.234h2.781q0.188 0 0.227-0.102t-0.117-0.273q-1.328-1.625-1.328-3.75 0-2.484 1.781-4.234t4.25-1.75q2.484 0 4.242 1.75t1.758 4.234q0 2.141-1.328 3.75-0.094 0.156-0.094 0.203-0.016 0.078 0.047 0.125t0.172 0.047h2.828q0.219 0 0.344-0.234 0.938-1.766 0.938-3.891 0-2.391-1.203-4.445t-3.258-3.258-4.445-1.203-4.445 1.203-3.25 3.258-1.195 4.445zM16.734 4.281v-3.484q0-0.594 0.422-1.031t1.016-0.438 1.031 0.438 0.438 1.031v3.484q0 0.594-0.438 1.031t-1.031 0.438-1.016-0.438-0.422-1.031zM26.109 8.141q0-0.609 0.406-1l2.406-2.438q0.422-0.453 1.031-0.453 0.625 0 1.039 0.414t0.414 1.023q0 0.641-0.375 1.016l-2.516 2.453q-0.406 0.375-0.984 0.375-0.625 0.016-1.023-0.375t-0.398-1.016zM29.984 17.5q0-0.672 0.406-1.031 0.359-0.375 0.984-0.375h3.484q0.609 0 1.039 0.398t0.43 1.008q0 0.594-0.438 1.016t-1.031 0.422h-3.484q-0.578 0-0.984-0.422t-0.406-1.016z"></path>
</svg>
