<?xml version="1.0" encoding="utf-8"?>
<!-- Generated by IcoMoon.io -->
<!DOCTYPE svg PUBLIC "-//W3C//DTD SVG 1.1//EN" "http://www.w3.org/Graphics/SVG/1.1/DTD/svg11.dtd">
<svg version="1.1" xmlns="http://www.w3.org/2000/svg" xmlns:xlink="http://www.w3.org/1999/xlink" width="34" height="32" viewBox="0 0 34 32">
<path fill="#444444" d="M0 25.953q0-0.656 0.469-1.031 0.344-0.391 1.047-0.391h30.563q0.625 0 1.063 0.406t0.438 1.016q0 0.594-0.445 1.039t-1.055 0.445h-30.563q-0.625 0-1.070-0.445t-0.445-1.039zM3.281 12.141q0-0.656 0.391-1.047 0.422-0.438 1.078-0.438 0.578 0 1 0.438l2.5 2.5q0.453 0.453 0.453 1.047 0 0.578-0.453 1.031-0.375 0.453-1.008 0.445t-1.070-0.445l-2.5-2.5q-0.391-0.375-0.391-1.031zM8.172 21.453q-0.109 0.391 0.25 0.391h2.484q0.172 0 0.375-0.281 0.75-1.594 2.219-2.531t3.266-0.938q1.813 0 3.313 0.938t2.25 2.531q0.203 0.281 0.375 0.281h2.469q0.313 0 0.25-0.391-0.844-2.828-3.242-4.594t-5.414-1.766q-3 0-5.375 1.766t-3.219 4.594zM15.344 10.688v-3.563q0-0.625 0.406-1.063t1.016-0.438q0.625 0 1.047 0.43t0.422 1.070v3.563q0 0.641-0.422 1.063t-1.047 0.422q-0.609 0-1.016-0.43t-0.406-1.055zM24.875 14.641q0-0.594 0.422-1.047l2.563-2.5q0.391-0.438 1.031-0.438 0.609 0 1 0.422t0.391 1.063q0 0.656-0.391 1.031l-2.469 2.5q-0.422 0.422-0.938 0.469-0.563 0.063-1.086-0.406t-0.523-1.094z"></path>
</svg>
