<?xml version="1.0" encoding="utf-8"?>
<!-- Generated by IcoMoon.io -->
<!DOCTYPE svg PUBLIC "-//W3C//DTD SVG 1.1//EN" "http://www.w3.org/Graphics/SVG/1.1/DTD/svg11.dtd">
<svg version="1.1" xmlns="http://www.w3.org/2000/svg" xmlns:xlink="http://www.w3.org/1999/xlink" width="36" height="32" viewBox="0 0 36 32">
<path fill="#444444" d="M0 15.594q0-0.594 0.453-1.016 0.422-0.422 1.031-0.422h3.438q0.594 0 1.008 0.422t0.414 1.016q0 0.625-0.414 1.047t-1.008 0.422h-3.438q-0.625 0-1.055-0.422t-0.43-1.047zM4.875 3.906q0-0.578 0.406-1.031 0.469-0.422 1.094-0.422 0.531 0 0.984 0.422l2.422 2.469q0.422 0.406 0.422 1t-0.414 1.008-0.992 0.414q-0.641 0-1.016-0.422l-2.5-2.406q-0.406-0.438-0.406-1.031zM9.219 15.594q0-1.766 0.711-3.398t1.906-2.813 2.836-1.891 3.422-0.711q2.391 0 4.438 1.195t3.234 3.227 1.188 4.391q0 0.375-0.047 0.703-0.703-0.422-1.609-0.422-0.609 0-1.203 0.25 0.016-0.172 0.016-0.531 0-2.438-1.766-4.164t-4.25-1.727q-2.469 0-4.227 1.727t-1.758 4.164v0.297q-0.734 0.047-1.406 0.422-0.016 0.016-0.172 0.125t-0.313 0.227-0.391 0.313-0.438 0.398q-0.172-0.797-0.172-1.781zM9.266 21.688v-0.25q-0.016-0.234 0.031-0.547 0.125-0.891 0.703-1.703 0.328-0.406 0.453-0.516 0.016-0.047 0.063-0.094l0.063-0.063q0.063-0.031 0.203-0.172 0.047-0.063 0.133-0.125t0.117-0.094q0.125-0.125 0.234-0.172l0.281-0.188q0.359-0.234 0.828-0.234h0.047q0.25 0 0.438 0.047 0.078 0.031 0.219 0.109v0.016q0.359 0.156 0.57 0.477t0.211 0.695q0 0.422-0.234 0.703-0.156 0.219-0.375 0.391-0.047 0.016-0.102 0.047t-0.070 0.031l-0.094 0.063q-0.094 0.078-0.164 0.141t-0.18 0.18-0.188 0.227-0.148 0.258-0.086 0.289v0.25q0.094 0.375 0.188 0.594 0.172 0.344 0.563 0.734 0.031 0.047 0.406 0.422 2.156 1.953 2.016 4.172-0.047 0.75-0.352 1.445t-0.711 1.172-0.656 0.711-0.422 0.344q-0.016 0.016-0.094 0.070t-0.125 0.070q-0.203 0.094-0.359 0.109-0.219 0.031-0.328 0.031-0.75 0-1.188-0.5-0.359-0.438-0.297-0.984t0.547-0.891l0.031-0.031q0.047-0.031 0.102-0.086l0.133-0.133t0.156-0.172 0.164-0.203 0.156-0.242 0.133-0.266 0.102-0.297 0.039-0.32q0.047-0.5-0.25-1-0.125-0.266-0.375-0.547-0.172-0.203-0.25-0.266-0.234-0.281-0.25-0.297-0.047-0.031-0.117-0.094t-0.102-0.078q-0.375-0.344-0.563-0.594-0.313-0.391-0.406-0.531-0.484-0.656-0.656-1.297-0.109-0.359-0.125-0.531 0-0.047-0.031-0.133t-0.031-0.148zM15.734 21.125q0-0.141 0.016-0.234 0.063-0.547 0.328-1.070t0.586-0.883 0.625-0.633 0.523-0.414l0.203-0.125q0.375-0.234 0.828-0.234 0.281 0 0.5 0.047 0.016 0 0.086 0.039t0.102 0.070q0.031 0 0.047 0.016 0.016 0 0.125 0.078 0.5 0.297 0.625 0.906 0 0.047 0.008 0.109t0.008 0.078q0 0.078-0.031 0.195t-0.031 0.148q-0.172 0.563-0.703 0.828-0.828 0.547-0.875 1.156-0.016 0.203 0 0.359 0.063 0.297 0.281 0.656 0.281 0.406 0.406 0.531 0.391 0.391 0.469 0.453 0.313 0.281 0.781 0.844 1.359 1.625 1.234 3.328-0.047 0.75-0.352 1.453t-0.711 1.164-0.672 0.711-0.422 0.344l-0.203 0.141q-0.266 0.094-0.344 0.109-0.281 0.031-0.328 0.031h-0.047q-0.203 0-0.313-0.031-0.047 0-0.141-0.023t-0.109-0.023l-0.156-0.078q-0.375-0.266-0.438-0.344-0.391-0.453-0.313-0.992t0.563-0.883l0.047-0.063q0.063-0.047 0.148-0.133l0.195-0.195t0.211-0.266 0.195-0.32 0.148-0.367 0.070-0.406q0.031-1-1.156-2.109-0.469-0.422-0.734-0.719-1.391-1.641-1.281-3.25zM16.641 2.531v-3.453q0-0.609 0.43-1.031t1.023-0.422q0.609 0 1.031 0.422t0.422 1.031v3.453q0 0.594-0.422 0.984t-1.031 0.391q-0.594 0-1.023-0.391t-0.43-0.984zM22.234 20.891q0.063-0.547 0.328-1.070t0.586-0.883 0.625-0.633 0.508-0.414l0.219-0.125q0.063-0.063 0.172-0.125 0.281-0.109 0.625-0.109 0.844 0 1.281 0.641 0.125 0.172 0.172 0.375 0.031 0.063 0.031 0.141v0.188q0 0.781-0.75 1.172-0.797 0.531-0.875 1.156-0.094 0.844 1.141 2 2.188 1.938 2.047 4.172-0.047 0.75-0.352 1.445t-0.719 1.172-0.656 0.711-0.414 0.344q-0.406 0.25-0.688 0.266-0.078 0.016-0.25 0.016-0.75 0-1.156-0.5-0.375-0.438-0.313-0.984t0.531-0.891q0.078-0.031 0.297-0.234t0.477-0.641 0.289-0.875q0.047-1-1.172-2.109-1.031-0.906-1.563-1.938-0.563-1.094-0.422-2.266zM26.047 6.344q0-0.625 0.375-1l2.438-2.469q0.453-0.422 1.016-0.422 0.594 0 1.023 0.43t0.43 1.023q0 0.625-0.438 1.031l-2.469 2.406q-0.453 0.422-1.016 0.422-0.578 0-0.969-0.414t-0.391-1.008zM29.891 15.594q0-0.547 0.438-1.016 0.391-0.422 0.969-0.422h3.438q0.594 0 1.039 0.43t0.445 1.008q0 0.609-0.438 1.039t-1.047 0.43h-3.438q-0.609 0-1.008-0.422t-0.398-1.047z"></path>
</svg>
