<?xml version="1.0" encoding="utf-8"?>
<!-- Generated by IcoMoon.io -->
<!DOCTYPE svg PUBLIC "-//W3C//DTD SVG 1.1//EN" "http://www.w3.org/Graphics/SVG/1.1/DTD/svg11.dtd">
<svg version="1.1" xmlns="http://www.w3.org/2000/svg" xmlns:xlink="http://www.w3.org/1999/xlink" width="13" height="32" viewBox="0 0 13 32">
<path fill="#444444" d="M0.047 15.219v-0.031q-0.016-0.203 0.008-0.609t0.164-1.344 0.414-1.922 0.852-2.25 1.367-2.406 2.086-2.32 2.891-2.070q0.391-0.219 0.82-0.094t0.633 0.516q0.219 0.391 0.102 0.828t-0.508 0.656q-3.281 1.797-5.047 5.078 1.344-0.625 2.719-0.625 2.688 0 4.609 1.914t1.922 4.602q0 0.203-0.008 0.398t-0.070 0.859-0.188 1.281-0.391 1.547-0.633 1.766-0.969 1.836-1.344 1.867-1.805 1.75-2.313 1.586q-0.234 0.141-0.516 0.141-0.641 0-0.969-0.578-0.219-0.391-0.094-0.82t0.516-0.633q3.359-1.875 5.094-5.141-1.359 0.641-2.844 0.641-1.734 0-3.227-0.859t-2.375-2.344-0.898-3.219zM2.875 15.141q0 1.531 1.078 2.609t2.594 1.078q1.422 0 2.477-0.945t1.211-2.352l0.016-0.375q0-0.063 0.016-0.078-0.016-1.5-1.102-2.539t-2.617-1.039q-1.391 0-2.43 0.906t-1.211 2.266l-0.031 0.422v0.047z"></path>
</svg>
