<?xml version="1.0" encoding="utf-8"?>
<!-- Generated by IcoMoon.io -->
<!DOCTYPE svg PUBLIC "-//W3C//DTD SVG 1.1//EN" "http://www.w3.org/Graphics/SVG/1.1/DTD/svg11.dtd">
<svg version="1.1" xmlns="http://www.w3.org/2000/svg" xmlns:xlink="http://www.w3.org/1999/xlink" width="23" height="32" viewBox="0 0 23 32">
<path fill="#444444" d="M0 31.844h0.656l11.469-16.969q0.234-0.453-0.25-0.453h-4.734l4.984-9.078q0.219-0.453-0.328-0.453h-6.344q-0.266 0-0.484 0.297l-4.625 12.328q-0.063 0.453 0.313 0.453h4.578zM14.172 21.297h0.453l8.703-12.781q0.125-0.203 0.063-0.328t-0.281-0.125h-3.5l3.641-6.719q0.297-0.5-0.297-0.5h-4.563q-0.328 0-0.5 0.313l-3.469 9.141q-0.078 0.219 0.016 0.344t0.313 0.125h3.406z"></path>
</svg>
