<?xml version="1.0" encoding="utf-8"?>
<!-- Generated by IcoMoon.io -->
<!DOCTYPE svg PUBLIC "-//W3C//DTD SVG 1.1//EN" "http://www.w3.org/Graphics/SVG/1.1/DTD/svg11.dtd">
<svg version="1.1" xmlns="http://www.w3.org/2000/svg" xmlns:xlink="http://www.w3.org/1999/xlink" width="17" height="32" viewBox="0 0 17 32">
<path fill="#444444" d="M0.016 15.375q0-2.328 1.172-4.336t3.18-3.18 4.336-1.172q1.75 0 3.359 0.695t2.773 1.859 1.852 2.773 0.688 3.359q0 2.344-1.164 4.344t-3.164 3.164-4.344 1.164-4.344-1.164-3.172-3.164-1.172-4.344zM7.453 9.703q2.172 0.266 3.648 1.922t1.477 3.891q0 2.078-1.305 3.664t-3.305 2.023q0.5 0.063 0.734 0.063 2.438 0 4.164-1.727t1.727-4.164q0-2.406-1.727-4.109t-4.164-1.703q-0.656 0-1.25 0.141z"></path>
</svg>
