<?xml version="1.0" encoding="utf-8"?>
<!-- Generated by IcoMoon.io -->
<!DOCTYPE svg PUBLIC "-//W3C//DTD SVG 1.1//EN" "http://www.w3.org/Graphics/SVG/1.1/DTD/svg11.dtd">
<svg version="1.1" xmlns="http://www.w3.org/2000/svg" xmlns:xlink="http://www.w3.org/1999/xlink" width="26" height="32" viewBox="0 0 26 32">
<path fill="#444444" d="M0 23.688q0-0.328 0.016-0.484v-0.141q0-0.047 0.008-0.094t0.008-0.078 0.008-0.078 0.008-0.063v-0.031q0-0.078 0.031-0.195t0.031-0.148v-0.047q0-0.031 0.008-0.078t0.008-0.063q0.016-0.094 0.039-0.195t0.055-0.227l0.047-0.188q0-0.016 0.016-0.031v-0.031l0.063-0.234q0.016-0.016 0.016-0.031 0.016-0.031 0.016-0.047v-0.047q0.094-0.313 0.172-0.469 0-0.016 0.031-0.047 0.016-0.031 0.078-0.25 0.422-0.953 1.047-1.797l0.094-0.125q0.016-0.016 0.047-0.063t0.047-0.063q0.016-0.031 0.109-0.094 0.016-0.047 0.063-0.094t0.063-0.094q0.094-0.063 0.109-0.125 0.031-0.016 0.109-0.094l0.109-0.125 12.672-13.891-0.641 3.672 11.359-12.156-6.969 13.563 6.969-5.266-6.313 12.672 4.516-3.109-7.797 13.891q0 0.016-0.031 0.078t-0.047 0.078q-0.016 0.031-0.031 0.078t-0.031 0.063l-0.078 0.156q-1.078 2.094-3.094 3.359t-4.453 1.266q-2.297 0-4.25-1.141t-3.094-3.094-1.141-4.25zM2 23.688q0 2.688 1.898 4.586t4.586 1.898q2.047 0 3.703-1.18t2.344-3.070q0.422-1.063 0.422-2.234 0-2.688-1.891-4.578t-4.578-1.891q-2.5 0-4.328 1.672-1.016 0.891-1.586 2.141t-0.57 2.656z"></path>
</svg>
