<?xml version="1.0" encoding="utf-8"?>
<!-- Generated by IcoMoon.io -->
<!DOCTYPE svg PUBLIC "-//W3C//DTD SVG 1.1//EN" "http://www.w3.org/Graphics/SVG/1.1/DTD/svg11.dtd">
<svg version="1.1" xmlns="http://www.w3.org/2000/svg" xmlns:xlink="http://www.w3.org/1999/xlink" width="24" height="32" viewBox="0 0 24 32">
<path fill="#444444" d="M0 15.406q0 2.438 0.953 4.664t2.563 3.836 3.828 2.563 4.656 0.953 4.664-0.953 3.836-2.563 2.563-3.836 0.953-4.664-0.953-4.656-2.563-3.828-3.836-2.563-4.664-0.953-4.656 0.953-3.828 2.563-2.563 3.828-0.953 4.656zM0.453 15.406q0-2.344 0.914-4.484t2.461-3.695 3.688-2.469 4.484-0.914q2.359 0 4.5 0.914t3.695 2.469 2.469 3.695 0.914 4.484q0 2.359-0.914 4.5t-2.469 3.688-3.695 2.461-4.5 0.914q-2.344 0-4.484-0.914t-3.688-2.461-2.461-3.688-0.914-4.5z"></path>
</svg>
