<?xml version="1.0" encoding="utf-8"?>
<!-- Generated by IcoMoon.io -->
<!DOCTYPE svg PUBLIC "-//W3C//DTD SVG 1.1//EN" "http://www.w3.org/Graphics/SVG/1.1/DTD/svg11.dtd">
<svg version="1.1" xmlns="http://www.w3.org/2000/svg" xmlns:xlink="http://www.w3.org/1999/xlink" width="36" height="32" viewBox="0 0 36 32">
<path fill="#444444" d="M0 19.375q0 2.828 1.664 5.016t4.367 3q0.25 0.031 0.422-0.125l1.891-2.438q-2.234 0-3.852-1.602t-1.617-3.852q0-2.156 1.43-3.734t3.57-1.75l0.875-0.125q0.266 0 0.266-0.234l0.125-0.938q0.297-2.75 2.352-4.594t4.805-1.844q2.781 0 4.852 1.828t2.336 4.563l0.125 0.984q0.063 0.281 0.344 0.281h2.719q2.25 0 3.875 1.641t1.625 3.922q0 2.109-1.422 3.68t-3.5 1.773q-1.188 0-1.516 0.469l-3.641 4q-0.391 0.453-0.32 1.039t0.523 1.055q0.328 0.438 0.977 0.383t1.008-0.633l3.266-3.469q2.063-0.203 3.797-1.367t2.742-3 1.008-3.93q0-1.578-0.719-3.469 1.922-2.438 1.922-5.531 0-2.438-1.188-4.477t-3.234-3.219-4.453-1.18q-3.922 0-6.5 2.844-2.172-1.078-4.625-1.078-3.578 0-6.32 2.219t-3.523 5.719q-2.859 0.641-4.656 2.914t-1.797 5.258zM6.328 31.875q0 0.359 0.078 0.531 0.203 0.531 0.734 0.734 0.563 0.25 1.133 0.039t0.758-0.758q0.25-0.547 0.031-1.117t-0.766-0.773q-0.563-0.203-1.094 0.008t-0.781 0.742q-0.094 0.203-0.094 0.594zM9.391 27.797q0 0.578 0.531 1.109 1.063 0.906 2.094-0.25l3.656-4.063q0.375-0.438 0.305-1.023t-0.523-0.945q-0.453-0.344-1.047-0.266t-0.984 0.484l-3.672 3.969q-0.359 0.531-0.359 0.984zM10.469 36.016q0 0.297 0.125 0.531 0.219 0.563 0.688 0.766 0.297 0.125 0.609 0.125 0.188 0 0.531-0.094 0.531-0.234 0.734-0.75 0.25-0.5 0.039-1.063t-0.742-0.766q-0.563-0.266-1.094-0.047t-0.813 0.797q-0.078 0.234-0.078 0.5zM13.25 32.031v0.219q0.047 0.609 0.531 1 0.359 0.453 0.992 0.398t0.992-0.633l7.031-8.188q0.391-0.453 0.328-1.063t-0.578-0.953q-0.438-0.359-1.008-0.313t-0.961 0.5l-7.031 8.203q-0.297 0.313-0.297 0.828zM19.297 33.422q-0.172 0.563 0 1.031 0.219 0.547 0.75 0.813 0.266 0.125 0.594 0.125 0.156 0 0.5-0.094 0.563-0.219 0.766-0.766 0.25-0.563 0.047-1.094t-0.734-0.734q-0.563-0.266-1.102-0.055t-0.82 0.773zM23.297 6.047q1.703-1.703 4.125-1.703 2.516 0 4.273 1.758t1.758 4.273q0 1.563-0.859 3.031-2.438-2.438-5.922-2.438h-0.531q-0.625-2.844-2.844-4.922z"></path>
</svg>
