<?xml version="1.0" encoding="utf-8"?>
<!-- Generated by IcoMoon.io -->
<!DOCTYPE svg PUBLIC "-//W3C//DTD SVG 1.1//EN" "http://www.w3.org/Graphics/SVG/1.1/DTD/svg11.dtd">
<svg version="1.1" xmlns="http://www.w3.org/2000/svg" xmlns:xlink="http://www.w3.org/1999/xlink" width="36" height="32" viewBox="0 0 36 32">
<path fill="#444444" d="M0 19.219q0 1.641 0.625 3.133t1.695 2.578 2.539 1.758 3.109 0.75q0.297 0 0.297-0.281v-2.234q0-0.281-0.297-0.281-2.172-0.156-3.656-1.719t-1.484-3.703q0-2.094 1.414-3.641t3.492-1.734l0.875-0.094q0.313 0 0.313-0.297l0.125-0.859q0.172-1.781 1.156-3.234t2.531-2.273 3.359-0.82q2.719 0 4.742 1.797t2.32 4.484l0.109 0.969q0 0.281 0.313 0.281h2.672q2.25 0 3.859 1.602t1.609 3.82q0 2.141-1.484 3.703t-3.656 1.719q-0.328 0-0.328 0.281v2.234q0 0.281 0.328 0.281 3.344-0.156 5.641-2.523t2.297-5.695q0-1.594-0.781-3.438 1.984-2.484 1.984-5.453 0-2.375-1.18-4.391t-3.188-3.188-4.367-1.172q-3.969 0-6.453 2.891-2.031-1.063-4.438-1.063-3.516 0-6.25 2.195t-3.5 5.617q-2.797 0.641-4.57 2.875t-1.773 5.125zM12.75 26.922q-0.063 0.344 0.234 0.344h3.609l-2.203 6.953h0.484l6.969-9.297q0.094-0.109 0.039-0.227t-0.227-0.117h-3.641l3.828-7.063q0.188-0.359-0.234-0.359h-4.906q-0.188 0-0.344 0.234zM22.859 6.078q1.672-1.656 4.125-1.656t4.164 1.719 1.711 4.188q0 1.484-0.859 3-2.422-2.328-5.75-2.328h-0.516q-0.734-2.969-2.875-4.922z"></path>
</svg>
