<?xml version="1.0" encoding="utf-8"?>
<!-- Generated by IcoMoon.io -->
<!DOCTYPE svg PUBLIC "-//W3C//DTD SVG 1.1//EN" "http://www.w3.org/Graphics/SVG/1.1/DTD/svg11.dtd">
<svg version="1.1" xmlns="http://www.w3.org/2000/svg" xmlns:xlink="http://www.w3.org/1999/xlink" width="41" height="32" viewBox="0 0 41 32">
<path fill="#444444" d="M0 25.875q0 0.563 0.422 0.953t1.031 0.391h31.016q0.594 0 1.008-0.391t0.414-0.953q0-0.609-0.406-1.023t-1.016-0.414h-31.016q-0.594 0-1.023 0.422t-0.43 1.016zM4.344 20.688q0 0.594 0.438 0.984 0.344 0.453 0.984 0.453h31.016q0.578 0 0.969-0.422t0.391-1.016q0-0.578-0.391-0.969t-0.969-0.391h-31.016q-0.594 0-1.008 0.391t-0.414 0.969zM4.594 16.656v-0.078q-0.109 0.375 0.203 0.375h2.406q0.141 0 0.313-0.25 0.594-1.297 1.773-2.125t2.586-0.938l0.891-0.125q0.313 0 0.313-0.297l0.094-0.828q0.266-2.688 2.273-4.492t4.727-1.805q2.688 0 4.703 1.781t2.297 4.453l0.109 0.953q0 0.297 0.344 0.297h2.641q1.609 0 2.922 0.859t1.953 2.266q0.172 0.25 0.359 0.25h2.359q0.297 0 0.25-0.375-0.547-1.391-0.766-1.766 1.813-1.625 2.5-4.281l0.281-1.094q0.063-0.156-0.023-0.266t-0.195-0.109l-1.031-0.359q-2.234-0.641-3.398-2.641t-0.617-4.266l0.219-0.969q0.125-0.234-0.219-0.391l-1.406-0.391q-2.734-0.672-5.359 0.438t-4.109 3.531q-1.984-0.766-3.813-0.766-3.469 0-6.18 2.188t-3.492 5.578q-2.109 0.5-3.695 2.016t-2.211 3.625zM7.234 30.953q0 0.594 0.438 0.984 0.422 0.453 0.984 0.453h31.078q0.578 0 0.984-0.422t0.406-1.016q0-0.578-0.406-0.969t-0.984-0.391h-31.078q-0.594 0-1.008 0.391t-0.414 0.969zM26.406 5.5q0.875-1.438 2.352-2.219t3.117-0.625q-0.172 2.609 1.172 4.883t3.703 3.367q-0.375 0.875-1.25 1.781-2.297-1.891-5.234-1.891h-0.531q-0.797-3.281-3.328-5.297z"></path>
</svg>
