<?xml version="1.0" encoding="utf-8"?>
<!-- Generated by IcoMoon.io -->
<!DOCTYPE svg PUBLIC "-//W3C//DTD SVG 1.1//EN" "http://www.w3.org/Graphics/SVG/1.1/DTD/svg11.dtd">
<svg version="1.1" xmlns="http://www.w3.org/2000/svg" xmlns:xlink="http://www.w3.org/1999/xlink" width="36" height="32" viewBox="0 0 36 32">
<path fill="#444444" d="M0 19.219q0 3.313 2.328 5.719t5.672 2.516q0.297 0 0.297-0.281v-2.234q0-0.281-0.297-0.281-2.125-0.109-3.641-1.711t-1.516-3.727 1.414-3.672 3.508-1.719l0.891-0.125q0.328 0 0.328-0.281l0.109-0.859q0.266-2.734 2.289-4.578t4.773-1.844q2.719 0 4.766 1.836t2.328 4.539l0.125 0.953q0 0.297 0.281 0.297h2.703q2.266 0 3.883 1.609t1.617 3.844q0 2.125-1.516 3.727t-3.641 1.711q-0.344 0-0.344 0.281v2.234q0 0.281 0.344 0.281 2.188-0.063 4.016-1.188t2.883-3 1.055-4.047q0-2.281-1.078-4.141 1.844-1.656 2.531-4.297l0.281-1.203q0.031-0.031 0.031-0.125 0-0.188-0.266-0.266l-1.016-0.281q-1.094-0.328-1.945-0.953t-1.344-1.398-0.734-1.578-0.242-1.586q0-0.672 0.172-1.438l0.188-1.031q0.063-0.234-0.234-0.375l-1.328-0.406q-1.094-0.266-2.078-0.266-0.922 0-1.875 0.219t-1.969 0.688-1.969 1.336-1.656 2.039q-2.016-0.828-3.969-0.828-3.531 0-6.273 2.195t-3.523 5.617q-2.813 0.703-4.586 2.938t-1.773 5.141zM10.641 26.031q0 0.594 0.398 1.008t0.977 0.414q0.594 0 0.992-0.414t0.398-1.008q0-0.563-0.398-0.969t-0.992-0.406q-0.578 0-0.977 0.406t-0.398 0.969zM10.641 32.094q0 0.563 0.406 0.969t0.969 0.406q0.594 0 0.992-0.391t0.398-0.984-0.398-0.984-0.992-0.391-0.984 0.391-0.391 0.984zM15.984 29.266q0 0.609 0.406 0.984 0.406 0.406 0.969 0.406 0.594 0 1.016-0.406t0.422-0.984q0-0.594-0.422-1.023t-1.016-0.43q-0.547 0-0.961 0.43t-0.414 1.023zM15.984 23.203q0 0.594 0.406 0.969 0.406 0.406 0.969 0.406 0.609 0 1.023-0.391t0.414-0.984q0-0.578-0.422-0.992t-1.016-0.414q-0.563 0-0.969 0.414t-0.406 0.992zM15.984 35.391q0 0.547 0.406 0.953 0.422 0.422 0.969 0.422 0.594 0 1.016-0.398t0.422-0.977q0-0.594-0.422-1.023t-1.016-0.43q-0.547 0-0.961 0.43t-0.414 1.023zM21.375 26.031q0 0.594 0.414 1.008t0.992 0.414 0.977-0.414 0.398-1.008q0-0.563-0.398-0.969t-0.977-0.406-0.992 0.406-0.414 0.969zM21.375 32.094q0 0.563 0.406 0.969t1 0.406 0.984-0.398 0.391-0.977q0-0.594-0.391-0.984t-0.984-0.391-1 0.391-0.406 0.984zM22.516 5.625q0.781-1.359 2.164-2.102t2.852-0.773q0.375 0 0.547 0.031v0.516q0 2.422 1.305 4.57t3.617 3.273q-0.406 0.906-1.266 1.781-2.219-1.969-5.375-1.969h-0.516q-0.688-3.078-3.328-5.328z"></path>
</svg>
