<?xml version="1.0" encoding="utf-8"?>
<!-- Generated by IcoMoon.io -->
<!DOCTYPE svg PUBLIC "-//W3C//DTD SVG 1.1//EN" "http://www.w3.org/Graphics/SVG/1.1/DTD/svg11.dtd">
<svg version="1.1" xmlns="http://www.w3.org/2000/svg" xmlns:xlink="http://www.w3.org/1999/xlink" width="36" height="32" viewBox="0 0 36 32">
<path fill="#444444" d="M0 19.156q0 2.766 1.656 4.945t4.297 2.977l-1.078 2.828q-0.109 0.344 0.234 0.344h3.531l-2.156 6.969h0.469l7.047-9.375q0.094-0.109 0.031-0.227t-0.234-0.117h-3.625l4.125-7.734q0.172-0.359-0.219-0.359h-4.938q-0.219 0-0.375 0.25l-1.781 4.797q-1.781-0.453-2.961-1.945t-1.18-3.352q0-2.078 1.414-3.609t3.508-1.781l0.875-0.125q0.328 0 0.328-0.297l0.125-0.844q0.266-2.703 2.289-4.531t4.758-1.828q2.719 0 4.766 1.836t2.328 4.523l0.125 0.953q0 0.313 0.281 0.313h2.703q2.266 0 3.875 1.586t1.609 3.805q0 2.125-1.5 3.688t-3.672 1.719q-0.313 0-0.313 0.313v2.266q0 0.297 0.313 0.297 3.328-0.109 5.648-2.523t2.32-5.758q0-2.172-1.094-4.078 1.906-1.844 2.516-4.375l0.313-1.141q0.016-0.016 0.016-0.109 0-0.203-0.25-0.266l-1.031-0.281q-1.438-0.422-2.438-1.398t-1.414-2.031-0.398-2.102q0-0.688 0.172-1.422l0.188-1.016q0.063-0.25-0.234-0.391l-1.328-0.406q-1.172-0.234-2.063-0.234-0.922-0.016-1.883 0.195t-1.977 0.672-1.961 1.313-1.648 2.008q-2.125-0.766-3.969-0.766-3.531 0-6.266 2.195t-3.516 5.602q-2.766 0.656-4.563 2.898t-1.797 5.133zM13.625 35.594q0 0.391 0.258 0.781t0.758 0.547q0.391 0.078 0.453 0.078 0.234 0 0.609-0.172 0.516-0.25 0.703-0.875l0.469-1.75q0.156-0.547-0.133-1.055t-0.883-0.68q-0.547-0.156-1.055 0.141t-0.68 0.891l-0.453 1.672q0 0.047-0.016 0.133t-0.023 0.156-0.008 0.133zM15.859 27.672q0 1.078 1.016 1.25 0.344 0.078 0.453 0.078 0.938 0 1.281-1.047l0.5-1.703q0.156-0.547-0.141-1.055t-0.891-0.68q-0.563-0.172-1.070 0.117t-0.68 0.883l-0.422 1.688q-0.047 0.219-0.047 0.469zM20.531 30.453q0.031 0.422 0.297 0.805t0.797 0.57q0.406 0.094 0.547 0.094 0.859 0 1.188-1.125l0.406-1.703q0.172-0.578-0.102-1.094t-0.836-0.688q-0.625-0.156-1.133 0.141t-0.617 0.891l-0.484 1.719q0 0.063-0.031 0.195t-0.031 0.195zM22.5 5.625q0.828-1.391 2.234-2.148t2.938-0.758h0.359v0.531q0 1.594 0.563 3.094t1.695 2.766 2.68 2.016q-0.422 0.938-1.266 1.719-2.281-1.953-5.359-1.953h-0.547q-0.703-3.141-3.297-5.266zM22.828 22.453q0 1.078 1.078 1.375 0.344 0.063 0.5 0.063 0.906 0 1.234-1.078l0.469-1.734q0.016-0.125 0.016-0.359 0.031-0.422-0.234-0.82t-0.813-0.555q-0.031 0-0.164-0.023t-0.211-0.023q-0.406 0-0.797 0.258t-0.547 0.789l-0.484 1.703q0 0.016-0.023 0.172t-0.023 0.234z"></path>
</svg>
