<?xml version="1.0" encoding="utf-8"?>
<!-- Generated by IcoMoon.io -->
<!DOCTYPE svg PUBLIC "-//W3C//DTD SVG 1.1//EN" "http://www.w3.org/Graphics/SVG/1.1/DTD/svg11.dtd">
<svg version="1.1" xmlns="http://www.w3.org/2000/svg" xmlns:xlink="http://www.w3.org/1999/xlink" width="36" height="32" viewBox="0 0 36 32">
<path fill="#444444" d="M0 19.219q0 3.313 2.328 5.719t5.672 2.516q0.297 0 0.297-0.281v-2.234q0-0.281-0.297-0.281-2.125-0.109-3.641-1.719t-1.516-3.719q0-2.125 1.414-3.68t3.508-1.727l0.891-0.109q0.328 0 0.328-0.297l0.109-0.844q0.266-2.75 2.289-4.586t4.773-1.836q2.719 0 4.773 1.828t2.336 4.531l0.125 0.953q0 0.313 0.281 0.313h2.703q2.266 0 3.883 1.609t1.617 3.844q0 1.375-0.688 2.602t-1.883 1.992-2.602 0.844q-0.328 0-0.328 0.281v2.234q0 0.281 0.328 0.281 2.203-0.063 4.031-1.188t2.883-2.992 1.055-4.055q0-2.203-1.141-4.188 2.078-1.859 2.641-4.375l0.234-1.141q0.047-0.047 0.047-0.125 0-0.141-0.281-0.266l-0.922-0.297q-1.438-0.422-2.453-1.414t-1.445-2.078-0.43-2.148q-0.047-0.531 0.156-1.375l0.219-0.969q0.109-0.25-0.219-0.391l-1.328-0.406q-1.016-0.281-2.156-0.281-0.906 0-1.867 0.219t-1.984 0.688-1.992 1.352-1.672 2.055q-2.031-0.766-3.922-0.766-3.531 0-6.273 2.195t-3.523 5.617q-2.813 0.719-4.586 2.953t-1.773 5.141zM9.016 30.969q0 0.422 0.273 0.844t0.789 0.578q0.578 0.172 1.063-0.063t0.656-0.938l0.234-1.016q0.125-0.563-0.156-1.055t-0.859-0.664q-0.563-0.172-1.070 0.125t-0.664 0.891l-0.234 0.984q-0.031 0.094-0.031 0.313zM10.281 26.141q0 0.531 0.422 0.953 0.391 0.422 0.938 0.422 0.594 0 1-0.398t0.406-0.977-0.406-0.977-1-0.398q-0.578 0-0.969 0.391t-0.391 0.984zM11.297 22.344q-0.031 0.391 0.227 0.758t0.805 0.539q0.516 0.156 1.031-0.117t0.688-0.852l0.469-1.5q0.188-0.609-0.109-1.086t-0.906-0.648q-0.547-0.172-1.055 0.109t-0.68 0.828l-0.406 1.531q0 0.047-0.031 0.195t-0.031 0.242zM13.234 36.172q0 0.438 0.258 0.828t0.805 0.547q0.203 0.047 0.422 0.047 1.063 0 1.313-1.016l0.234-0.984q0.156-0.641-0.141-1.141t-0.875-0.609q-0.531-0.172-1.047 0.117t-0.688 0.852l-0.234 0.984q-0.047 0.219-0.047 0.375zM14.531 31.328q0 0.547 0.422 0.969 0.406 0.406 0.953 0.406 0.594 0 0.984-0.391t0.391-0.984q0-0.578-0.391-0.969t-0.984-0.391-0.984 0.391-0.391 0.969zM15.578 27.547q-0.031 0.375 0.219 0.781t0.75 0.5q0.578 0.156 1.063-0.094t0.688-0.938l0.453-1.5q0.172-0.547-0.117-1.047t-0.883-0.672q-0.547-0.172-1.063 0.133t-0.688 0.883l-0.375 1.5q-0.047 0.219-0.047 0.453zM20.172 31.125q0 0.406 0.258 0.797t0.773 0.547q0.078 0 0.227 0.031t0.227 0.031q1.016 0 1.266-1.094l0.234-1q0.172-0.531-0.109-1.047t-0.844-0.688q-0.625-0.156-1.133 0.133t-0.68 0.883l-0.156 0.984q0 0.063-0.031 0.203t-0.031 0.219zM21.406 26.203q0 0.563 0.422 0.953 0.375 0.406 0.953 0.406 0.594 0 0.984-0.391t0.391-0.969q0-0.594-0.391-0.984t-0.984-0.391-0.984 0.391-0.391 0.984zM22.422 22.344q0 0.422 0.273 0.805t0.82 0.539q0.047 0 0.203 0.031t0.234 0.031q0.25 0 0.594-0.156 0.531-0.281 0.688-0.875l0.406-1.5q0.156-0.563-0.125-1.055t-0.844-0.664q-0.578-0.172-1.063 0.094t-0.656 0.844l-0.469 1.516q0 0.063-0.031 0.195t-0.031 0.195zM22.531 5.594q0.797-1.438 2.188-2.227t2.875-0.773q0.25 0 0.5 0.047v0.531q-0.031 2.453 1.289 4.602t3.695 3.227q-0.484 1-1.328 1.844-2.313-1.906-5.375-1.906h-0.516q-0.781-3.25-3.328-5.344z"></path>
</svg>
