<?xml version="1.0" encoding="utf-8"?>
<!-- Generated by IcoMoon.io -->
<!DOCTYPE svg PUBLIC "-//W3C//DTD SVG 1.1//EN" "http://www.w3.org/Graphics/SVG/1.1/DTD/svg11.dtd">
<svg version="1.1" xmlns="http://www.w3.org/2000/svg" xmlns:xlink="http://www.w3.org/1999/xlink" width="40" height="32" viewBox="0 0 40 32">
<path fill="#444444" d="M0 26.031q0 0.578 0.453 1 0.422 0.422 1.016 0.422h9.563q0.656 0 1.148 0.477t0.492 1.133q0 0.672-0.492 1.156t-1.148 0.484q-0.641 0-1.141-0.5-0.453-0.406-1.016-0.406-0.594 0-1 0.406t-0.406 1q0 0.563 0.406 1 1.313 1.313 3.156 1.313t3.148-1.297 1.305-3.156q0-1.844-1.305-3.156t-3.148-1.313h-9.563q-0.594 0-1.031 0.43t-0.438 1.008zM0 21q0 0.547 0.453 0.969 0.438 0.406 1.016 0.406h18.078q1.844 0 3.148-1.297t1.305-3.141-1.305-3.133-3.148-1.289q-1.906 0-3.156 1.266-0.375 0.391-0.375 1.016t0.383 1 0.977 0.375 1.031-0.375q0.469-0.469 1.141-0.469 0.641 0 1.125 0.469t0.484 1.141q0 0.656-0.484 1.141t-1.125 0.484h-18.078q-0.594 0-1.031 0.43t-0.438 1.008zM4.203 17.078q0 0.219 0.266 0.219h2.391q0.203 0 0.359-0.25 0.563-1.359 1.742-2.242t2.633-0.992l0.875-0.125q0.313 0 0.313-0.281l0.125-0.859q0.266-2.703 2.297-4.523t4.766-1.82 4.758 1.813 2.305 4.531l0.109 0.969q0 0.297 0.313 0.297h2.703q2.266 0 3.859 1.578t1.594 3.797-1.602 3.813-3.852 1.594h-11.516q-0.281 0-0.281 0.297v2.281q0 0.281 0.281 0.281h11.516q2.234 0 4.133-1.109t3.008-3.016 1.109-4.141q0-2.203-1.141-4.125 1.828-1.766 2.516-4.297l0.25-1.125q0.047-0.047 0.047-0.125 0-0.109-0.234-0.266l-1-0.344q-2.094-0.641-3.195-2.266t-1.102-3.359q0-0.609 0.156-1.313l0.219-1.031q0.063-0.25-0.219-0.375l-1.328-0.406q-1.094-0.266-2.078-0.266-0.922 0-1.875 0.219t-1.961 0.68-1.961 1.328-1.672 2.039q-1.766-0.75-3.859-0.75-3.531 0-6.242 2.188t-3.445 5.578q-2.141 0.5-3.781 2.047t-2.266 3.672v0.047q-0.031 0.047-0.031 0.141zM26.25 5.594q0.781-1.375 2.156-2.102t2.844-0.727q0.344 0 0.516 0.016-0.031 0.219-0.031 0.594 0 2.359 1.313 4.516t3.625 3.234q-0.391 0.938-1.25 1.719-2.219-1.906-5.266-1.906h-0.547q-0.672-3.141-3.359-5.344z"></path>
</svg>
