<?xml version="1.0" encoding="utf-8"?>
<!-- Generated by IcoMoon.io -->
<!DOCTYPE svg PUBLIC "-//W3C//DTD SVG 1.1//EN" "http://www.w3.org/Graphics/SVG/1.1/DTD/svg11.dtd">
<svg version="1.1" xmlns="http://www.w3.org/2000/svg" xmlns:xlink="http://www.w3.org/1999/xlink" width="36" height="32" viewBox="0 0 36 32">
<path fill="#444444" d="M0 19.172q0 3.328 2.328 5.727t5.672 2.555q0.297 0 0.297-0.281v-2.234q0-0.281-0.297-0.281-2.141-0.125-3.648-1.719t-1.508-3.766q0-2.078 1.414-3.617t3.508-1.789l0.891-0.063q0.328 0 0.328-0.281l0.109-0.906q0.266-2.703 2.297-4.539t4.766-1.836q2.719 0 4.766 1.836t2.328 4.539l0.125 0.953q0 0.297 0.281 0.297h2.703q2.234 0 3.867 1.602t1.633 3.805q0 2.172-1.508 3.766t-3.648 1.719q-0.344 0-0.344 0.281v2.234q0 0.281 0.344 0.281 3.328-0.109 5.641-2.523t2.313-5.758q0-2.203-1.141-4.094 2.016-1.828 2.641-4.359l0.234-1.203q0.031-0.016 0.031-0.109 0-0.188-0.266-0.266l-0.938-0.297q-1.422-0.406-2.438-1.383t-1.445-2.055-0.43-2.141q-0.047-0.563 0.141-1.375l0.234-1.016q0.109-0.25-0.234-0.406l-1.313-0.406q-1.125-0.25-2.109-0.25-0.938 0-1.906 0.219t-2 0.68-2 1.328-1.672 2.039q-2.063-0.75-3.891-0.75-3.531 0-6.273 2.195t-3.523 5.617q-2.766 0.641-4.563 2.891t-1.797 5.141zM9.266 30.563q0 0.422 0.273 0.82t0.82 0.555q0.578 0.172 1.070-0.070t0.664-0.93l2.391-9.781q0.156-0.625-0.141-1.125t-0.875-0.609q-0.547-0.172-1.055 0.109t-0.68 0.844l-2.406 9.828q0 0.031-0.031 0.156t-0.031 0.203zM13.609 35.688q0 0.391 0.258 0.766t0.742 0.516q0.281 0.063 0.406 0.063 1.094 0 1.359-0.984l3.75-14.891q0.156-0.609-0.117-1.086t-0.836-0.648q-0.578-0.172-1.102 0.117t-0.648 0.836l-3.766 14.875q0 0.031-0.023 0.195t-0.023 0.242zM20.547 30.703q0 0.891 1.047 1.234 0.344 0.094 0.5 0.094 0.281 0 0.578-0.125 0.516-0.203 0.656-0.969l2.391-9.781q0.156-0.594-0.125-1.078t-0.844-0.656q-0.578-0.172-1.094 0.109t-0.641 0.844l-2.391 9.828q-0.078 0.422-0.078 0.5zM22.516 5.625q0.797-1.453 2.18-2.211t2.93-0.727q0.297 0 0.453 0.016v0.5q-0.031 2.422 1.281 4.578t3.688 3.281q-0.563 1.141-1.313 1.781-2.297-1.891-5.375-1.891h-0.516q-0.688-3.172-3.328-5.328z"></path>
</svg>
