<?xml version="1.0" encoding="utf-8"?>
<!-- Generated by IcoMoon.io -->
<!DOCTYPE svg PUBLIC "-//W3C//DTD SVG 1.1//EN" "http://www.w3.org/Graphics/SVG/1.1/DTD/svg11.dtd">
<svg version="1.1" xmlns="http://www.w3.org/2000/svg" xmlns:xlink="http://www.w3.org/1999/xlink" width="42" height="32" viewBox="0 0 42 32">
<path fill="#444444" d="M0 26.078q0 0.594 0.422 0.984t1.047 0.391h15.672q0.594 0 0.984-0.391t0.391-0.984q0-0.625-0.391-1.023t-0.984-0.398h-15.672q-0.625 0-1.047 0.406t-0.422 1.016zM4.391 21q0 0.594 0.438 1 0.406 0.422 1 0.422h15.703q0.578 0 0.977-0.414t0.398-1.008q0-0.578-0.391-0.977t-0.984-0.398h-15.703q-0.594 0-1.016 0.398t-0.422 0.977zM6.125 17.094q0 0.234 0.297 0.234h2.375q0.219 0 0.375-0.234 0.563-1.359 1.734-2.25t2.625-1l0.922-0.125q0.297 0 0.297-0.281l0.109-0.859q0.266-2.719 2.305-4.539t4.789-1.82q2.734 0 4.734 1.797t2.344 4.516l0.125 0.969q0 0.281 0.297 0.281h2.688q2.266 0 3.859 1.594t1.594 3.844q0 2.203-1.617 3.82t-3.836 1.617h-11.516q-0.281 0-0.281 0.281v2.234q0 0.281 0.281 0.281h11.516q2.25 0 4.156-1.094t3.016-2.992 1.109-4.148-1.078-4.125q1.797-1.609 2.516-4.297l0.297-1.141q0.016-0.031 0.016-0.109 0-0.203-0.25-0.266l-1.031-0.359q-1.094-0.328-1.938-0.953t-1.336-1.398-0.734-1.57-0.242-1.578q0-0.594 0.188-1.453l0.219-1.016q0.109-0.234-0.219-0.375l-1.375-0.406q-1.094-0.266-2.078-0.266-0.938 0-1.891 0.219t-1.969 0.68-1.961 1.328-1.648 2.039q-1.938-0.797-3.953-0.797-3.531 0-6.258 2.195t-3.461 5.633q-2.172 0.5-3.805 2.039t-2.273 3.68v0.047q-0.031 0.031-0.031 0.125zM7.328 31.25q0 0.609 0.422 1 0.406 0.422 1 0.422h15.719q0.594 0 1.016-0.422t0.422-1-0.422-0.977-1.016-0.398h-15.719q-0.594 0-1.008 0.398t-0.414 0.977zM28.297 5.641q0.859-1.375 2.242-2.133t2.836-0.727q0.281 0 0.422 0.016v0.406q0 2.438 1.32 4.648t3.617 3.305q-0.438 1-1.266 1.781-2.203-1.969-5.328-1.969h-0.531q-0.625-3.016-3.313-5.328z"></path>
</svg>
