<?xml version="1.0" encoding="utf-8"?>
<!-- Generated by IcoMoon.io -->
<!DOCTYPE svg PUBLIC "-//W3C//DTD SVG 1.1//EN" "http://www.w3.org/Graphics/SVG/1.1/DTD/svg11.dtd">
<svg version="1.1" xmlns="http://www.w3.org/2000/svg" xmlns:xlink="http://www.w3.org/1999/xlink" width="36" height="32" viewBox="0 0 36 32">
<path fill="#444444" d="M0 19.156q0 3.328 2.32 5.719t5.664 2.563q0.297 0 0.297-0.297v-2.219q0-0.297-0.297-0.297-2.141-0.109-3.641-1.703t-1.5-3.766q0-2.078 1.406-3.609t3.5-1.781l0.875-0.125q0.328 0 0.328-0.297l0.125-0.844q0.266-2.703 2.289-4.523t4.758-1.82q2.719 0 4.766 1.828t2.328 4.516l0.109 0.969q0 0.297 0.297 0.297h2.703q2.266 0 3.859 1.578t1.594 3.813q0 2.172-1.5 3.766t-3.641 1.703q-0.313 0-0.313 0.297v2.219q0 0.297 0.313 0.297 2.188-0.078 4.023-1.203t2.891-3.008 1.055-4.070q0-1.844-0.719-3.344 1.969-2.391 1.969-5.531 0-2.359-1.18-4.375t-3.195-3.195-4.375-1.18q-3.891 0-6.469 2.891-2.047-1.094-4.516-1.094-3.531 0-6.266 2.195t-3.516 5.602q-2.75 0.656-4.547 2.898t-1.797 5.133zM8.953 30.781q0.219 0.547 0.766 0.766 0.5 0.25 1.039 0.039t0.742-0.742q0.219-0.547 0.016-1.086t-0.734-0.789q-0.5-0.203-1.023 0.016t-0.773 0.719q-0.25 0.422-0.031 1.078zM10 26.063q0 0.391 0.258 0.766t0.773 0.516q0.563 0.172 1.078-0.094t0.719-0.922l1.641-5.188q0.188-0.609-0.125-1.109t-0.922-0.625q-0.547-0.172-1.039 0.102t-0.664 0.836l-1.672 5.297q0 0.047-0.016 0.133t-0.023 0.156-0.008 0.133zM13.109 35.406q0 0.172 0.094 0.484 0.234 0.563 0.766 0.75 0.203 0.125 0.547 0.125 0.156 0 0.5-0.094 0.547-0.203 0.789-0.758t-0.008-1.102-0.75-0.766-1.031-0.016q-0.484 0.203-0.695 0.602t-0.211 0.773zM14.344 30.953q0 0.438 0.25 0.797t0.797 0.469q0.047 0 0.188 0.031t0.219 0.031q1.078-0.078 1.344-1.031l2.938-10.109q0.172-0.609-0.102-1.086t-0.836-0.648q-0.578-0.172-1.078 0.102t-0.672 0.836l-3 10.109q0 0.063-0.016 0.164t-0.023 0.188-0.008 0.148zM20.078 30.281q0 0.25 0.078 0.531 0.203 0.531 0.766 0.734 0.234 0.109 0.594 0.109 0.297 0 0.484-0.094 0.563-0.219 0.766-0.719 0.203-0.547 0.008-1.078t-0.695-0.797q-0.547-0.203-1.086 0.016t-0.789 0.719q-0.125 0.266-0.125 0.578zM21.266 26.047q0 0.891 1.031 1.25 0.344 0.094 0.5 0.094 0.297 0 0.563-0.141 0.438-0.219 0.672-0.922l1.641-5.188q0.188-0.578-0.102-1.070t-0.852-0.664q-0.578-0.172-1.063 0.102t-0.672 0.836l-1.641 5.219q-0.078 0.422-0.078 0.484zM22.984 6.031q1.719-1.656 4.125-1.656 2.438 0 4.164 1.734t1.727 4.172q0 1.547-0.859 3.063-2.453-2.453-5.813-2.453h-0.547q-0.766-2.891-2.797-4.859z"></path>
</svg>
