<?xml version="1.0" encoding="utf-8"?>
<!-- Generated by IcoMoon.io -->
<!DOCTYPE svg PUBLIC "-//W3C//DTD SVG 1.1//EN" "http://www.w3.org/Graphics/SVG/1.1/DTD/svg11.dtd">
<svg version="1.1" xmlns="http://www.w3.org/2000/svg" xmlns:xlink="http://www.w3.org/1999/xlink" width="36" height="32" viewBox="0 0 36 32">
<path fill="#444444" d="M0 19.094q0 2.75 1.664 4.961t4.289 2.992l-1.078 2.766q-0.109 0.344 0.234 0.344h3.531l-1.906 6.813h0.484l6.797-9.156q0.094-0.109 0.023-0.234t-0.242-0.125h-3.625l4.125-7.781q0.188-0.359-0.219-0.359h-4.938q-0.234 0-0.313 0.234l-1.844 4.875q-1.781-0.453-2.961-1.953t-1.18-3.375q0-2.094 1.414-3.648t3.508-1.742l0.875-0.109q0.328 0 0.328-0.281l0.125-0.859q0.266-2.719 2.289-4.539t4.773-1.82q2.734 0 4.766 1.82t2.328 4.539l0.109 0.969q0 0.281 0.297 0.281h2.703q2.266 0 3.875 1.586t1.609 3.805q0 2.141-1.5 3.711t-3.672 1.727q-0.313 0-0.313 0.297v2.297q0 0.281 0.313 0.281 3.328-0.109 5.648-2.531t2.32-5.781q0-1.813-0.688-3.328 1.906-2.5 1.906-5.484 0-1.781-0.703-3.398t-1.875-2.789-2.797-1.867-3.391-0.695q-1.844 0-3.531 0.75t-2.906 2.094q-2.047-1.094-4.5-1.094-3.547 0-6.281 2.18t-3.516 5.617q-2.766 0.641-4.563 2.891t-1.797 5.125zM13.625 35.547q0 0.438 0.266 0.852t0.766 0.508q0.047 0 0.133 0.016t0.156 0.023 0.133 0.008q1.063-0.078 1.328-1.016l0.484-1.766q0.156-0.547-0.148-1.055t-0.883-0.68q-0.547-0.156-1.055 0.141t-0.68 0.891l-0.422 1.672q-0.078 0.391-0.078 0.406zM15.859 27.594q0 0.375 0.258 0.75t0.773 0.563q0.547 0.188 1.047-0.086t0.672-0.883l0.5-1.734q0.156-0.625-0.133-1.125t-0.883-0.609q-0.563-0.172-1.070 0.117t-0.695 0.883l-0.422 1.703q0 0.047-0.016 0.133t-0.023 0.156-0.008 0.133zM20.578 30.297q0 0.469 0.266 0.867t0.781 0.539q0.391 0.078 0.453 0.078 0.984 0 1.281-1l0.406-1.766q0.172-0.547-0.094-1.047t-0.828-0.688q-0.625-0.156-1.141 0.148t-0.625 0.883l-0.469 1.656q-0.031 0.125-0.031 0.328zM22.844 22.391q0 0.406 0.266 0.789t0.813 0.57q0.422 0.047 0.438 0.047 0.297 0 0.625-0.141 0.484-0.25 0.656-0.875l0.484-1.734q0.156-0.547-0.148-1.055t-0.883-0.68q-0.563-0.172-1.063 0.117t-0.672 0.883l-0.469 1.703q-0.047 0.219-0.047 0.375zM23.016 5.969q1.656-1.594 4.078-1.594 2.453 0 4.172 1.727t1.719 4.18q0 1.578-0.813 2.969-2.469-2.406-5.813-2.406h-0.531q-0.766-2.891-2.813-4.875z"></path>
</svg>
