<?xml version="1.0" encoding="utf-8"?>
<!-- Generated by IcoMoon.io -->
<!DOCTYPE svg PUBLIC "-//W3C//DTD SVG 1.1//EN" "http://www.w3.org/Graphics/SVG/1.1/DTD/svg11.dtd">
<svg version="1.1" xmlns="http://www.w3.org/2000/svg" xmlns:xlink="http://www.w3.org/1999/xlink" width="37" height="32" viewBox="0 0 37 32">
<path fill="#444444" d="M0 19.172q0-2.891 1.773-5.125t4.57-2.859q0.578-2.578 2.336-4.508t4.211-2.758q1.547-0.531 3.219-0.531 2.031 0 3.922 0.797 0.703-1.172 1.648-2.031t1.953-1.32 1.961-0.68 1.875-0.219q0.953 0 2.047 0.266l1.359 0.422q0.344 0.141 0.234 0.375l-0.234 1q-0.172 0.781-0.172 1.438 0 0.781 0.242 1.578t0.727 1.563 1.328 1.391 1.922 0.953l1.031 0.359q0.25 0.063 0.25 0.266 0 0.047-0.031 0.109l-0.297 1.125q-0.688 2.688-2.5 4.281 1 1.75 1.078 3.734 0.016 0.125 0.016 0.375 0 2.234-1.109 4.133t-3.008 3.008-4.133 1.109h-18.016q-2.234 0-4.125-1.109t-2.984-3.008-1.094-4.133zM2.844 19.172q0 2.219 1.594 3.844t3.766 1.625h18.016q2.219 0 3.805-1.609t1.586-3.859q0-2.188-1.594-3.773t-3.797-1.586h-2.969l-0.172-1.25q-0.25-2.531-2.094-4.32t-4.391-1.992q-0.078 0-0.242-0.016t-0.242-0.016q-1.266 0-2.563 0.484v-0.031q-1.828 0.703-3.070 2.281t-1.492 3.609l-0.109 1.203-1.141 0.047q-2.109 0.25-3.5 1.766t-1.391 3.594zM22.422 5.656q2.656 2.266 3.281 5.297h0.531q3.109 0 5.281 1.969 0.828-0.781 1.266-1.781-2.281-1.078-3.594-3.281t-1.313-4.641v-0.406q-0.125-0.016-0.406-0.016-1.453-0.031-2.828 0.727t-2.219 2.133z"></path>
</svg>
