<?xml version="1.0" encoding="utf-8"?>
<!-- Generated by IcoMoon.io -->
<!DOCTYPE svg PUBLIC "-//W3C//DTD SVG 1.1//EN" "http://www.w3.org/Graphics/SVG/1.1/DTD/svg11.dtd">
<svg version="1.1" xmlns="http://www.w3.org/2000/svg" xmlns:xlink="http://www.w3.org/1999/xlink" width="36" height="32" viewBox="0 0 36 32">
<path fill="#444444" d="M0 19.125q0 2.781 1.656 4.961t4.297 2.977l-1.094 2.813q-0.063 0.344 0.25 0.344h3.531l-1.625 5.844h0.484l6.516-8.234q0.094-0.125 0.023-0.242t-0.242-0.117h-3.625l4.125-7.719q0.172-0.359-0.219-0.359h-4.938q-0.219 0-0.375 0.234l-1.781 4.797q-1.797-0.453-2.969-1.945t-1.172-3.352q0-2.078 1.414-3.617t3.508-1.789l0.875-0.125q0.328 0 0.328-0.281l0.125-0.859q0.266-2.703 2.289-4.531t4.758-1.828q2.703 0 4.758 1.836t2.352 4.523l0.109 0.984q0 0.281 0.297 0.281h2.703q2.266 0 3.875 1.586t1.609 3.82q0 2.125-1.5 3.688t-3.672 1.734q-0.313 0-0.313 0.281v2.297q0 0.297 0.313 0.297 2.188-0.078 4.023-1.203t2.891-3.008 1.055-4.086q0-2.172-1.094-4.078 1.984-1.891 2.594-4.375l0.234-1.203q0.031-0.031 0.031-0.125 0-0.172-0.266-0.25l-0.938-0.297q-1.422-0.406-2.438-1.367t-1.445-2.055-0.43-2.203q0-0.656 0.141-1.328l0.234-1.016q0.109-0.25-0.234-0.391-0.531-0.219-1.508-0.438t-1.914-0.219q-0.906 0-1.859 0.219t-1.977 0.68-1.992 1.328-1.672 2.039q-2.063-0.75-3.969-0.75-3.531 0-6.266 2.188t-3.516 5.594q-2.766 0.656-4.563 2.906t-1.797 5.141zM13.5 35.5q0 0.406 0.242 0.773t0.742 0.508q0.266 0.047 0.5 0.047 1.016 0 1.266-1.047l3.859-14.656q0.156-0.594-0.117-1.086t-0.836-0.648q-0.578-0.172-1.086 0.102t-0.664 0.82l-3.859 14.734q-0.047 0.219-0.047 0.453zM20.453 30.469q0 0.406 0.242 0.766t0.773 0.516q0.078 0 0.258 0.023t0.273 0.023q0.953 0 1.203-1.047l2.5-9.625q0.156-0.609-0.125-1.094t-0.844-0.641q-0.578-0.172-1.078 0.094t-0.656 0.828l-2.5 9.703q-0.047 0.266-0.047 0.453zM22.516 5.578q0.828-1.422 2.211-2.172t2.93-0.75q0.313 0 0.453 0.016v0.531q0 2.406 1.305 4.547t3.617 3.281q-0.453 1.047-1.313 1.781-2.297-1.969-5.359-1.969h-0.531q-0.703-3.109-3.313-5.266z"></path>
</svg>
