<?xml version="1.0" encoding="utf-8"?>
<!-- Generated by IcoMoon.io -->
<!DOCTYPE svg PUBLIC "-//W3C//DTD SVG 1.1//EN" "http://www.w3.org/Graphics/SVG/1.1/DTD/svg11.dtd">
<svg version="1.1" xmlns="http://www.w3.org/2000/svg" xmlns:xlink="http://www.w3.org/1999/xlink" width="36" height="32" viewBox="0 0 36 32">
<path fill="#444444" d="M0 19.219q0 2.797 1.664 5.008t4.289 2.945q0.219 0.047 0.406-0.125l1.875-2.344q-2.188 0-3.789-1.625t-1.602-3.859q0-2.094 1.406-3.617t3.516-1.711l0.828-0.109q0.313 0 0.313-0.313l0.125-0.891q0.313-2.719 2.344-4.547t4.766-1.828q2.719 0 4.766 1.836t2.344 4.539l0.109 0.969q0 0.281 0.297 0.281h2.703q2.203 0 3.805 1.594t1.602 3.797q0 2.125-1.406 3.695t-3.453 1.742q-1.125 0.141-1.438 0.469l-3.891 4.844q-0.391 0.438-0.313 1.047 0.063 0.594 0.523 0.984t0.945 0.391q0.563 0 1.063-0.625l3.406-4.313q1.547-0.156 2.93-0.867t2.367-1.805 1.563-2.547 0.578-3.016q0-2.172-1.141-4.063 2.031-1.844 2.641-4.375v-0.156l0.328-1.281-1.266-0.438q-1.438-0.422-2.445-1.391t-1.438-2.047-0.43-2.188q0-0.641 0.141-1.328l0.313-1.297-1.391-0.391q-0.016 0-0.047-0.031l-0.063-0.031t-0.070-0.031-0.055-0.016q-1.094-0.266-2.078-0.266-0.953 0.016-1.914 0.234t-2 0.688-2.008 1.344-1.672 2.063q-1.875-0.813-3.906-0.813-3.531 0-6.266 2.188t-3.516 5.594q-2.828 0.688-4.594 2.914t-1.766 5.117zM6.172 32.531q0 0.328 0.109 0.516 0.219 0.547 0.719 0.766 0.547 0.25 1.109 0.047t0.766-0.734q0.25-0.547 0.023-1.117t-0.758-0.758q-0.547-0.25-1.102-0.039t-0.758 0.758q-0.109 0.234-0.109 0.563zM9.25 28.453v0.188q0.047 0.563 0.547 0.922 0.328 0.375 0.906 0.359t1.094-0.531l3.875-4.859q0.344-0.438 0.281-1.039t-0.5-0.961-1.047-0.297-0.953 0.563l-3.875 4.766q-0.328 0.375-0.328 0.891zM10.203 37.141q0.219 0.531 0.766 0.75 0.266 0.125 0.547 0.125 0.156 0 0.5-0.094 0.531-0.219 0.734-0.734 0.203-0.547 0.016-1.078t-0.734-0.797q-0.547-0.203-1.047 0.008t-0.75 0.727q-0.266 0.469-0.031 1.094zM12.859 32.703v0.141q0.063 0.563 0.531 0.961t0.938 0.398q0.547 0 1-0.563l7.188-8.938q0.359-0.422 0.313-1.031t-0.484-0.969q-0.5-0.359-1.102-0.305t-0.945 0.492l-7.125 8.938q-0.313 0.391-0.313 0.875zM18.703 34.547q0 0.281 0.125 0.547 0.203 0.563 0.781 0.781 0.563 0.219 1.016 0.031 0.547-0.219 0.766-0.766 0.25-0.547 0.055-1.070t-0.742-0.773q-0.547-0.203-1.086 0t-0.789 0.703q-0.125 0.297-0.125 0.547zM22.516 5.688q0.781-1.438 2.164-2.195t2.93-0.727q0.297 0 0.438 0.016v0.5q0 2.422 1.336 4.586t3.648 3.273q-0.625 1.172-1.313 1.859-2.219-1.969-5.359-1.969h-0.531q-0.75-3.203-3.313-5.344z"></path>
</svg>
