<?xml version="1.0" encoding="utf-8"?>
<!-- Generated by IcoMoon.io -->
<!DOCTYPE svg PUBLIC "-//W3C//DTD SVG 1.1//EN" "http://www.w3.org/Graphics/SVG/1.1/DTD/svg11.dtd">
<svg version="1.1" xmlns="http://www.w3.org/2000/svg" xmlns:xlink="http://www.w3.org/1999/xlink" width="36" height="32" viewBox="0 0 36 32">
<path fill="#444444" d="M0 19.203q0 1.641 0.625 3.133t1.695 2.586 2.555 1.766 3.125 0.75q0.297 0 0.297-0.281v-2.234q0-0.281-0.297-0.281-2.125-0.109-3.633-1.711t-1.508-3.727 1.406-3.672 3.5-1.719l0.891-0.109q0.25 0 0.25-0.25l0.125-0.891q0.281-2.734 2.328-4.555t4.797-1.82q2.719 0 4.758 1.805t2.336 4.508l0.109 0.953q0 0.313 0.297 0.313h2.703q2.219 0 3.813 1.594t1.594 3.844q0 2.125-1.484 3.727t-3.609 1.711q-0.313 0-0.313 0.281v2.234q0 0.281 0.313 0.281 3.344-0.156 5.656-2.531t2.313-5.703q0-1.609-0.688-3.328 1.891-2.484 1.891-5.484 0-2.359-1.18-4.383t-3.195-3.203-4.375-1.18q-3.828 0-6.438 2.781-2.172-1.078-4.5-1.078-3.547 0-6.281 2.203t-3.5 5.641q-2.828 0.656-4.602 2.867t-1.773 5.164zM8.984 30.453q0 0.422 0.242 0.805t0.805 0.57q0.281 0.141 0.617 0.117t0.672-0.328 0.461-0.805l0.469-1.688q0.156-0.625-0.133-1.125t-0.883-0.609q-0.531-0.172-1.047 0.117t-0.688 0.836l-0.469 1.734q-0.047 0.219-0.047 0.375zM11.172 22.5q0.016 0.484 0.281 0.867t0.797 0.461q0.438 0.078 0.5 0.078 0.938 0 1.266-1.094l0.469-1.672q0.156-0.578-0.133-1.102t-0.883-0.695q-0.563-0.156-1.063 0.133t-0.672 0.867l-0.5 1.75q-0.063 0.313-0.063 0.406zM13.234 35.672q0 0.438 0.258 0.828t0.805 0.547q0.359 0.078 0.469 0.078 0.219 0 0.625-0.172 0.422-0.203 0.641-0.922l0.5-1.688q0.156-0.625-0.141-1.133t-0.875-0.617q-0.547-0.172-1.070 0.117t-0.695 0.852l-0.469 1.734q-0.047 0.219-0.047 0.375zM15.453 27.672q0 0.422 0.266 0.82t0.813 0.555q0.563 0.172 1.055-0.078t0.68-0.938l0.469-1.688q0.172-0.625-0.117-1.109t-0.883-0.594q-0.547-0.188-1.063 0.102t-0.688 0.852l-0.469 1.734q-0.063 0.219-0.063 0.344zM20.203 30.578q-0.031 0.391 0.227 0.773t0.773 0.555l0.422 0.047q0.281 0.016 0.625-0.125 0.531-0.203 0.703-0.906l0.469-1.75q0.172-0.578-0.117-1.070t-0.852-0.664q-0.625-0.156-1.117 0.141t-0.602 0.891l-0.484 1.672q-0.047 0.422-0.047 0.438zM22.453 22.578q0 0.438 0.273 0.828t0.805 0.5q0.047 0 0.133 0.016t0.156 0.023 0.133 0.008q1.078 0 1.344-1.031l0.469-1.719q0.156-0.625-0.141-1.125t-0.891-0.609q-0.578-0.172-1.070 0.117t-0.648 0.883l-0.5 1.703q-0.063 0.281-0.063 0.406zM23.016 6.078q1.672-1.609 4.078-1.609 2.438 0 4.156 1.742t1.719 4.18q0 1.594-0.797 2.953-2.406-2.406-5.813-2.406h-0.531q-0.609-2.734-2.813-4.859z"></path>
</svg>
