<?xml version="1.0" encoding="utf-8"?>
<!-- Generated by IcoMoon.io -->
<!DOCTYPE svg PUBLIC "-//W3C//DTD SVG 1.1//EN" "http://www.w3.org/Graphics/SVG/1.1/DTD/svg11.dtd">
<svg version="1.1" xmlns="http://www.w3.org/2000/svg" xmlns:xlink="http://www.w3.org/1999/xlink" width="36" height="32" viewBox="0 0 36 32">
<path fill="#444444" d="M0 19.156q0 2.234 1.094 4.133t2.984 3.008 4.125 1.109h18.016q2.234 0 4.133-1.109t3.008-3.008 1.109-4.133q0-1.594-0.703-3.328 1.891-2.313 1.891-5.5 0-2.375-1.156-4.383t-3.164-3.18-4.383-1.172q-3.734 0-6.453 2.906-1.906-1.078-4.484-1.078-3.516 0-6.211 2.172t-3.461 5.578q-2.797 0.625-4.57 2.859t-1.773 5.125zM2.844 19.156q0-2.078 1.391-3.594t3.5-1.766l1.141-0.047 0.109-1.203q0.344-2.703 2.344-4.523t4.688-1.82q2.734 0 4.766 1.828t2.297 4.516l0.172 1.25h2.969q2.203 0 3.797 1.586t1.594 3.773q0 2.25-1.586 3.859t-3.805 1.609h-18.016q-2.172 0-3.766-1.625t-1.594-3.844zM22.891 6.094q1.719-1.656 4.063-1.656 2.469 0 4.195 1.711t1.727 4.18q0 1.547-0.859 3.063-2.391-2.391-5.797-2.391h-0.516q-0.688-2.781-2.813-4.906z"></path>
</svg>
