<?xml version="1.0" encoding="utf-8"?>
<!-- Generated by IcoMoon.io -->
<!DOCTYPE svg PUBLIC "-//W3C//DTD SVG 1.1//EN" "http://www.w3.org/Graphics/SVG/1.1/DTD/svg11.dtd">
<svg version="1.1" xmlns="http://www.w3.org/2000/svg" xmlns:xlink="http://www.w3.org/1999/xlink" width="36" height="32" viewBox="0 0 36 32">
<path fill="#444444" d="M0 19.156q0 3.328 2.328 5.727t5.672 2.555q0.297 0 0.297-0.281v-2.234q0-0.281-0.297-0.281-2.141-0.125-3.648-1.719t-1.508-3.766q0-2.078 1.414-3.609t3.508-1.781l0.875-0.063q0.328 0 0.328-0.297l0.125-0.906q0.266-2.703 2.289-4.531t4.758-1.828q2.719 0 4.766 1.828t2.328 4.531l0.125 0.953q0 0.313 0.281 0.313h2.703q2.266 0 3.875 1.586t1.609 3.805q0 2.156-1.516 3.758t-3.656 1.727q-0.313 0-0.313 0.281v2.234q0 0.281 0.313 0.281 3.344-0.109 5.664-2.523t2.32-5.758q0-1.781-0.719-3.344 1.969-2.406 1.969-5.531 0-2.375-1.18-4.398t-3.195-3.195-4.375-1.172q-3.875 0-6.484 2.891-2.016-1.078-4.516-1.078-3.531 0-6.266 2.195t-3.516 5.602q-2.766 0.656-4.563 2.898t-1.797 5.133zM10.641 26.016q0 0.547 0.406 0.953 0.422 0.422 0.969 0.422 0.578 0 0.977-0.391t0.398-0.984-0.391-0.984-0.984-0.391-0.984 0.391-0.391 0.984zM10.641 32.063q0 0.594 0.406 0.969 0.406 0.406 0.969 0.406 0.594 0 0.984-0.391t0.391-0.984-0.398-1.008-0.977-0.414-0.977 0.414-0.398 1.008zM15.969 29.172q0 0.578 0.422 1.023t0.969 0.445q0.578 0 1-0.438t0.422-1.031q0-0.547-0.422-0.961t-1-0.414q-0.547 0-0.969 0.414t-0.422 0.961zM15.969 23.188q0 0.563 0.406 0.969t0.984 0.406q0.594 0 1.008-0.398t0.414-0.977-0.414-0.992-1.008-0.414q-0.563 0-0.977 0.414t-0.414 0.992zM15.969 35.297q0 0.578 0.414 1t0.977 0.422q0.578 0 1-0.414t0.422-1.008q0-0.547-0.422-0.961t-1-0.414q-0.547 0-0.969 0.414t-0.422 0.961zM21.359 26.016q0 0.516 0.406 0.953 0.422 0.422 1 0.422t0.977-0.391 0.398-0.984-0.391-0.984-0.984-0.391-1 0.391-0.406 0.984zM21.359 32.063q0 0.563 0.406 0.969t1 0.406 0.984-0.391 0.391-0.984-0.398-1.008-0.977-0.414-0.992 0.414-0.414 1.008zM23 6.031q1.688-1.688 4.141-1.688t4.164 1.734 1.711 4.203q0 1.469-0.844 3.063-2.406-2.406-5.828-2.406h-0.516q-0.734-2.906-2.828-4.906z"></path>
</svg>
