<?xml version="1.0" encoding="utf-8"?>
<!-- Generated by IcoMoon.io -->
<!DOCTYPE svg PUBLIC "-//W3C//DTD SVG 1.1//EN" "http://www.w3.org/Graphics/SVG/1.1/DTD/svg11.dtd">
<svg version="1.1" xmlns="http://www.w3.org/2000/svg" xmlns:xlink="http://www.w3.org/1999/xlink" width="27" height="32" viewBox="0 0 27 32">
<path fill="#444444" d="M0 23.688q0 2.422 1.773 4.195t4.195 1.773h11.422q2.422 0 4.148-1.75t1.727-4.219q0-1.203-0.344-2.047 2.078-1.328 3.289-3.539t1.211-4.727q0-2.031-0.789-3.883t-2.133-3.188-3.188-2.133-3.859-0.797q-2.734 0-5.039 1.344t-3.625 3.641-1.32 5.016v0.563q-2.516 1.438-3.313 4.156-1.891 0.594-3.023 2.109t-1.133 3.484zM3.297 23.688q0-1.047 0.672-1.797t1.703-0.844l1.047-0.141q0.313 0 0.313-0.375l0.172-0.938q0.172-1.438 1.211-2.406t2.461-0.969q1.453 0 2.523 0.969t1.242 2.406l0.141 1.078q0.156 0.375 0.422 0.375h2.188q1.078 0 1.867 0.781t0.789 1.859q0 1.125-0.789 1.922t-1.867 0.797h-11.422q-1.125 0-1.898-0.797t-0.773-1.922zM10.672 13.031q0.172-2.734 2.117-4.594t4.664-1.859q2.781 0 4.727 1.984t1.945 4.813q0 1.75-0.844 3.242t-2.297 2.414q-1.469-1.219-3.391-1.219-0.734-2.188-2.57-3.484t-4.148-1.297h-0.203z"></path>
</svg>
