<?xml version="1.0" encoding="utf-8"?>
<!-- Generated by IcoMoon.io -->
<!DOCTYPE svg PUBLIC "-//W3C//DTD SVG 1.1//EN" "http://www.w3.org/Graphics/SVG/1.1/DTD/svg11.dtd">
<svg version="1.1" xmlns="http://www.w3.org/2000/svg" xmlns:xlink="http://www.w3.org/1999/xlink" width="36" height="32" viewBox="0 0 36 32">
<path fill="#444444" d="M0 19.188q0 3.328 2.32 5.719t5.664 2.547q0.281 0 0.281-0.281v-2.281q0-0.297-0.281-0.297-2.172-0.172-3.656-1.727t-1.484-3.68q0-2.063 1.406-3.594t3.5-1.781l0.875-0.125q0.328 0 0.328-0.281l0.125-0.859q0.266-2.703 2.281-4.523t4.75-1.82q2.719 0 4.75 1.813t2.313 4.531l0.125 0.969q0 0.297 0.297 0.297h2.688q2.25 0 3.859 1.578t1.609 3.797q0 2.125-1.484 3.68t-3.656 1.727q-0.328 0-0.328 0.297v2.281q0 0.281 0.328 0.281 3.328-0.109 5.633-2.516t2.305-5.75q0-2.172-1.078-4.047 2.031-1.828 2.641-4.359v-0.219l0.313-1.313-1.266-0.344q-2.031-0.609-3.156-2.258t-1.125-3.383q0-0.656 0.141-1.297l0.328-1.328-1.422-0.422-0.219-0.063q-1.172-0.234-2.078-0.234-0.938 0-1.906 0.219t-2.008 0.688-2 1.336-1.664 2.055q-1.859-0.813-3.938-0.813-3.531 0-6.242 2.188t-3.445 5.594q-2.813 0.641-4.617 2.875t-1.805 5.125zM9 30.469q0 0.375 0.25 0.742t0.75 0.555q0.547 0.188 1.063-0.086t0.688-0.852l0.469-1.766q0.172-0.516-0.117-1.031t-0.852-0.688q-0.578-0.156-1.086 0.141t-0.695 0.891l-0.391 1.656q-0.078 0.391-0.078 0.438zM11.156 22.578q0 0.281 0.172 0.594 0.188 0.438 0.891 0.641 0.609 0.156 1.094-0.102t0.672-0.867l0.469-1.719q0.172-0.578-0.117-1.070t-0.852-0.648q-0.609-0.156-1.109 0.117t-0.672 0.867l-0.453 1.688q-0.094 0.344-0.094 0.5zM13.25 35.672q0 0.422 0.258 0.82t0.758 0.555q0.266 0.078 0.375 0.078 0.219 0 0.625-0.172 0.5-0.203 0.719-0.922l0.5-1.75q0.172-0.531-0.117-1.047t-0.852-0.688q-0.609-0.156-1.117 0.133t-0.68 0.883l-0.422 1.688q-0.047 0.203-0.047 0.422zM15.469 27.719q0 0.375 0.25 0.742t0.766 0.555q0.563 0.172 1.063-0.094t0.672-0.875l0.453-1.734q0.172-0.531-0.102-1.039t-0.82-0.68q-0.609-0.156-1.133 0.141t-0.695 0.891l-0.406 1.672q0 0.047-0.016 0.133t-0.023 0.156-0.008 0.133zM20.141 30.656q0 0.938 1.063 1.25 0.203 0.047 0.406 0.047 0.375 0 0.609-0.109 0.531-0.203 0.734-0.953l0.453-1.703q0.156-0.625-0.133-1.117t-0.883-0.617q-0.578-0.172-1.070 0.117t-0.664 0.852l-0.453 1.734q0 0.063-0.031 0.242t-0.031 0.258zM22.453 22.625q0 0.391 0.258 0.766t0.773 0.531q0.359 0.078 0.391 0.078 0.219 0 0.625-0.172 0.516-0.203 0.734-0.922l0.469-1.734q0.156-0.547-0.141-1.047t-0.891-0.672q-0.547-0.172-1.047 0.117t-0.672 0.867l-0.438 1.766q-0.063 0.281-0.063 0.422zM22.516 5.688q0.797-1.406 2.211-2.188t3.023-0.781h0.344q-0.016 0.219-0.016 0.625 0 2.375 1.305 4.516t3.617 3.266q-0.547 1.078-1.297 1.828-2.328-2.016-5.422-2.016h-0.531q-0.625-2.953-3.234-5.25z"></path>
</svg>
