<?xml version="1.0" encoding="utf-8"?>
<!-- Generated by IcoMoon.io -->
<!DOCTYPE svg PUBLIC "-//W3C//DTD SVG 1.1//EN" "http://www.w3.org/Graphics/SVG/1.1/DTD/svg11.dtd">
<svg version="1.1" xmlns="http://www.w3.org/2000/svg" xmlns:xlink="http://www.w3.org/1999/xlink" width="36" height="32" viewBox="0 0 36 32">
<path fill="#444444" d="M0 19.156q0 3.328 2.32 5.719t5.664 2.563q0.297 0 0.297-0.297v-2.219q0-0.297-0.297-0.297-2.141-0.109-3.641-1.703t-1.5-3.766q0-2.078 1.406-3.609t3.5-1.781l0.875-0.063q0.328 0 0.328-0.297l0.125-0.906q0.266-2.703 2.289-4.523t4.758-1.82q2.719 0 4.766 1.828t2.328 4.516l0.109 0.953q0 0.313 0.297 0.313h2.703q2.219 0 3.836 1.602t1.617 3.789q0 2.172-1.5 3.766t-3.641 1.703q-0.313 0-0.313 0.297v2.219q0 0.297 0.313 0.297 2.188-0.078 4.023-1.203t2.891-3.008 1.055-4.070q0-2.172-1.141-4.078 1.953-1.859 2.563-4.297l0.234-1.219q0.031-0.016 0.031-0.109 0-0.188-0.266-0.266l-0.953-0.281q-1.422-0.406-2.438-1.367t-1.445-2.023-0.43-2.141q0-0.719 0.188-1.422l0.219-1.016q0.063-0.25-0.219-0.391l-1.328-0.406q-1.125-0.25-2.109-0.25-0.906 0-1.859 0.219t-1.977 0.672-1.992 1.313-1.672 2q-2.031-0.766-3.891-0.766-3.531 0-6.266 2.195t-3.516 5.602q-2.766 0.656-4.555 2.898t-1.789 5.133zM9.891 20.625q0 0.953 0.695 1.625t1.695 0.672 1.672-0.664 0.672-1.633q0-0.641-0.578-1.703t-1.078-1.641q-0.266-0.297-0.688-0.719l-0.578 0.688q-0.672 0.734-1.242 1.727t-0.57 1.648zM14.875 27.266q0 1.641 1.141 2.766t2.75 1.125q1.641 0 2.773-1.141t1.133-2.75q0-1.375-1.328-3.328-1.109-1.453-2.141-2.484-0.203-0.141-0.438-0.375l-0.391 0.375q-0.984 0.906-2.125 2.469-0.594 0.828-0.984 1.734t-0.391 1.609zM17.328 16.156q0 0.641 0.477 1.094t1.164 0.453q0.641 0 1.094-0.453t0.453-1.094q0-1.063-1.547-2.703l-0.422 0.453q-0.453 0.5-0.836 1.164t-0.383 1.086zM22.422 5.625q0.875-1.422 2.234-2.148t2.859-0.727q0.297 0 0.453 0.031v0.5q0 2.406 1.313 4.563t3.641 3.281q-0.391 0.938-1.25 1.719-2.313-1.906-5.344-1.906h-0.547q-0.766-3.281-3.359-5.313z"></path>
</svg>
