<?xml version="1.0" encoding="utf-8"?>
<!-- Generated by IcoMoon.io -->
<!DOCTYPE svg PUBLIC "-//W3C//DTD SVG 1.1//EN" "http://www.w3.org/Graphics/SVG/1.1/DTD/svg11.dtd">
<svg version="1.1" xmlns="http://www.w3.org/2000/svg" xmlns:xlink="http://www.w3.org/1999/xlink" width="36" height="32" viewBox="0 0 36 32">
<path fill="#444444" d="M0 19.188q0 3.328 2.32 5.719t5.664 2.547q0.281 0 0.281-0.281v-2.281q0-0.297-0.281-0.297-2.172-0.172-3.656-1.727t-1.484-3.68q0-2.094 1.414-3.648t3.492-1.727l0.875-0.125q0.328 0 0.328-0.281l0.125-0.859q0.266-2.703 2.281-4.523t4.75-1.82q2.719 0 4.75 1.813t2.313 4.531l0.125 0.969q0 0.297 0.297 0.297h2.688q2.266 0 3.867 1.578t1.602 3.797q0 2.125-1.484 3.68t-3.656 1.727q-0.328 0-0.328 0.297v2.281q0 0.281 0.328 0.281 3.328-0.109 5.633-2.516t2.305-5.75q0-2.234-1.141-4.125 2-1.813 2.578-4.297l0.25-1.203q0.016-0.016 0.016-0.109 0-0.188-0.266-0.266l-0.969-0.281q-1.422-0.406-2.422-1.375t-1.422-2.055-0.422-2.195q0-0.609 0.156-1.313l0.234-1.031q0.078-0.234-0.234-0.375l-1.313-0.406q-1.094-0.266-2.078-0.266-0.906 0-1.859 0.219t-1.984 0.68-2 1.328-1.672 2.039q-1.766-0.75-3.891-0.75-3.531 0-6.258 2.18t-3.508 5.586q-2.75 0.656-4.547 2.898t-1.797 5.117zM12.781 26.938q-0.125 0.359 0.234 0.359h3.594l-2.188 6.906h0.5l6.953-9.313q0.094-0.109 0.047-0.227t-0.219-0.117h-3.672l3.844-7.016q0.172-0.359-0.234-0.359h-4.906q-0.203 0-0.359 0.234zM22.453 5.688q0.828-1.422 2.211-2.172t2.867-0.75q0.313 0 0.453 0.031v0.516q0 2.406 1.297 4.547t3.609 3.266q-0.391 0.922-1.25 1.781-2.297-1.969-5.359-1.969h-0.531q-0.703-3.125-3.297-5.25z"></path>
</svg>
