<?xml version="1.0" encoding="utf-8"?>
<!-- Generated by IcoMoon.io -->
<!DOCTYPE svg PUBLIC "-//W3C//DTD SVG 1.1//EN" "http://www.w3.org/Graphics/SVG/1.1/DTD/svg11.dtd">
<svg version="1.1" xmlns="http://www.w3.org/2000/svg" xmlns:xlink="http://www.w3.org/1999/xlink" width="36" height="32" viewBox="0 0 36 32">
<path fill="#444444" d="M0 19.313v-0.031q0-2.891 1.805-5.156t4.57-2.906q0.766-3.422 3.508-5.617t6.289-2.195q2.484 0 4.531 1.094 1.25-1.328 2.938-2.086t3.484-0.758q2.375 0 4.398 1.18t3.203 3.203 1.18 4.398q0 3.078-1.906 5.484 0.719 1.531 0.719 3.359 0 2.203-1.063 4.086t-2.898 3.016-4.039 1.195q-0.328 0-0.328-0.281v-2.234q0-0.297 0.328-0.297 2.141-0.109 3.633-1.711t1.492-3.773q0-2.219-1.609-3.813t-3.844-1.594h-2.688q-0.297 0-0.297-0.297l-0.125-0.984q-0.281-2.703-2.336-4.539t-4.773-1.836q-2.75 0-4.773 1.836t-2.289 4.539l-0.125 0.984q-0.078 0.234-0.375 0.234l-0.844 0.063q-2.109 0.25-3.516 1.773t-1.406 3.633v0.063q0.031 0.031 0.047 0.031 0.016 2.125 1.5 3.703 0.703 0.734 1.531 1.109v0.031q0.938 0.484 2.063 0.563 0.281 0 0.281 0.281v2.234q0 0.281-0.281 0.281-1.219-0.063-2.391-0.484-1.891-0.625-3.273-2.055t-1.961-3.336q-0.359-1.172-0.359-2.391zM9.172 31.266q0-0.078 0.031-0.219t0.031-0.203l0.156-0.969q0.172-0.594 0.688-0.891t1.125-0.141q0.563 0.172 0.844 0.688t0.109 1.047l-0.234 1q-0.25 1.094-1.266 1.094-0.078 0-0.242-0.023t-0.211-0.023q-0.516-0.156-0.773-0.547t-0.258-0.813zM10.406 26.344q0-0.594 0.391-0.984t0.984-0.391 0.984 0.391 0.391 0.984q0 0.578-0.391 0.969t-0.984 0.391q-0.578 0-0.953-0.406-0.422-0.391-0.422-0.953zM13.141 36.313q0-0.094 0.063-0.375l0.219-0.984q0.172-0.563 0.688-0.844t1.047-0.109q0.578 0.109 0.875 0.609t0.141 1.141l-0.219 0.969q-0.266 1.031-1.328 1.031-0.125 0-0.406-0.063-0.547-0.156-0.813-0.555t-0.266-0.82zM14.453 31.469q0-0.578 0.391-0.961t0.984-0.383 0.984 0.383 0.391 0.961q0 0.594-0.391 0.984t-0.984 0.391q-0.563 0-0.969-0.406t-0.406-0.969zM15.484 27.688q0-0.219 0.047-0.438l0.375-1.5q0.172-0.594 0.688-0.891t1.063-0.141q0.594 0.172 0.883 0.672t0.117 1.047l-0.438 1.5q-0.203 0.688-0.688 0.938t-1.063 0.094q-0.5-0.094-0.758-0.5t-0.227-0.781zM20.094 31.266q0-0.078 0.023-0.234t0.023-0.188l0.156-0.969q0.172-0.594 0.688-0.891t1.125-0.141q0.563 0.172 0.852 0.688t0.117 1.047l-0.234 1q-0.25 1.094-1.266 1.094-0.078 0-0.25-0.023t-0.219-0.023q-0.5-0.156-0.758-0.547t-0.258-0.813zM21.328 26.344q0-0.594 0.391-0.984t0.984-0.391 0.984 0.391 0.391 0.984q0 0.578-0.391 0.969t-0.984 0.391-0.969-0.406q-0.406-0.375-0.406-0.953zM23.047 6.172q2.094 1.906 2.828 4.875h0.516q3.453 0 5.859 2.406 0.781-1.375 0.781-3.016 0-2.453-1.727-4.164t-4.18-1.711q-2.406 0-4.078 1.609z"></path>
</svg>
