<?xml version="1.0" encoding="utf-8"?>
<!-- Generated by IcoMoon.io -->
<!DOCTYPE svg PUBLIC "-//W3C//DTD SVG 1.1//EN" "http://www.w3.org/Graphics/SVG/1.1/DTD/svg11.dtd">
<svg version="1.1" xmlns="http://www.w3.org/2000/svg" xmlns:xlink="http://www.w3.org/1999/xlink" width="24" height="32" viewBox="0 0 24 32">
<path fill="#444444" d="M0 15.141q0-2.391 0.938-4.578t2.523-3.773 3.781-2.531 4.586-0.945h1.906q0.391 0.109 0.391 0.469l0.078 1.469q0.094 3.172 2.281 5.406t5.313 2.359l1.375 0.109q0.406 0 0.406 0.391v1.625q0.016 3.203-1.555 5.93t-4.281 4.313-5.914 1.586q-2.438 0-4.633-0.938t-3.766-2.523-2.5-3.773-0.93-4.594zM3.047 15.141q0 1.906 0.758 3.594t1.984 2.828 2.813 1.805 3.227 0.664q1.453 0 2.93-0.57t2.742-1.594 2.18-2.617 1.18-3.484q-4.078-0.844-6.539-3.492t-2.836-6.227q-2.359 0.125-4.32 1.453t-3.039 3.367-1.078 4.273z"></path>
</svg>
