<?xml version="1.0" encoding="utf-8"?>
<!-- Generated by IcoMoon.io -->
<!DOCTYPE svg PUBLIC "-//W3C//DTD SVG 1.1//EN" "http://www.w3.org/Graphics/SVG/1.1/DTD/svg11.dtd">
<svg version="1.1" xmlns="http://www.w3.org/2000/svg" xmlns:xlink="http://www.w3.org/1999/xlink" width="36" height="32" viewBox="0 0 36 32">
<path fill="#444444" d="M0 19.547v-0.609q0.109-2.797 1.891-4.953t4.469-2.781q0.781-3.406 3.516-5.594t6.266-2.188q1.844 0 3.969 0.766 0.703-1.156 1.648-2.008t1.961-1.313 1.977-0.672 1.883-0.195q0.969 0 2.063 0.219l1.328 0.422q0.297 0.141 0.234 0.391l-0.188 1.016q-0.172 0.734-0.172 1.406 0 0.766 0.242 1.578t0.734 1.586 1.336 1.414 1.938 0.969l1.031 0.281q0.25 0.063 0.25 0.266 0 0.094-0.016 0.109l-0.313 1.141q-0.609 2.531-2.516 4.375 1.094 1.906 1.094 4.078 0 3.344-2.32 5.758t-5.648 2.523q-0.313 0-0.313-0.313v-2.266q0-0.297 0.313-0.297 2.172-0.156 3.672-1.719t1.5-3.688q0-2.234-1.609-3.82t-3.875-1.586h-2.703q-0.281 0-0.281-0.297l-0.125-0.969q-0.281-2.688-2.328-4.523t-4.766-1.836q-2.734 0-4.758 1.828t-2.289 4.531l-0.125 0.859q0 0.281-0.328 0.281l-0.875 0.125q-2.094 0.25-3.508 1.789t-1.414 3.617v0.031l0.016 0.016h0.031q0.016 1.313 0.609 2.469t1.625 1.906h0.016l0.031 0.031q0.547 0.391 1.031 0.578 0.844 0.375 1.781 0.406 0.281 0 0.281 0.281v2.234q0 0.297-0.281 0.297-2.328-0.109-4.25-1.375h-0.016q-1.656-1.078-2.648-2.813t-1.070-3.766zM9.172 31.172q0-0.078 0.031-0.211t0.031-0.195l0.156-0.984q0.172-0.594 0.68-0.883t1.133-0.133q0.563 0.172 0.844 0.688t0.109 1.047l-0.234 1q-0.25 1.078-1.266 1.078-0.078 0-0.242-0.023t-0.211-0.023q-0.516-0.156-0.773-0.547t-0.258-0.813zM10.406 26.266q0-0.594 0.391-0.984t0.984-0.391 0.984 0.391 0.391 0.984q0 0.578-0.391 0.969t-0.984 0.391q-0.563 0-0.953-0.422-0.422-0.391-0.422-0.938zM13.141 36.266q0-0.094 0.063-0.375l0.219-0.984q0.172-0.563 0.688-0.852t1.047-0.117q0.578 0.109 0.875 0.609t0.141 1.141l-0.219 0.984q-0.25 1.016-1.328 1.016-0.188 0-0.406-0.047-0.547-0.156-0.813-0.555t-0.266-0.82zM14.453 31.422q0-0.578 0.391-0.969t0.984-0.391 0.984 0.391 0.391 0.969q0 0.594-0.391 0.984t-0.984 0.391q-0.563 0-0.969-0.406t-0.406-0.969zM15.484 27.641q0-0.234 0.047-0.453l0.375-1.5q0.172-0.578 0.688-0.883t1.063-0.133q0.594 0.172 0.883 0.672t0.117 1.047l-0.438 1.5q-0.203 0.688-0.688 0.938t-1.063 0.094q-0.5-0.094-0.758-0.5t-0.227-0.781zM20.094 31.203q0-0.078 0.023-0.219t0.023-0.188l0.156-0.984q0.172-0.594 0.68-0.883t1.133-0.133q0.563 0.172 0.852 0.688t0.117 1.047l-0.234 1q-0.25 1.094-1.266 1.094-0.078 0-0.234-0.031t-0.234-0.031q-0.5-0.156-0.758-0.547t-0.258-0.813zM21.328 26.297q0-0.594 0.391-0.984t0.984-0.391 0.984 0.391 0.391 0.984q0 0.578-0.391 0.969t-0.984 0.391-0.969-0.406q-0.406-0.375-0.406-0.953zM22.5 5.703q2.594 2.125 3.297 5.266h0.547q3.063 0 5.359 1.969 0.844-0.766 1.266-1.734-1.547-0.75-2.68-2.016t-1.695-2.766-0.563-3.094v-0.516h-0.359q-1.547 0-2.945 0.75t-2.227 2.141z"></path>
</svg>
