<?xml version="1.0" encoding="utf-8"?>
<!-- Generated by IcoMoon.io -->
<!DOCTYPE svg PUBLIC "-//W3C//DTD SVG 1.1//EN" "http://www.w3.org/Graphics/SVG/1.1/DTD/svg11.dtd">
<svg version="1.1" xmlns="http://www.w3.org/2000/svg" xmlns:xlink="http://www.w3.org/1999/xlink" width="36" height="32" viewBox="0 0 36 32">
<path fill="#444444" d="M0 19.156q0 2.766 1.656 4.945t4.297 2.977l-1.078 2.828q-0.109 0.344 0.234 0.344h3.531l-2.156 6.969h0.469l7.047-9.375q0.094-0.109 0.031-0.227t-0.234-0.117h-3.625l4.125-7.734q0.172-0.359-0.219-0.359h-4.938q-0.219 0-0.375 0.25l-1.781 4.797q-1.781-0.453-2.961-1.945t-1.18-3.352q0-2.078 1.414-3.609t3.508-1.781l0.875-0.125q0.328 0 0.328-0.297l0.125-0.844q0.266-2.703 2.289-4.531t4.758-1.828q2.719 0 4.766 1.836t2.328 4.523l0.125 0.953q0 0.313 0.281 0.313h2.703q2.266 0 3.875 1.586t1.609 3.805q0 2.125-1.5 3.688t-3.672 1.719q-0.313 0-0.313 0.313v2.266q0 0.297 0.313 0.297 3.328-0.109 5.648-2.523t2.32-5.758q0-2.172-1.094-4.078 1.906-1.844 2.516-4.375l0.313-1.141q0.016-0.016 0.016-0.109 0-0.203-0.25-0.266l-1.031-0.281q-1.438-0.422-2.438-1.398t-1.414-2.031-0.398-2.102q0-0.688 0.172-1.422l0.188-1.016q0.063-0.25-0.234-0.391l-1.328-0.406q-1.172-0.234-2.063-0.234-0.922-0.016-1.883 0.195t-1.977 0.672-1.961 1.313-1.648 2.008q-2.125-0.766-3.969-0.766-3.531 0-6.266 2.195t-3.516 5.602q-2.766 0.656-4.563 2.898t-1.797 5.133zM13.141 36.172q0 0.422 0.266 0.82t0.813 0.555q0.203 0.047 0.406 0.047 1.078 0 1.328-1.016l0.219-0.984q0.156-0.641-0.141-1.141t-0.875-0.609q-0.531-0.172-1.047 0.117t-0.688 0.852l-0.219 0.984q-0.063 0.281-0.063 0.375zM14.453 31.328q0 0.563 0.406 0.969t0.969 0.406q0.594 0 0.984-0.391t0.391-0.984q0-0.578-0.391-0.969t-0.984-0.391-0.984 0.391-0.391 0.969zM15.484 27.547q-0.031 0.375 0.227 0.781t0.758 0.5q0.578 0.156 1.063-0.094t0.688-0.938l0.438-1.5q0.172-0.547-0.117-1.047t-0.883-0.672q-0.547-0.172-1.063 0.133t-0.688 0.883l-0.375 1.5q-0.047 0.219-0.047 0.453zM20.094 31.125q0 0.422 0.25 0.805t0.766 0.539q0.078 0 0.234 0.031t0.234 0.031q1.016 0 1.266-1.094l0.234-1q0.172-0.531-0.117-1.047t-0.852-0.688q-0.625-0.156-1.133 0.133t-0.68 0.883l-0.156 0.984q0 0.031-0.023 0.188t-0.023 0.234zM21.328 26.203q0 0.578 0.406 0.953 0.375 0.406 0.969 0.406t0.984-0.391 0.391-0.969q0-0.594-0.391-0.984t-0.984-0.391-0.984 0.391-0.391 0.984zM22.5 5.625q0.828-1.391 2.234-2.148t2.938-0.758h0.359v0.531q0 1.594 0.563 3.094t1.695 2.766 2.68 2.016q-0.422 0.938-1.266 1.719-2.281-1.953-5.359-1.953h-0.547q-0.703-3.141-3.297-5.266z"></path>
</svg>
