<?xml version="1.0" encoding="utf-8"?>
<!-- Generated by IcoMoon.io -->
<!DOCTYPE svg PUBLIC "-//W3C//DTD SVG 1.1//EN" "http://www.w3.org/Graphics/SVG/1.1/DTD/svg11.dtd">
<svg version="1.1" xmlns="http://www.w3.org/2000/svg" xmlns:xlink="http://www.w3.org/1999/xlink" width="40" height="32" viewBox="0 0 40 32">
<path fill="#444444" d="M0 25.969q0 0.594 0.453 1 0.453 0.453 1.016 0.453h9.797q0.656 0 1.148 0.469t0.492 1.141q0 0.641-0.5 1.133t-1.141 0.492q-0.625 0-1.125-0.5-0.469-0.438-1.031-0.438-0.578 0-0.984 0.422t-0.406 1.016 0.406 1q1.297 1.297 3.141 1.297 1.859 0 3.156-1.289t1.297-3.133q0-1.859-1.305-3.172t-3.148-1.313h-9.797q-0.594 0-1.031 0.422t-0.438 1zM0 20.953q0 0.563 0.453 0.969 0.375 0.406 1.016 0.406h18.313q1.844 0 3.148-1.297t1.305-3.141-1.305-3.133-3.148-1.289q-1.906 0-3.156 1.25-0.375 0.422-0.375 1.047 0 0.594 0.375 0.977t1 0.383 1.016-0.375q0.469-0.469 1.141-0.469 0.641 0 1.125 0.469t0.484 1.141-0.484 1.156-1.125 0.484h-18.313q-0.594 0-1.031 0.422t-0.438 1zM4.422 17.047q0 0.203 0.281 0.203h2.391q0.203 0 0.359-0.234 0.563-1.359 1.742-2.25t2.648-1l0.875-0.109q0.313 0 0.313-0.313l0.109-0.828q0.266-2.703 2.297-4.523t4.766-1.82 4.75 1.805 2.313 4.539l0.109 0.953q0 0.297 0.297 0.297h2.719q2.25 0 3.844 1.578t1.594 3.797q0 2.234-1.594 3.82t-3.844 1.586h-11.516q-0.281 0-0.281 0.297v2.281q0 0.297 0.281 0.297h11.516q2.234 0 4.133-1.109t3-3.016 1.102-4.156q0-1.844-0.703-3.375 1.906-2.5 1.906-5.547 0-1.781-0.695-3.398t-1.867-2.781-2.789-1.852-3.383-0.688q-3.859 0-6.469 2.891-1.953-1.016-4.422-1.016-3.531 0-6.242 2.18t-3.445 5.586q-2.125 0.5-3.766 2.047t-2.281 3.641v0.063q-0.047 0.125-0.047 0.156zM26.969 6q1.797-1.703 4.125-1.703 2.438 0 4.18 1.75t1.742 4.172q0 1.516-0.844 3.078-2.391-2.391-5.781-2.391h-0.547q-0.578-2.672-2.875-4.906z"></path>
</svg>
