<?xml version="1.0" encoding="utf-8"?>
<!-- Generated by IcoMoon.io -->
<!DOCTYPE svg PUBLIC "-//W3C//DTD SVG 1.1//EN" "http://www.w3.org/Graphics/SVG/1.1/DTD/svg11.dtd">
<svg version="1.1" xmlns="http://www.w3.org/2000/svg" xmlns:xlink="http://www.w3.org/1999/xlink" width="36" height="32" viewBox="0 0 36 32">
<path fill="#444444" d="M0 19.188q0 3.328 2.32 5.719t5.664 2.547q0.297 0 0.297-0.281v-2.234q0-0.281-0.297-0.281-2.141-0.109-3.641-1.703t-1.5-3.766q0-2.078 1.406-3.609t3.5-1.781l0.875-0.047q0.328 0 0.328-0.297l0.125-0.906q0.266-2.703 2.289-4.531t4.758-1.828q2.703 0 4.75 1.828t2.328 4.531l0.125 0.969q0 0.281 0.281 0.281h2.688q2.219 0 3.844 1.602t1.625 3.789q0 2.172-1.5 3.766t-3.641 1.703q-0.328 0-0.328 0.281v2.234q0 0.281 0.328 0.281 3.328-0.109 5.641-2.516t2.313-5.75q0-2.141-1.078-4.016 1.969-1.859 2.578-4.359l0.219-1.141q0.047-0.031 0.047-0.109 0-0.188-0.266-0.266l-0.938-0.281q-1.422-0.422-2.43-1.414t-1.43-2.078-0.422-2.195q-0.016-0.609 0.125-1.313l0.234-0.969q0.078-0.219-0.234-0.359l-1.328-0.422q-1.047-0.313-2.188-0.313-0.875 0-1.805 0.211t-1.945 0.672-1.977 1.328-1.664 2.039q-1.875-0.813-3.953-0.813-3.531 0-6.266 2.188t-3.5 5.594q-2.766 0.641-4.563 2.883t-1.797 5.133zM9.125 30.906q0.219 0.531 0.766 0.75 0.484 0.25 1.031 0.039t0.75-0.742q0.25-0.547 0.039-1.078t-0.742-0.734q-0.5-0.25-1.031-0.031t-0.781 0.766q-0.25 0.391-0.031 1.031zM10.172 26.188q0 0.375 0.266 0.75t0.766 0.531q0.641 0.25 1.117-0.008t0.664-0.945l1.469-5.344q0.172-0.625-0.133-1.117t-0.898-0.617q-0.547-0.172-1.047 0.109t-0.672 0.844l-1.469 5.359q0 0.047-0.031 0.203t-0.031 0.234zM13.281 35.516q0 0.313 0.094 0.484 0.219 0.547 0.75 0.75 0.234 0.125 0.547 0.125 0.156 0 0.5-0.094 0.563-0.203 0.805-0.75t-0.008-1.094-0.742-0.766-1.023 0q-0.484 0.203-0.703 0.594t-0.219 0.75zM14.516 31.094q0 0.953 1.063 1.297 0.234 0.078 0.391 0.078 0.281 0 0.578-0.141 0.578-0.203 0.781-0.953l2.75-10.203q0.156-0.594-0.117-1.078t-0.836-0.656q-0.578-0.172-1.086 0.109t-0.664 0.844l-2.797 10.281q-0.063 0.281-0.063 0.422zM20.25 30.406q0 0.313 0.109 0.516 0.203 0.5 0.734 0.734 0.297 0.125 0.578 0.125 0.156 0 0.5-0.094 0.547-0.219 0.75-0.734 0.203-0.547 0.008-1.055t-0.695-0.758q-0.547-0.25-1.086-0.039t-0.789 0.773q-0.109 0.203-0.109 0.531zM21.453 26.141q0 0.391 0.258 0.758t0.758 0.523q0.422 0.047 0.453 0.047 1.016 0 1.281-1.016l1.453-5.281q0.156-0.594-0.117-1.078t-0.836-0.656q-0.578-0.172-1.070 0.109t-0.664 0.844l-1.469 5.297q-0.047 0.203-0.047 0.453zM22.531 5.719q0.781-1.438 2.164-2.188t2.93-0.734q0.281 0 0.422 0.031v0.516q0 2.438 1.305 4.586t3.617 3.242q-0.484 1.094-1.25 1.781-2.203-1.953-5.422-1.953h-0.531q-0.641-3.125-3.234-5.281z"></path>
</svg>
