<?xml version="1.0" encoding="utf-8"?>
<!-- Generated by IcoMoon.io -->
<!DOCTYPE svg PUBLIC "-//W3C//DTD SVG 1.1//EN" "http://www.w3.org/Graphics/SVG/1.1/DTD/svg11.dtd">
<svg version="1.1" xmlns="http://www.w3.org/2000/svg" xmlns:xlink="http://www.w3.org/1999/xlink" width="36" height="32" viewBox="0 0 36 32">
<path fill="#444444" d="M0 19.141q0 2.797 1.664 5t4.305 2.938l-1.094 2.828q-0.125 0.359 0.234 0.359h3.547l-2.375 7.016h0.484l7.266-9.438q0.094-0.109 0.031-0.227t-0.234-0.117h-3.656l4.156-7.75q0.188-0.359-0.234-0.359h-4.938q-0.234 0-0.391 0.25l-1.781 4.797q-1.797-0.453-2.969-1.93t-1.172-3.367q0-2.109 1.406-3.641t3.516-1.781l0.844-0.047q0.297 0 0.375-0.234l0.125-0.984q0.266-2.703 2.289-4.539t4.773-1.836q2.719 0 4.773 1.836t2.336 4.539l0.125 0.984q0 0.281 0.297 0.281h2.688q2.234 0 3.844 1.602t1.609 3.82q0 2.172-1.492 3.773t-3.633 1.711q-0.328 0-0.328 0.297v2.234q0 0.281 0.328 0.281 2.203-0.063 4.039-1.195t2.898-3.016 1.063-4.086q0-1.828-0.719-3.359 1.906-2.406 1.906-5.484 0-2.375-1.18-4.398t-3.203-3.203-4.398-1.18q-1.797 0-3.492 0.75t-2.93 2.078q-2.016-1.078-4.531-1.078-3.547 0-6.289 2.195t-3.508 5.617q-2.766 0.641-4.57 2.906t-1.805 5.156zM13.141 36.172q0 0.422 0.266 0.82t0.813 0.555q0.203 0.047 0.406 0.047 1.078 0 1.328-1.016l0.219-0.984q0.156-0.641-0.141-1.141t-0.875-0.609q-0.531-0.172-1.047 0.117t-0.688 0.852l-0.219 0.984q-0.063 0.281-0.063 0.375zM14.453 31.328q0 0.563 0.406 0.969t0.969 0.406q0.594 0 0.984-0.391t0.391-0.984q0-0.578-0.391-0.969t-0.984-0.391-0.984 0.391-0.391 0.969zM15.484 27.547q-0.031 0.375 0.227 0.781t0.758 0.5q0.578 0.156 1.063-0.094t0.688-0.938l0.438-1.5q0.172-0.547-0.117-1.047t-0.883-0.672q-0.547-0.172-1.063 0.133t-0.688 0.883l-0.375 1.5q-0.047 0.219-0.047 0.453zM20.094 31.125q0 0.422 0.25 0.805t0.766 0.539q0.078 0 0.234 0.031t0.234 0.031q1.016 0 1.266-1.094l0.234-1q0.172-0.531-0.117-1.047t-0.852-0.688q-0.625-0.156-1.133 0.133t-0.68 0.883l-0.156 0.984q0 0.031-0.023 0.188t-0.023 0.234zM21.328 26.203q0 0.578 0.406 0.953 0.375 0.406 0.969 0.406t0.984-0.391 0.391-0.969q0-0.594-0.391-0.984t-0.984-0.391-0.984 0.391-0.391 0.984zM23.047 6.031q1.672-1.609 4.078-1.609 2.453 0 4.18 1.711t1.727 4.164q0 1.641-0.781 3.016-2.406-2.406-5.859-2.406h-0.516q-0.734-2.969-2.828-4.875z"></path>
</svg>
