<?xml version="1.0" encoding="utf-8"?>
<!-- Generated by IcoMoon.io -->
<!DOCTYPE svg PUBLIC "-//W3C//DTD SVG 1.1//EN" "http://www.w3.org/Graphics/SVG/1.1/DTD/svg11.dtd">
<svg version="1.1" xmlns="http://www.w3.org/2000/svg" xmlns:xlink="http://www.w3.org/1999/xlink" width="36" height="32" viewBox="0 0 36 32">
<path fill="#444444" d="M0 19.219q0 1.641 0.625 3.133t1.695 2.578 2.547 1.758 3.117 0.75q0.281 0 0.281-0.281v-2.234q0-0.281-0.281-0.281-2.172-0.156-3.656-1.719t-1.484-3.703q0-2.094 1.414-3.648t3.492-1.727l0.875-0.094q0.328 0 0.328-0.313l0.094-0.844q0.266-2.719 2.289-4.523t4.773-1.805q2.734 0 4.758 1.789t2.305 4.477l0.109 0.969q0 0.297 0.313 0.297h2.672q2.25 0 3.859 1.602t1.609 3.82q0 2.141-1.484 3.703t-3.656 1.719q-0.328 0-0.328 0.281v2.234q0 0.281 0.328 0.281 3.344-0.156 5.648-2.523t2.305-5.695q0-1.797-0.703-3.313 1.953-2.359 1.953-5.594 0-2.344-1.172-4.359t-3.188-3.195-4.359-1.18q-3.891 0-6.469 2.891-2.203-1.078-4.5-1.078-3.531 0-6.258 2.195t-3.508 5.633q-2.75 0.641-4.547 2.883t-1.797 5.117zM9.141 30.344q0 1 1.078 1.297 0.516 0.172 1.047-0.102t0.688-0.836l2.5-9.547q0.156-0.547-0.148-1.047t-0.898-0.672q-0.547-0.172-1.047 0.117t-0.656 0.867l-2.5 9.5q-0.063 0.281-0.063 0.422zM13.469 35.438q0 0.297 0.141 0.609 0.25 0.516 0.844 0.719 0.063 0 0.164 0.016t0.188 0.023 0.148 0.008q1.078 0 1.266-1.094l3.828-14.563q0.172-0.547-0.102-1.047t-0.836-0.672q-0.609-0.172-1.125 0.117t-0.625 0.867l-3.844 14.578q-0.047 0.234-0.047 0.438zM20.391 30.328q0 0.391 0.266 0.781t0.75 0.531q0.156 0.047 0.375 0.047 0.422 0 0.813-0.227t0.531-0.758l2.5-9.547q0.188-0.516-0.109-1.031t-0.859-0.688q-0.609-0.172-1.102 0.117t-0.602 0.867l-2.5 9.5q-0.063 0.281-0.063 0.406zM22.953 6.141q1.672-1.672 4.125-1.672 2.438 0 4.156 1.703t1.719 4.141q0 1.563-0.859 3.078-2.391-2.391-5.828-2.391h-0.516q-0.703-2.922-2.797-4.859z"></path>
</svg>
