<?xml version="1.0" encoding="utf-8"?>
<!-- Generated by IcoMoon.io -->
<!DOCTYPE svg PUBLIC "-//W3C//DTD SVG 1.1//EN" "http://www.w3.org/Graphics/SVG/1.1/DTD/svg11.dtd">
<svg version="1.1" xmlns="http://www.w3.org/2000/svg" xmlns:xlink="http://www.w3.org/1999/xlink" width="42" height="32" viewBox="0 0 42 32">
<path fill="#444444" d="M0 26q0 0.625 0.453 1 0.422 0.438 1.016 0.438h15.906q0.578 0 0.977-0.422t0.398-1.016-0.398-1.016-0.977-0.422h-15.906q-0.594 0-1.031 0.43t-0.438 1.008zM4.391 20.953q0 0.563 0.453 0.969 0.406 0.406 1 0.406h15.922q0.594 0 0.984-0.391t0.391-0.984-0.398-1.008-0.977-0.414h-15.922q-0.594 0-1.023 0.422t-0.43 1zM6.297 17.063q0 0.188 0.328 0.188h2.375q0.219 0 0.375-0.234 0.563-1.359 1.75-2.25t2.641-1l0.906-0.125q0.297 0 0.297-0.297l0.125-0.844q0.266-2.703 2.297-4.531t4.781-1.828 4.781 1.813 2.313 4.547l0.125 0.953q0 0.313 0.281 0.313h2.703q2.281 0 3.883 1.578t1.602 3.813q0 2.219-1.602 3.813t-3.883 1.594h-11.516q-0.281 0-0.281 0.281v2.297q0 0.297 0.281 0.297h11.516q2.266 0 4.18-1.109t3.031-3.016 1.117-4.156q0-1.766-0.734-3.344 1.922-2.516 1.922-5.484 0-2.375-1.18-4.398t-3.195-3.195-4.406-1.172q-3.813 0-6.406 2.781-2.125-1.016-4.531-1.016-2.328 0-4.383 0.984t-3.453 2.766-1.883 4.047q-2.188 0.5-3.82 2.008t-2.273 3.617zM7.328 31.156q0 0.578 0.438 0.969 0.406 0.406 1 0.406h15.938q0.594 0 1.008-0.391t0.414-0.984-0.422-1.016-1-0.422h-15.938q-0.578 0-1.008 0.43t-0.43 1.008zM29 6.031q1.688-1.625 4.109-1.625 2.469 0 4.203 1.727t1.734 4.195q0 1.578-0.813 2.953-2.453-2.391-5.859-2.391h-0.531q-0.609-2.734-2.844-4.859z"></path>
</svg>
