<?xml version="1.0" encoding="utf-8"?>
<!-- Generated by IcoMoon.io -->
<!DOCTYPE svg PUBLIC "-//W3C//DTD SVG 1.1//EN" "http://www.w3.org/Graphics/SVG/1.1/DTD/svg11.dtd">
<svg version="1.1" xmlns="http://www.w3.org/2000/svg" xmlns:xlink="http://www.w3.org/1999/xlink" width="36" height="32" viewBox="0 0 36 32">
<path fill="#444444" d="M0 19.156q0 2.781 1.656 4.969t4.266 2.922l-1.063 2.797q-0.125 0.359 0.234 0.359h3.531l-1.734 6.984h0.469l6.609-9.375q0.094-0.109 0.023-0.234t-0.242-0.125h-3.625l4.125-7.688q0.172-0.359-0.234-0.359h-4.906q-0.219 0-0.375 0.234l-1.781 4.781q-1.781-0.438-2.945-1.906t-1.164-3.359q0-2.078 1.398-3.602t3.492-1.773l0.891-0.063q0.297 0 0.297-0.297l0.125-0.891q0.172-1.766 1.156-3.227t2.539-2.289 3.352-0.828q2.703 0 4.734 1.828t2.313 4.516l0.125 0.938q0 0.313 0.281 0.313h2.703q2.219 0 3.836 1.594t1.617 3.781q0 2.156-1.5 3.742t-3.625 1.695q-0.328 0-0.328 0.297v2.234q0 0.281 0.328 0.281 2.172-0.063 4-1.195t2.875-3.008 1.047-4.047q0-1.828-0.703-3.344 1.953-2.313 1.953-5.516 0-1.766-0.695-3.375t-1.867-2.781-2.781-1.867-3.375-0.695q-3.859 0-6.438 2.891-2.016-1.078-4.5-1.078-3.516 0-6.25 2.18t-3.5 5.586q-2.75 0.641-4.547 2.883t-1.797 5.117zM13.219 35.625q0 0.406 0.242 0.766t0.758 0.516q0.047 0 0.133 0.016t0.156 0.023 0.133 0.008q1.047 0 1.328-1l4.047-14.813q0.156-0.578-0.109-1.070t-0.813-0.664q-0.578-0.172-1.086 0.102t-0.664 0.836l-4.078 14.828q-0.047 0.422-0.047 0.453zM20.125 30.563q0 1 1.031 1.328 0.422 0.047 0.438 0.047 0.281 0 0.578-0.125 0.5-0.219 0.703-0.922l2.734-9.75q0.156-0.578-0.125-1.070t-0.844-0.664q-0.578-0.172-1.078 0.102t-0.656 0.836l-2.703 9.813q-0.078 0.359-0.078 0.406zM22.906 6.063q1.688-1.594 4.125-1.594 2.422 0 4.141 1.703t1.719 4.125q0 1.578-0.844 3.078-2.406-2.406-5.797-2.406h-0.531q-0.703-2.859-2.813-4.906z"></path>
</svg>
