<?xml version="1.0" encoding="utf-8"?>
<!-- Generated by IcoMoon.io -->
<!DOCTYPE svg PUBLIC "-//W3C//DTD SVG 1.1//EN" "http://www.w3.org/Graphics/SVG/1.1/DTD/svg11.dtd">
<svg version="1.1" xmlns="http://www.w3.org/2000/svg" xmlns:xlink="http://www.w3.org/1999/xlink" width="35" height="32" viewBox="0 0 35 32">
<path fill="#444444" d="M0 19.219q0 2.797 1.633 4.977t4.258 2.977q0.219 0.047 0.406-0.125l1.938-2.391q-2.219 0-3.797-1.594t-1.578-3.844q0-2.109 1.406-3.664t3.5-1.727l0.875-0.109q0.266 0 0.266-0.219l0.125-0.922q0.313-2.75 2.32-4.555t4.742-1.805q2.75 0 4.789 1.82t2.289 4.539l0.125 0.969q0.063 0.281 0.359 0.281h2.703q2.25 0 3.828 1.578t1.578 3.813q0 2.078-1.406 3.633t-3.453 1.805q-0.297 0-0.813 0.094-0.484 0.047-0.688 0.375l-3.938 4.656q-0.359 0.453-0.273 1.047t0.523 0.953q0.266 0.313 0.938 0.313 0.656 0 1.016-0.578l3.531-4.063q3.109-0.313 5.25-2.688t2.141-5.547q0-1.688-0.648-3.219t-1.75-2.633-2.625-1.758-3.211-0.656h-0.531q-0.828-3.313-3.539-5.43t-6.195-2.117q-2.328 0-4.383 0.992t-3.461 2.766-1.891 4.039q-2.813 0.625-4.586 2.867t-1.773 5.148zM5.641 32.578q0 0.156 0.094 0.5 0.219 0.531 0.734 0.734 0.547 0.25 1.109 0.031t0.766-0.75q0.25-0.547 0.031-1.078t-0.766-0.719q-0.563-0.266-1.078-0.047t-0.766 0.781q-0.125 0.266-0.125 0.547zM8.719 28.516v0.172q0.047 0.563 0.5 0.938 0.563 0.313 1.031 0.313 0.563 0 1.016-0.547l3.875-4.609q0.359-0.438 0.328-1.094-0.063-0.531-0.461-0.891t-0.867-0.359q-0.141 0-0.234 0.016-0.578 0.109-0.938 0.547l-3.938 4.625q-0.313 0.359-0.313 0.891zM10 36.375q0 0.297 0.125 0.531 0.203 0.531 0.734 0.781 0.266 0.125 0.547 0.125 0.313 0 0.516-0.125 0.578-0.234 0.781-0.688 0.25-0.547 0.039-1.109t-0.742-0.766q-0.547-0.25-1.117-0.031t-0.758 0.75q-0.125 0.234-0.125 0.531zM12.781 32.469v0.188q0.063 0.547 0.516 0.914t0.922 0.367q0.563 0 1.047-0.547l7.25-8.734q0.281-0.313 0.281-0.859v-0.203q-0.063-0.563-0.453-0.891t-0.875-0.328h-0.219q-0.578 0.031-0.922 0.516l-7.25 8.672q-0.297 0.438-0.297 0.906zM18.641 34.391q0 0.219 0.094 0.5 0.219 0.547 0.766 0.781 0.344 0.094 0.516 0.094 0.359 0 0.563-0.125 0.563-0.219 0.766-0.703 0.25-0.422 0.031-1.109-0.203-0.516-0.734-0.734l-0.594-0.156q-0.219 0.047-0.531 0.125-0.547 0.203-0.75 0.734-0.125 0.297-0.125 0.594z"></path>
</svg>
