<?xml version="1.0" encoding="utf-8"?>
<!-- Generated by IcoMoon.io -->
<!DOCTYPE svg PUBLIC "-//W3C//DTD SVG 1.1//EN" "http://www.w3.org/Graphics/SVG/1.1/DTD/svg11.dtd">
<svg version="1.1" xmlns="http://www.w3.org/2000/svg" xmlns:xlink="http://www.w3.org/1999/xlink" width="35" height="32" viewBox="0 0 35 32">
<path fill="#444444" d="M0 19.266q0 3.297 2.328 5.688t5.641 2.5q0.297 0 0.297-0.281v-2.219q0-0.297-0.297-0.297-2.109-0.109-3.625-1.695t-1.516-3.695q0-2.094 1.414-3.648t3.492-1.727l0.875-0.125q0.313 0 0.313-0.297l0.125-0.828q0.25-2.734 2.273-4.578t4.773-1.844q2.703 0 4.734 1.828t2.328 4.516l0.109 0.969q0 0.297 0.313 0.297h2.672q2.25 0 3.859 1.609t1.609 3.828q0 2.109-1.508 3.695t-3.633 1.695q-0.328 0-0.328 0.297v2.219q0 0.281 0.328 0.281 3.328-0.109 5.633-2.492t2.305-5.695q0-2.234-1.109-4.133t-3.016-3-4.141-1.102h-0.516q-0.828-3.344-3.516-5.477t-6.125-2.133q-3.516 0-6.25 2.188t-3.5 5.578q-2.813 0.719-4.578 2.945t-1.766 5.133zM9.016 30.969q0 0.422 0.273 0.844t0.789 0.578q0.578 0.172 1.063-0.063t0.656-0.938l0.234-1.016q0.125-0.563-0.156-1.055t-0.859-0.664q-0.563-0.172-1.070 0.125t-0.664 0.891l-0.234 0.984q-0.031 0.094-0.031 0.313zM10.281 26.141q0 0.531 0.422 0.953 0.391 0.422 0.938 0.422 0.594 0 1-0.398t0.406-0.977-0.406-0.977-1-0.398q-0.578 0-0.969 0.391t-0.391 0.984zM11.297 22.344q-0.031 0.391 0.227 0.758t0.805 0.539q0.516 0.156 1.031-0.117t0.688-0.852l0.469-1.5q0.188-0.609-0.109-1.086t-0.906-0.648q-0.547-0.172-1.055 0.109t-0.68 0.828l-0.406 1.531q0 0.047-0.031 0.195t-0.031 0.242zM13.234 36.172q0 0.438 0.258 0.828t0.805 0.547q0.203 0.047 0.422 0.047 1.063 0 1.313-1.016l0.234-0.984q0.156-0.641-0.141-1.141t-0.875-0.609q-0.531-0.172-1.047 0.117t-0.688 0.852l-0.234 0.984q-0.047 0.219-0.047 0.375zM14.531 31.328q0 0.547 0.422 0.969 0.406 0.406 0.953 0.406 0.594 0 0.984-0.391t0.391-0.984q0-0.578-0.391-0.969t-0.984-0.391-0.984 0.391-0.391 0.969zM15.578 27.547q-0.031 0.375 0.219 0.781t0.75 0.5q0.578 0.156 1.063-0.094t0.688-0.938l0.453-1.5q0.172-0.547-0.117-1.047t-0.883-0.672q-0.547-0.172-1.063 0.133t-0.688 0.883l-0.375 1.5q-0.047 0.219-0.047 0.453zM20.172 31.125q0 0.406 0.258 0.797t0.773 0.547q0.078 0 0.227 0.031t0.227 0.031q1.016 0 1.266-1.094l0.234-1q0.172-0.531-0.109-1.047t-0.844-0.688q-0.625-0.156-1.133 0.133t-0.68 0.883l-0.156 0.984q0 0.063-0.031 0.203t-0.031 0.219zM21.406 26.203q0 0.563 0.422 0.953 0.375 0.406 0.953 0.406 0.594 0 0.984-0.391t0.391-0.969q0-0.594-0.391-0.984t-0.984-0.391-0.984 0.391-0.391 0.984zM22.422 22.344q0 0.422 0.273 0.805t0.82 0.539q0.047 0 0.203 0.031t0.234 0.031q0.25 0 0.594-0.156 0.531-0.281 0.688-0.875l0.406-1.5q0.156-0.563-0.125-1.055t-0.844-0.664q-0.578-0.172-1.063 0.094t-0.656 0.844l-0.469 1.516q0 0.063-0.031 0.195t-0.031 0.195z"></path>
</svg>
