<?xml version="1.0" encoding="utf-8"?>
<!-- Generated by IcoMoon.io -->
<!DOCTYPE svg PUBLIC "-//W3C//DTD SVG 1.1//EN" "http://www.w3.org/Graphics/SVG/1.1/DTD/svg11.dtd">
<svg version="1.1" xmlns="http://www.w3.org/2000/svg" xmlns:xlink="http://www.w3.org/1999/xlink" width="35" height="32" viewBox="0 0 35 32">
<path fill="#444444" d="M0 19.25q0-2.891 1.805-5.156t4.57-2.906q0.766-3.422 3.508-5.617t6.289-2.195q2.031 0 3.672 0.672 0 0.016 0.016 0.031 2.094 0.813 3.688 2.578h0.047q1.688 1.828 2.281 4.359h0.516q2.703 0 4.719 1.438v-0.016q1.328 0.891 2.227 2.219t1.211 2.906q0.094 0.531 0.125 0.859v0.094q0 0.078 0.016 0.219t0.023 0.25 0.008 0.219v0.047q0 2.203-1.063 4.086t-2.898 3.016-4.039 1.195q-0.328 0-0.328-0.281v-2.234q0-0.313 0.328-0.313 2.141-0.109 3.633-1.703t1.492-3.766q0-2.219-1.609-3.82t-3.844-1.602h-2.688q-0.297 0-0.297-0.281l-0.125-0.984q-0.25-2.5-2.109-4.313-0.016-0.016-0.039-0.047t-0.039-0.047q-0.031-0.031-0.063-0.031 0-0.047-0.031-0.047-1.813-1.656-4.266-1.875-0.172-0.016-0.563-0.016-2.75 0-4.773 1.836t-2.289 4.539l-0.125 0.984q-0.078 0.234-0.375 0.234l-0.844 0.047q-2.109 0.25-3.516 1.781t-1.406 3.641v0.063h0.047q0.016 1.188 0.508 2.25t1.336 1.813q0.516 0.453 1.234 0.797v0.016q1 0.484 2.016 0.531 0.281 0 0.281 0.297v2.234q0 0.281-0.281 0.281-1.297-0.078-2.469-0.5v0.016q-2.078-0.719-3.523-2.391t-1.852-3.844v-0.047q-0.016-0.016-0.016-0.063-0.125-0.641-0.125-1.453zM9.172 31.203q0-0.078 0.031-0.211t0.031-0.195l0.156-0.984q0.172-0.594 0.68-0.883t1.133-0.133q0.563 0.172 0.844 0.688t0.109 1.047l-0.234 1q-0.25 1.094-1.266 1.094-0.078 0-0.227-0.031t-0.227-0.031q-0.516-0.156-0.773-0.547t-0.258-0.813zM10.406 26.297q0-0.594 0.391-0.984t0.984-0.391 0.984 0.391 0.391 0.984q0 0.578-0.391 0.969t-0.984 0.391q-0.578 0-0.953-0.406-0.422-0.391-0.422-0.953zM13.141 36.281q0-0.094 0.063-0.375l0.219-0.984q0.172-0.563 0.688-0.852t1.047-0.117q0.578 0.109 0.875 0.609t0.141 1.141l-0.219 0.984q-0.25 1.016-1.328 1.016-0.188 0-0.406-0.047-0.547-0.156-0.813-0.555t-0.266-0.82zM14.453 31.438q0-0.578 0.391-0.969t0.984-0.391 0.984 0.391 0.391 0.969q0 0.594-0.391 0.984t-0.984 0.391q-0.563 0-0.969-0.406t-0.406-0.969zM15.484 27.656q0-0.234 0.047-0.453l0.375-1.5q0.172-0.578 0.688-0.883t1.063-0.133q0.594 0.172 0.883 0.672t0.117 1.047l-0.438 1.5q-0.203 0.688-0.688 0.938t-1.063 0.094q-0.5-0.094-0.758-0.5t-0.227-0.781zM20.094 31.219q0-0.078 0.023-0.219t0.023-0.188l0.156-0.984q0.172-0.594 0.68-0.883t1.133-0.133q0.563 0.172 0.852 0.688t0.117 1.047l-0.234 1q-0.25 1.094-1.266 1.094-0.078 0-0.234-0.031t-0.234-0.031q-0.5-0.156-0.758-0.547t-0.258-0.813zM21.328 26.313q0-0.594 0.391-0.984t0.984-0.391 0.984 0.391 0.391 0.984q0 0.578-0.391 0.969t-0.984 0.391-0.969-0.406q-0.406-0.375-0.406-0.953z"></path>
</svg>
