<?xml version="1.0" encoding="utf-8"?>
<!-- Generated by IcoMoon.io -->
<!DOCTYPE svg PUBLIC "-//W3C//DTD SVG 1.1//EN" "http://www.w3.org/Graphics/SVG/1.1/DTD/svg11.dtd">
<svg version="1.1" xmlns="http://www.w3.org/2000/svg" xmlns:xlink="http://www.w3.org/1999/xlink" width="11" height="32" viewBox="0 0 11 32">
<path fill="#444444" d="M0 15.844q0 1.969 0.953 3.625t2.617 2.617 3.633 0.961q0.469 0 0.805-0.359t0.336-0.844-0.328-0.805-0.813-0.32q-2.031 0-3.445-1.422t-1.414-3.453q0-1.938 1.328-3.375t3.125-1.438l-0.547 0.531q-0.375 0.359-0.344 0.813 0 0.453 0.328 0.805t0.813 0.352q0.5 0 0.844-0.344l2.516-2.5q0.328-0.266 0.328-0.844 0-0.547-0.328-0.781l-2.516-2.547q-0.328-0.344-0.813-0.344t-0.836 0.344-0.352 0.828q0 0.516 0.359 0.844l0.5 0.469q-2.875 0.203-4.813 2.258t-1.938 4.93z"></path>
</svg>
