<?xml version="1.0" encoding="utf-8"?>
<!-- Generated by IcoMoon.io -->
<!DOCTYPE svg PUBLIC "-//W3C//DTD SVG 1.1//EN" "http://www.w3.org/Graphics/SVG/1.1/DTD/svg11.dtd">
<svg version="1.1" xmlns="http://www.w3.org/2000/svg" xmlns:xlink="http://www.w3.org/1999/xlink" width="17" height="32" viewBox="0 0 17 32">
<path fill="#444444" d="M0 16.891q0 2.359 1.18 4.367t3.188 3.172 4.352 1.164q2.391 0 4.391-1.156t3.156-3.156 1.156-4.391q0-0.594-0.398-1.016t-0.977-0.422-1 0.422-0.422 1.016q0 2.453-1.727 4.18t-4.18 1.727q-2.422 0-4.125-1.727t-1.703-4.18q0-2.125 1.32-3.852t3.070-1.836l-0.641 0.609q-0.406 0.438-0.406 0.969 0 0.563 0.406 1 0.906 0.875 2.016 0l3.063-3.031q0.406-0.313 0.406-1.031 0-0.641-0.406-0.953l-3.063-3.094q-0.438-0.406-0.953-0.406-0.625 0-1.047 0.414t-0.422 1.008q0 0.609 0.406 1.016l0.641 0.594q-3.125 0.547-5.203 2.992t-2.078 5.602z"></path>
</svg>
