<?xml version="1.0" encoding="utf-8"?>
<!-- Generated by IcoMoon.io -->
<!DOCTYPE svg PUBLIC "-//W3C//DTD SVG 1.1//EN" "http://www.w3.org/Graphics/SVG/1.1/DTD/svg11.dtd">
<svg version="1.1" xmlns="http://www.w3.org/2000/svg" xmlns:xlink="http://www.w3.org/1999/xlink" width="17" height="32" viewBox="0 0 17 32">
<path fill="#444444" d="M0.016 14.938q0 0.563 0.383 0.953t0.93 0.328h10.969l-1.719 1.797q-0.406 0.406-0.406 0.922 0 0.563 0.398 0.953t0.961 0.391q0.531-0.016 0.891-0.453l4.078-4.016q0.391-0.391 0.391-0.969-0.016-0.578-0.406-0.969l-4.109-3.984q-0.375-0.406-0.906-0.391-0.563 0-0.953 0.375t-0.391 0.938 0.391 0.953l1.766 1.797h-10.984q-0.563 0.016-0.93 0.414t-0.352 0.961z"></path>
</svg>
