<?xml version="1.0" encoding="utf-8"?>
<!-- Generated by IcoMoon.io -->
<!DOCTYPE svg PUBLIC "-//W3C//DTD SVG 1.1//EN" "http://www.w3.org/Graphics/SVG/1.1/DTD/svg11.dtd">
<svg version="1.1" xmlns="http://www.w3.org/2000/svg" xmlns:xlink="http://www.w3.org/1999/xlink" width="35" height="32" viewBox="0 0 35 32">
<path fill="#444444" d="M0 19.219q0-2.891 1.813-5.141t4.641-2.891q0.734-3.438 3.453-5.648t6.25-2.211q3.484 0 6.195 2.125t3.539 5.5h0.563q2.25 0 4.141 1.102t2.977 3.008 1.086 4.156q0 3.344-2.289 5.734t-5.617 2.5q-0.297 0-0.297-0.281v-2.234q0-0.281 0.297-0.281 2.109-0.172 3.609-1.742t1.5-3.695q0-2.234-1.594-3.844t-3.813-1.609h-2.719q-0.297 0-0.359-0.297l-0.125-0.953q-0.172-1.781-1.164-3.227t-2.555-2.266-3.375-0.82q-2.75 0-4.773 1.82t-2.289 4.539l-0.109 0.906q0 0.234-0.266 0.234l-0.875 0.125q-2.109 0.172-3.523 1.719t-1.414 3.672q0 2.172 1.477 3.742t3.617 1.695q0.297 0 0.297 0.281v2.234q0 0.281-0.297 0.281-1.641-0.078-3.125-0.75t-2.555-1.766-1.695-2.586-0.625-3.133zM9.031 30.5q0-0.078 0.031-0.219t0.031-0.188l0.453-1.719q0.172-0.563 0.664-0.852t1.070-0.117q0.563 0.172 0.859 0.664t0.125 1.070l-0.406 1.688q-0.328 1.094-1.266 1.094-0.063 0-0.148-0.008t-0.188-0.023-0.164-0.016q-0.531-0.156-0.797-0.57t-0.266-0.805zM11.234 22.469q0-0.063 0.023-0.188t0.023-0.156l0.5-1.75q0.156-0.484 0.531-0.742t0.781-0.258q0.063 0 0.133 0.008t0.156 0.023 0.133 0.016q0.563 0.172 0.852 0.664t0.117 1.070l-0.406 1.672q-0.172 0.688-0.672 0.977t-1.078 0.039q-0.547-0.156-0.82-0.563t-0.273-0.813zM13.281 35.719q0-0.078 0.031-0.211t0.031-0.195l0.484-1.656q0.156-0.594 0.664-0.898t1.086-0.133q0.563 0.172 0.844 0.68t0.109 1.086l-0.422 1.734q-0.266 1.016-1.328 1.016-0.125 0-0.406-0.063-0.547-0.094-0.82-0.508t-0.273-0.852zM15.516 27.766q0-0.141 0.063-0.422l0.453-1.719q0.172-0.563 0.68-0.852t1.086-0.117q0.563 0.156 0.844 0.648t0.094 1.086l-0.406 1.656q-0.313 1.125-1.203 1.125-0.109 0-0.516-0.094-0.547-0.109-0.82-0.492t-0.273-0.82zM20.219 30.563q0-0.172 0.047-0.406l0.469-1.656q0.172-0.594 0.68-0.898t1.055-0.148q0.578 0.172 0.883 0.68t0.148 1.055l-0.484 1.766q-0.25 1.016-1.313 1.016-0.234 0-0.438-0.047-0.5-0.094-0.766-0.508t-0.281-0.852zM22.516 22.625q0-0.078 0.078-0.438l0.5-1.719q0.094-0.531 0.484-0.789t0.813-0.227q0.109-0.016 0.406 0.047 0.547 0.125 0.859 0.641 0.297 0.422 0.125 1.078l-0.406 1.719q-0.328 1.078-1.266 1.078-0.156 0-0.563-0.094-0.516-0.156-0.773-0.523t-0.258-0.773z"></path>
</svg>
