<?xml version="1.0" encoding="utf-8"?>
<!-- Generated by IcoMoon.io -->
<!DOCTYPE svg PUBLIC "-//W3C//DTD SVG 1.1//EN" "http://www.w3.org/Graphics/SVG/1.1/DTD/svg11.dtd">
<svg version="1.1" xmlns="http://www.w3.org/2000/svg" xmlns:xlink="http://www.w3.org/1999/xlink" width="29" height="32" viewBox="0 0 29 32">
<path fill="#444444" d="M0 11.766q0-2.344 1.508-4.172t3.852-2.375q0.563-2.781 2.836-4.586t5.195-1.805q2.813 0 5.008 1.727t2.867 4.508h0.469q1.891 0 3.531 0.813t2.617 2.227 0.977 3.070q0 2.813-2.156 4.766 0 0.875-0.539 2.008t-1.445 2.055-1.828 1.125q-0.313 1.547-1.438 2.609t-2.719 1.422q0.75 0.75 0.75 1.766 0 1.234-0.875 2.102t-2.109 0.867q-1.219 0-2.094-0.867t-0.875-2.102q0-0.141 0.070-0.438t0.070-0.453h-0.141q-1.469 0-2.516-1.055t-1.047-2.523q0-0.578 0.609-1.766-1.219-0.641-1.953-2.094h-2.078q-2.734-0.234-4.641-2.164t-1.906-4.664z"></path>
</svg>
