<?xml version="1.0" encoding="utf-8"?>
<!-- Generated by IcoMoon.io -->
<!DOCTYPE svg PUBLIC "-//W3C//DTD SVG 1.1//EN" "http://www.w3.org/Graphics/SVG/1.1/DTD/svg11.dtd">
<svg version="1.1" xmlns="http://www.w3.org/2000/svg" xmlns:xlink="http://www.w3.org/1999/xlink" width="28" height="32" viewBox="0 0 28 32">
<path fill="#444444" d="M0 11.797q0-2.344 1.477-4.195t3.742-2.352q0.641-2.813 2.883-4.609t5.133-1.797q2.813 0 5.031 1.758t2.875 4.477h0.453q2.813 0 4.797 1.961t1.984 4.758q0 1.5-0.617 2.836t-1.711 2.289v0.047q0 1.484-0.93 2.648t-2.336 1.477q-0.359 1.563-1.516 2.641t-2.719 1.328q0.719 0.859 0.719 1.891 0 1.203-0.852 2.063t-2.055 0.859-2.055-0.859-0.852-2.063q0-0.484 0.172-0.953h-0.172q-1.453 0-2.5-1.047t-1.047-2.5q0-1 0.5-1.781-1.297-0.719-1.875-2.078h-2.125v-0.016q-2.688-0.172-4.547-2.125t-1.859-4.656zM2.328 11.391q0 2 1.406 3.406t3.391 1.406q1.234 0 2.281-0.563 0.297 1.859 1.734 3.094t3.375 1.234q2.172 0 3.703-1.531 1.031 1.188 2.563 1.188 1.422 0 2.43-1.008t1.008-2.43q1-0.672 1.578-1.727t0.578-2.289q0-1.984-1.422-3.367t-3.422-1.383q-1.391 0-2.547 0.734 0.141-0.609 0.141-1.313 0-2.406-1.719-4.094t-4.156-1.688q-2.344 0-4.047 1.625t-1.781 3.953q-0.047 0-0.141-0.008t-0.156-0.008q-1.969 0-3.383 1.398t-1.414 3.367z"></path>
</svg>
