<?xml version="1.0" encoding="utf-8"?>
<!-- Generated by IcoMoon.io -->
<!DOCTYPE svg PUBLIC "-//W3C//DTD SVG 1.1//EN" "http://www.w3.org/Graphics/SVG/1.1/DTD/svg11.dtd">
<svg version="1.1" xmlns="http://www.w3.org/2000/svg" xmlns:xlink="http://www.w3.org/1999/xlink" width="35" height="32" viewBox="0 0 35 32">
<path fill="#444444" d="M0 19.25q0-2.891 1.773-5.133t4.57-2.93q0.781-3.406 3.508-5.594t6.258-2.188q3.438 0 6.133 2.133t3.508 5.477h0.531q2.234 0 4.141 1.102t3.016 3 1.109 4.133q0 3.313-2.313 5.703t-5.625 2.5q-0.328 0-0.328-0.281v-2.219q0-0.297 0.328-0.297 2.125-0.109 3.633-1.695t1.508-3.711q0-2.219-1.609-3.828t-3.859-1.609h-2.688q-0.297 0-0.297-0.281l-0.125-0.969q-0.281-2.703-2.32-4.531t-4.742-1.828q-2.75 0-4.773 1.844t-2.289 4.578l-0.094 0.828q0 0.313-0.328 0.313l-0.875 0.109q-2.078 0.172-3.492 1.727t-1.414 3.648q0 2.125 1.508 3.711t3.633 1.695q0.281 0 0.281 0.297v2.219q0 0.281-0.281 0.281-3.344-0.109-5.664-2.5t-2.32-5.703zM10.609 26.031q0-0.563 0.398-0.969t0.977-0.406 0.977 0.406 0.398 0.969q0 0.594-0.398 1.008t-0.977 0.414-0.977-0.414-0.398-1.008zM10.609 32.078q0-0.594 0.406-1 0.391-0.375 0.969-0.375t0.977 0.391 0.398 0.984-0.398 0.984-0.977 0.391-0.977-0.391-0.398-0.984zM15.922 29.25q0-0.578 0.422-1.031 0.406-0.406 0.953-0.406 0.578 0 1.008 0.43t0.43 1.008-0.422 0.992-1.016 0.414q-0.563 0-0.969-0.414t-0.406-0.992zM15.922 23.219q0-0.578 0.422-1 0.438-0.406 0.953-0.406 0.594 0 1.016 0.414t0.422 0.992-0.422 0.977-1.016 0.398q-0.563 0-0.969-0.398t-0.406-0.977zM15.922 35.344q0-0.563 0.422-1.016 0.406-0.406 0.953-0.406 0.594 0 1.016 0.422t0.422 1-0.422 0.977-1.016 0.398q-0.563 0-0.969-0.398t-0.406-0.977zM21.297 26.031q0-0.547 0.422-0.961t1-0.414 0.977 0.406 0.398 0.969q0 0.594-0.398 1.008t-0.977 0.414q-0.594 0-1.008-0.422t-0.414-1zM21.297 32.078q0-0.547 0.422-1 0.406-0.375 1-0.375t0.984 0.391 0.391 0.984-0.391 0.984-0.984 0.391-1.008-0.398-0.414-0.977z"></path>
</svg>
