<?xml version="1.0" encoding="utf-8"?>
<!-- Generated by IcoMoon.io -->
<!DOCTYPE svg PUBLIC "-//W3C//DTD SVG 1.1//EN" "http://www.w3.org/Graphics/SVG/1.1/DTD/svg11.dtd">
<svg version="1.1" xmlns="http://www.w3.org/2000/svg" xmlns:xlink="http://www.w3.org/1999/xlink" width="35" height="32" viewBox="0 0 35 32">
<path fill="#444444" d="M0 15.375q0-0.609 0.422-1.031 0.438-0.406 1-0.406h3.406q0.578 0 0.961 0.422t0.383 1.016-0.383 1.008-0.961 0.414h-3.406q-0.578 0-1-0.422t-0.422-1zM4.766 26.922q0-0.578 0.391-1.016l2.453-2.375q0.375-0.391 0.984-0.391 0.594 0 0.992 0.375t0.398 0.953q0 0.609-0.406 1.063l-2.375 2.375q-1.016 0.797-2.047 0-0.391-0.422-0.391-0.984zM4.766 3.844q0-0.578 0.391-1.016 0.484-0.406 1.063-0.406 0.547 0 0.984 0.406l2.375 2.453q0.406 0.375 0.406 0.984 0 0.594-0.398 0.992t-0.992 0.398q-0.609 0-0.984-0.406l-2.453-2.375q-0.391-0.422-0.391-1.031zM9.016 15.375q0-2.328 1.172-4.336t3.18-3.18 4.336-1.172q1.75 0 3.359 0.695t2.773 1.859 1.852 2.773 0.688 3.359q0 2.344-1.164 4.344t-3.164 3.164-4.344 1.164-4.344-1.164-3.172-3.164-1.172-4.344zM16.281 28.328q0-0.594 0.414-1t1.008-0.406q0.609 0 1.016 0.406t0.406 1v3.313q0 0.609-0.414 1.031t-1.008 0.422-1.008-0.422-0.414-1.031v-3.313zM16.281 2.5v-3.406q0-0.578 0.422-1t1-0.422 1 0.422 0.422 1v3.406q0 0.578-0.414 0.961t-1.008 0.383-1.008-0.383-0.414-0.961zM16.453 9.703q2.172 0.266 3.648 1.922t1.477 3.891q0 2.078-1.305 3.664t-3.305 2.023q0.5 0.063 0.734 0.063 2.438 0 4.164-1.727t1.727-4.164q0-2.406-1.727-4.109t-4.164-1.703q-0.656 0-1.25 0.141zM25.484 24.469q0-0.578 0.375-0.938 0.375-0.391 0.938-0.391 0.609 0 1 0.391l2.438 2.375q0.406 0.438 0.406 1.016t-0.406 0.984q-1 0.781-2 0l-2.375-2.375q-0.375-0.422-0.375-1.063zM25.484 6.266q0-0.625 0.375-0.984l2.375-2.453q0.438-0.406 0.984-0.406 0.594 0 1.008 0.422t0.414 1q0 0.625-0.406 1.031l-2.438 2.375q-0.453 0.406-1 0.406-0.563 0-0.938-0.398t-0.375-0.992zM29.25 15.375q0-0.594 0.406-1.031 0.406-0.406 0.953-0.406h3.375q0.578 0 1.008 0.43t0.43 1.008-0.43 1-1.008 0.422h-3.375q-0.578 0-0.969-0.414t-0.391-1.008z"></path>
</svg>
