<?xml version="1.0" encoding="utf-8"?>
<!-- Generated by IcoMoon.io -->
<!DOCTYPE svg PUBLIC "-//W3C//DTD SVG 1.1//EN" "http://www.w3.org/Graphics/SVG/1.1/DTD/svg11.dtd">
<svg version="1.1" xmlns="http://www.w3.org/2000/svg" xmlns:xlink="http://www.w3.org/1999/xlink" width="13" height="32" viewBox="0 0 13 32">
<path fill="#444444" d="M0 11.375q0-0.641 0.633-1.688t1.211-1.734q0.156-0.188 0.391-0.461t0.266-0.305l0.609 0.719q0.688 0.766 1.266 1.781t0.578 1.688q0 1.031-0.711 1.766t-1.742 0.734-1.766-0.734-0.734-1.766zM5.203 18.297q0-0.719 0.406-1.68t1-1.773q1.141-1.531 2.188-2.547 0.109-0.078 0.438-0.406l0.422 0.406q0.969 0.922 2.203 2.531 0.641 0.859 1.039 1.797t0.398 1.672q0 1.719-1.172 2.883t-2.891 1.164q-1.688 0-2.859-1.188t-1.172-2.859zM7.734 6.797q0-1.078 1.672-2.828l0.422 0.469q0.469 0.547 0.844 1.227t0.375 1.133q0 0.688-0.477 1.148t-1.164 0.461q-0.719 0-1.195-0.461t-0.477-1.148z"></path>
</svg>
