<?xml version="1.0" encoding="utf-8"?>
<!-- Generated by IcoMoon.io -->
<!DOCTYPE svg PUBLIC "-//W3C//DTD SVG 1.1//EN" "http://www.w3.org/Graphics/SVG/1.1/DTD/svg11.dtd">
<svg version="1.1" xmlns="http://www.w3.org/2000/svg" xmlns:xlink="http://www.w3.org/1999/xlink" width="32" height="32" viewBox="0 0 32 32">
<path fill="#444444" d="M0 17.969q1.625-0.078 2.75-1.258t1.125-2.805q0 1.625 1.125 2.805t2.75 1.258q-1.625 0.078-2.75 1.258t-1.125 2.805q0-1.625-1.125-2.805t-2.75-1.258zM3.875 5.969q3.156-0.156 5.352-2.445t2.195-5.461q0 3.172 2.203 5.461t5.359 2.445q-2.078 0.094-3.813 1.18t-2.742 2.875-1.008 3.883q0-3.188-2.195-5.484t-5.352-2.453zM9.406 23.922q2.375-0.109 4.031-1.836t1.656-4.117q0 2.391 1.648 4.117t4.023 1.836q-2.375 0.109-4.023 1.836t-1.648 4.117q0-2.391-1.656-4.117t-4.031-1.836zM20.766 16.016q2.375-0.109 4.016-1.828t1.641-4.125q0 2.391 1.656 4.117t4.031 1.836q-2.375 0.109-4.031 1.828t-1.656 4.109q0-2.391-1.641-4.109t-4.016-1.828z"></path>
</svg>
