<?xml version="1.0" encoding="utf-8"?>
<!-- Generated by IcoMoon.io -->
<!DOCTYPE svg PUBLIC "-//W3C//DTD SVG 1.1//EN" "http://www.w3.org/Graphics/SVG/1.1/DTD/svg11.dtd">
<svg version="1.1" xmlns="http://www.w3.org/2000/svg" xmlns:xlink="http://www.w3.org/1999/xlink" width="35" height="32" viewBox="0 0 35 32">
<path fill="#444444" d="M0 19.188q0 2.766 1.648 4.953t4.273 2.984l-1.078 2.797q-0.078 0.359 0.234 0.359h3.547l-1.734 6.297h0.469l6.609-8.703q0.094-0.109 0.031-0.227t-0.234-0.117h-3.625l4.125-7.734q0.156-0.344-0.234-0.344h-4.906q-0.234 0-0.375 0.234l-1.797 4.781q-1.781-0.453-2.945-1.938t-1.164-3.344q0-2.078 1.406-3.602t3.5-1.773l0.875-0.125q0.328 0 0.328-0.281l0.125-0.859q0.25-2.703 2.273-4.531t4.758-1.828q2.719 0 4.758 1.828t2.336 4.531l0.094 0.969q0 0.297 0.313 0.297h2.688q2.266 0 3.867 1.578t1.602 3.797q0 2.125-1.484 3.68t-3.656 1.711q-0.328 0-0.328 0.313v2.281q0 0.281 0.328 0.281 1.625-0.047 3.102-0.734t2.539-1.789 1.688-2.609 0.625-3.133q0-2.25-1.117-4.148t-3.023-3-4.141-1.102h-0.531q-0.828-3.328-3.516-5.438t-6.141-2.109q-3.531 0-6.266 2.188t-3.5 5.594q-2.75 0.641-4.547 2.883t-1.797 5.133zM13.594 35.625q0 0.391 0.258 0.773t0.773 0.539q0.344 0.078 0.422 0.078 0.219 0 0.625-0.172 0.531-0.234 0.703-0.875l0.469-1.75q0.156-0.547-0.133-1.047t-0.883-0.672q-0.547-0.156-1.055 0.133t-0.68 0.883l-0.453 1.672q-0.047 0.422-0.047 0.438zM15.828 27.672q0 0.359 0.258 0.727t0.758 0.555q0.563 0.188 1.063-0.078t0.672-0.875l0.5-1.734q0.156-0.547-0.141-1.055t-0.891-0.68q-0.563-0.156-1.078 0.133t-0.688 0.867l-0.406 1.688q-0.047 0.422-0.047 0.453zM20.531 30.422q0 0.422 0.273 0.844t0.789 0.578q0.063 0 0.195 0.031t0.195 0.031q0.328 0 0.625-0.125 0.469-0.172 0.688-0.953l0.422-1.688q0.172-0.578-0.102-1.102t-0.836-0.695q-0.625-0.156-1.133 0.141t-0.617 0.891l-0.453 1.719q-0.047 0.141-0.047 0.328zM22.797 22.438q-0.016 0.391 0.25 0.781t0.813 0.625q0.188 0.094 0.438 0.094 0.266 0 0.563-0.141 0.516-0.25 0.734-0.953l0.484-1.719q0.047-0.328 0.047-0.359 0-0.422-0.273-0.82t-0.82-0.555q-0.063 0-0.188-0.031t-0.188-0.031q-0.422 0-0.813 0.258t-0.547 0.805l-0.453 1.688q-0.047 0.188-0.047 0.359z"></path>
</svg>
