<?xml version="1.0" encoding="utf-8"?>
<!-- Generated by IcoMoon.io -->
<!DOCTYPE svg PUBLIC "-//W3C//DTD SVG 1.1//EN" "http://www.w3.org/Graphics/SVG/1.1/DTD/svg11.dtd">
<svg version="1.1" xmlns="http://www.w3.org/2000/svg" xmlns:xlink="http://www.w3.org/1999/xlink" width="33" height="32" viewBox="0 0 33 32">
<path fill="#444444" d="M0.188 19.281c0 0.406 0.156 0.75 0.469 1.031 0.271 0.313 0.62 0.469 1.047 0.469h17.297c0.479 0 0.885 0.167 1.219 0.5s0.5 0.745 0.5 1.234c0 0.479-0.164 0.878-0.492 1.195s-0.737 0.477-1.227 0.477c-0.49 0-0.896-0.161-1.219-0.484-0.271-0.292-0.604-0.438-1-0.438-0.417 0-0.773 0.143-1.070 0.43s-0.445 0.628-0.445 1.023c0 0.417 0.156 0.766 0.469 1.047 0.938 0.917 2.026 1.375 3.266 1.375 1.302 0 2.417-0.448 3.344-1.344s1.391-1.99 1.391-3.281c0-1.292-0.466-2.404-1.398-3.336s-2.044-1.398-3.336-1.398h-17.297c-0.417 0-0.773 0.146-1.070 0.438s-0.445 0.646-0.445 1.063zM0.188 13.813c0 0.385 0.156 0.724 0.469 1.016 0.292 0.292 0.641 0.438 1.047 0.438h26.219c1.302 0 2.419-0.453 3.352-1.359s1.398-2 1.398-3.281c0-1.292-0.466-2.396-1.398-3.313s-2.049-1.375-3.352-1.375c-1.281 0-2.365 0.443-3.25 1.328-0.302 0.271-0.453 0.641-0.453 1.109 0 0.427 0.143 0.776 0.43 1.047s0.638 0.406 1.055 0.406c0.406 0 0.755-0.135 1.047-0.406 0.313-0.344 0.703-0.516 1.172-0.516 0.479 0 0.883 0.167 1.211 0.5s0.492 0.74 0.492 1.219c0 0.479-0.164 0.88-0.492 1.203s-0.732 0.484-1.211 0.484h-26.219c-0.417 0-0.773 0.146-1.070 0.438s-0.445 0.646-0.445 1.063z"></path>
</svg>
