<?xml version="1.0" encoding="utf-8"?>
<!-- Generated by IcoMoon.io -->
<!DOCTYPE svg PUBLIC "-//W3C//DTD SVG 1.1//EN" "http://www.w3.org/Graphics/SVG/1.1/DTD/svg11.dtd">
<svg version="1.1" xmlns="http://www.w3.org/2000/svg" xmlns:xlink="http://www.w3.org/1999/xlink" width="41" height="32" viewBox="0 0 41 32">
<path fill="#444444" d="M0 16.594q0-0.625 0.5-1.156 0.563-0.484 1.172-0.484h3.875q0.672 0 1.125 0.484t0.453 1.156q0 0.719-0.453 1.203t-1.125 0.484h-3.875q-0.672 0-1.172-0.508t-0.5-1.18zM5.547 3.297q0-0.672 0.438-1.141 0.563-0.484 1.172-0.484 0.656 0 1.141 0.484l2.734 2.75q0.469 0.547 0.469 1.156 0 0.703-0.453 1.172t-1.094 0.469q-0.609 0-1.172-0.484l-2.797-2.703q-0.438-0.531-0.438-1.219zM8.875 25.797q0-0.703 0.484-1.141 0.438-0.438 1.141-0.438h4.391l5.188-4.875q0.25-0.203 0.563 0l5.266 4.875h4.609q0.672 0 1.148 0.461t0.477 1.117q0 0.672-0.477 1.156t-1.148 0.484h-5.641q-0.25 0-0.484-0.125l-4.016-3.781-3.984 3.781q-0.203 0.125-0.469 0.125h-5.422q-0.672 0-1.148-0.484t-0.477-1.156zM10.422 16.594q0 2.422 1.031 4.406 0.063 0.297 0.422 0.297h3.141q0.188 0 0.25-0.141t-0.031-0.313q-1.594-1.922-1.594-4.25 0-2.813 2-4.781t4.813-1.969q2.797 0 4.773 1.969t1.977 4.781q0 2.344-1.578 4.25-0.109 0.172-0.055 0.313t0.258 0.141h3.172q0.328 0 0.391-0.297 1.031-1.922 1.031-4.406 0-2.031-0.797-3.875t-2.133-3.18-3.18-2.125-3.859-0.789q-2.031 0-3.883 0.789t-3.203 2.125-2.148 3.18-0.797 3.875zM18.797 1.672v-3.828q0-0.719 0.469-1.18t1.188-0.461q0.703 0 1.164 0.469t0.461 1.172v3.828q0 0.719-0.461 1.18t-1.164 0.461q-0.719 0-1.188-0.461t-0.469-1.18zM29.375 6.063q0-0.625 0.453-1.156l2.703-2.75q0.484-0.484 1.172-0.484t1.156 0.477 0.469 1.148q0 0.719-0.438 1.219l-2.813 2.703q-0.531 0.484-1.172 0.484-0.672 0-1.102-0.461t-0.43-1.18zM33.734 16.594q0-0.672 0.445-1.156t1.102-0.484h3.922q0.672 0 1.156 0.484t0.484 1.156q0 0.688-0.484 1.188t-1.156 0.5h-3.922q-0.672 0-1.109-0.484t-0.438-1.203z"></path>
</svg>
