<?xml version="1.0" encoding="utf-8"?>
<!-- Generated by IcoMoon.io -->
<!DOCTYPE svg PUBLIC "-//W3C//DTD SVG 1.1//EN" "http://www.w3.org/Graphics/SVG/1.1/DTD/svg11.dtd">
<svg version="1.1" xmlns="http://www.w3.org/2000/svg" xmlns:xlink="http://www.w3.org/1999/xlink" width="40" height="32" viewBox="0 0 40 32">
<path fill="#444444" d="M0 16.781q0-0.688 0.5-1.125 0.438-0.438 1.141-0.438h3.844q0.672 0 1.109 0.445t0.438 1.117q0 0.703-0.445 1.18t-1.102 0.477h-3.844q-0.672 0-1.156-0.492t-0.484-1.164zM5.484 3.688q0-0.703 0.422-1.125 0.5-0.5 1.172-0.5 0.719 0 1.125 0.5l2.703 2.719q1.156 1.094 0 2.25-0.469 0.469-1.078 0.469-0.547 0-1.125-0.469l-2.797-2.719q-0.422-0.453-0.422-1.125zM8.766 25.813q0-0.656 0.5-1.156 0.453-0.453 1.125-0.453h5.359q0.266 0 0.469 0.125l3.922 3.703 3.984-3.703q0.172-0.125 0.484-0.125h5.5q0.672 0 1.148 0.469t0.477 1.141-0.477 1.148-1.148 0.477h-4.469l-5.234 4.734q-0.313 0.219-0.547 0l-5.141-4.734h-4.328q-0.672 0-1.148-0.477t-0.477-1.148zM10.328 16.781q0 2.484 0.969 4.375 0.141 0.266 0.453 0.266h3.109q0.203 0 0.25-0.125t-0.125-0.297q-1.484-1.859-1.484-4.219 0-2.75 1.969-4.68t4.75-1.93q2.75 0 4.711 1.938t1.961 4.672q0 2.359-1.484 4.219-0.172 0.172-0.125 0.297t0.25 0.125h3.141q0.328 0 0.406-0.266 1.031-1.953 1.031-4.375 0-1.984-0.789-3.82t-2.117-3.164-3.156-2.117-3.828-0.789-3.828 0.789-3.156 2.117-2.117 3.164-0.789 3.82zM18.594 2.094v-3.875q0-0.672 0.477-1.148t1.148-0.477 1.148 0.477 0.477 1.148v3.875q0 0.672-0.477 1.148t-1.148 0.477-1.148-0.477-0.477-1.148zM29.047 6.406q0-0.703 0.438-1.125l2.719-2.719q0.406-0.5 1.125-0.5 0.688 0 1.141 0.477t0.453 1.148q0 0.703-0.422 1.125l-2.766 2.719q-0.578 0.469-1.156 0.469-0.656 0-1.094-0.461t-0.438-1.133zM33.359 16.781q0-0.672 0.438-1.117t1.109-0.445h3.859q0.672 0 1.148 0.453t0.477 1.109q0 0.672-0.477 1.164t-1.148 0.492h-3.859q-0.656 0-1.102-0.477t-0.445-1.18z"></path>
</svg>
