<?xml version="1.0" encoding="utf-8"?>
<!-- Generated by IcoMoon.io -->
<!DOCTYPE svg PUBLIC "-//W3C//DTD SVG 1.1//EN" "http://www.w3.org/Graphics/SVG/1.1/DTD/svg11.dtd">
<svg version="1.1" xmlns="http://www.w3.org/2000/svg" xmlns:xlink="http://www.w3.org/1999/xlink" width="11" height="32" viewBox="0 0 11 32">
<path fill="#444444" d="M0 21.281q0-1.344 0.617-2.508t1.742-1.945v-10.438q0-1.266 0.867-2.141t2.133-0.875 2.141 0.875 0.875 2.141v10.438q1.109 0.781 1.727 1.945t0.617 2.508q0 2.234-1.563 3.797t-3.797 1.563-3.797-1.563-1.563-3.797zM1.844 21.281q0 1.469 1.031 2.508t2.484 1.039q1.469 0 2.531-1.055t1.063-2.492q0-0.984-0.516-1.82t-1.391-1.305l-0.297-0.141q-0.156-0.063-0.156-0.313v-11.313q0-0.5-0.352-0.844t-0.883-0.344q-0.516 0-0.875 0.344t-0.359 0.844v11.313q0 0.25-0.141 0.313l-0.313 0.141q-0.859 0.469-1.344 1.297t-0.484 1.828zM2.656 21.281q0 1.125 0.766 1.906t1.859 0.781 1.891-0.789 0.797-1.898q0-1-0.688-1.766t-1.656-0.891v-7.734q0-0.094-0.109-0.203t-0.234-0.109-0.211 0.094-0.086 0.219v7.734q-0.969 0.125-1.648 0.891t-0.68 1.766z"></path>
</svg>
