<?xml version="1.0" encoding="utf-8"?>
<!-- Generated by IcoMoon.io -->
<!DOCTYPE svg PUBLIC "-//W3C//DTD SVG 1.1//EN" "http://www.w3.org/Graphics/SVG/1.1/DTD/svg11.dtd">
<svg version="1.1" xmlns="http://www.w3.org/2000/svg" xmlns:xlink="http://www.w3.org/1999/xlink" width="35" height="32" viewBox="0 0 35 32">
<path fill="#444444" d="M0 19.188q0 2.766 1.656 4.953t4.297 2.984l-1.094 2.797q-0.078 0.359 0.234 0.359h3.547l-1.641 7.172h0.469l6.531-9.578q0.094-0.109 0.023-0.227t-0.242-0.117h-3.625l4.125-7.734q0.172-0.359-0.234-0.359h-4.906q-0.234 0-0.391 0.25l-1.781 4.781q-1.781-0.453-2.953-1.938t-1.172-3.344q0-2.078 1.414-3.609t3.508-1.781l0.875-0.109q0.328 0 0.328-0.297l0.109-0.844q0.266-2.703 2.289-4.531t4.758-1.828q2.719 0 4.758 1.828t2.336 4.531l0.109 0.969q0 0.281 0.297 0.281h2.672q2.266 0 3.875 1.586t1.609 3.805q0 2.125-1.484 3.68t-3.672 1.727q-0.328 0-0.328 0.297v2.281q0 0.281 0.328 0.281 3.328-0.109 5.648-2.516t2.32-5.75q0-2.25-1.109-4.148t-3.023-3-4.164-1.102h-0.516q-0.828-3.328-3.523-5.438t-6.133-2.109q-3.531 0-6.266 2.188t-3.5 5.594q-2.766 0.641-4.563 2.883t-1.797 5.133zM13.578 35.375q0 0.984 0.969 1.281 0.031 0 0.188 0.023t0.234 0.023q0.422 0 0.82-0.242t0.539-0.805l3.75-14.484q0.156-0.594-0.109-1.078t-0.828-0.656q-0.422-0.047-0.438-0.047-0.406 0-0.789 0.25t-0.523 0.75l-3.766 14.531q-0.047 0.203-0.047 0.453zM20.5 30.266q0 0.328 0.172 0.625 0.344 0.547 0.844 0.734 0.266 0.078 0.5 0.078t0.531-0.125q0.516-0.219 0.703-0.953l2.406-9.453q0.078-0.359 0.078-0.453 0-0.375-0.266-0.75t-0.766-0.531q-0.422-0.047-0.438-0.047-0.422 0-0.781 0.242t-0.5 0.758l-2.438 9.5q0 0.047-0.023 0.18t-0.023 0.195z"></path>
</svg>
