<?xml version="1.0" encoding="utf-8"?>
<!-- Generated by IcoMoon.io -->
<!DOCTYPE svg PUBLIC "-//W3C//DTD SVG 1.1//EN" "http://www.w3.org/Graphics/SVG/1.1/DTD/svg11.dtd">
<svg version="1.1" xmlns="http://www.w3.org/2000/svg" xmlns:xlink="http://www.w3.org/1999/xlink" width="23" height="32" viewBox="0 0 23 32">
<path fill="#444444" d="M0 16.203q0 1.109 1.156 1.891 2.109 1.484 6.375 1.484 1.922 0 3.563-0.328 1.734-0.375 2.828-1.172t1.094-1.875q0-0.328-0.125-0.656 2.219-0.547 3.484-1.477t1.266-2.133q0-0.297-0.094-0.641 3.656-1.297 3.656-3.5 0-1.406-1.594-2.5-3.125-2.078-9.156-2.078-2.844 0-5.156 0.5-2.484 0.5-4.023 1.594t-1.539 2.484q0 0.828 0.516 1.516-1.891 1.078-1.891 2.625 0 1.203 1.172 2.109-1.531 0.891-1.531 2.156zM0.641 21q0 1.172 1.445 1.836t3.633 0.664q2.219 0 3.672-0.664t1.453-1.836q0-0.438-0.281-0.734t-0.719-0.297q-0.359 0-0.641 0.25t-0.359 0.609q-0.313 0.25-1.172 0.461t-1.953 0.211q-1.766 0-2.859-0.5 0.25-0.25 0.273-0.641t-0.164-0.656q-0.25-0.344-0.648-0.422t-0.742 0.141q-0.938 0.625-0.938 1.578zM2 16.203q0-0.016 0.203-0.188 0.141-0.141 0.602-0.359t1.023-0.375l0.125-0.063q2.594 0.859 6.047 0.859 1.516 0 2.75-0.172l0.281 0.25q-0.141 0.25-0.672 0.531-0.641 0.344-1.984 0.609t-2.844 0.266-2.852-0.266-2.008-0.609q-0.531-0.234-0.672-0.484zM2.125 25.188q0 1.016 1.148 1.563t2.852 0.547q1.734 0 2.906-0.547t1.172-1.563q0-0.406-0.297-0.719t-0.703-0.313q-0.75 0-0.984 0.766-0.625 0.391-2.094 0.391-1.281 0-2.047-0.391-0.234-0.766-0.984-0.766-0.406 0-0.688 0.297t-0.281 0.734zM2.344 11.938q0-0.125 0.156-0.297 0.391-0.484 1.516-0.938 3.078 1.641 8.438 1.641 2.734 0 5.141-0.5v0.094q0 0.234-0.297 0.484-0.656 0.578-2.438 1.094-1.938 0.578-4.859 0.578-2.938 0-4.875-0.578-1.859-0.516-2.484-1.094-0.297-0.234-0.297-0.484zM3.734 7.797q0-0.281 0.375-0.625 0.719-0.672 2.859-1.297 2.281-0.672 5.484-0.672 3.219 0 5.531 0.672 2.156 0.625 2.859 1.297 0.359 0.359 0.359 0.625t-0.359 0.594q-0.703 0.672-2.859 1.313-2.313 0.672-5.531 0.672-3.203 0-5.484-0.672-2.156-0.625-2.859-1.313-0.375-0.328-0.375-0.594z"></path>
</svg>
