<?xml version="1.0" encoding="utf-8"?>
<!-- Generated by IcoMoon.io -->
<!DOCTYPE svg PUBLIC "-//W3C//DTD SVG 1.1//EN" "http://www.w3.org/Graphics/SVG/1.1/DTD/svg11.dtd">
<svg version="1.1" xmlns="http://www.w3.org/2000/svg" xmlns:xlink="http://www.w3.org/1999/xlink" width="35" height="32" viewBox="0 0 35 32">
<path fill="#444444" d="M0.047 15.422q0.031-0.844 0.828-2.633t2.219-3.836q4.656-6.516 13.141-6.875v-0.734q0-0.516 0.352-0.836t0.805-0.32q0.469 0 0.828 0.32t0.359 0.836v0.734q2.453 0.109 4.578 0.75t3.695 1.664 2.688 2.109 2.008 2.352q1.031 1.484 1.766 3.164t1.016 2.68 0.297 1.016v0.313q0 0.438-0.352 0.727t-0.82 0.289q-0.781 0-1-0.438-1.953-2.188-4.25-2.188-0.859 0.047-1.719 0.383t-1.375 0.695-0.969 0.727-0.469 0.383q-0.469 0.438-0.891 0.438-0.563 0-0.859-0.297-1.813-1.813-3.344-2.203v12.625t-0.008 0.281-0.023 0.344-0.063 0.383-0.102 0.422-0.148 0.438-0.211 0.445-0.281 0.43-0.352 0.414q-1.266 1.469-3.641 1.469-2.531 0-3.797-1.469-0.297-0.297-0.523-0.641t-0.344-0.68-0.203-0.641-0.102-0.602-0.023-0.492 0.008-0.391 0.016-0.211q0-0.453 0.391-0.781t0.922-0.234q0.438 0 0.734 0.383t0.297 0.93q-0.156 1.016 0.422 1.75 0.516 0.734 2.203 0.734 1.297 0 1.891-0.594 0.328-0.328 0.477-0.797t0.133-0.781l-0.016-0.313v-12.266q-1.828 0.438-3.219 1.906-0.109 0.203-0.391 0.383t-0.5 0.18q-0.438 0-1-0.563-2-2.234-4.25-2.188-1 0.016-1.875 0.328t-1.313 0.633-0.906 0.75-0.531 0.477q-0.516 0.359-0.852 0.359t-0.805-0.281q-0.406-0.25-0.492-0.531t-0.055-0.828zM3.531 13.047q1.688-0.891 3.203-0.891h0.141q2.875 0 5.25 2.219 0.953-0.828 2.313-1.469t2.953-0.75h0.141q2.875 0 5.25 2.219 0.953-0.828 2.313-1.469t2.953-0.75h0.156q1.406 0 2.922 0.734-1.109-2.141-1.469-2.766-4.484-5.844-12.391-5.844-3.953 0-7.063 1.5t-5.078 4.344q-0.625 0.875-1.594 2.922z"></path>
</svg>
