<?xml version="1.0" encoding="utf-8"?>
<!-- Generated by IcoMoon.io -->
<!DOCTYPE svg PUBLIC "-//W3C//DTD SVG 1.1//EN" "http://www.w3.org/Graphics/SVG/1.1/DTD/svg11.dtd">
<svg version="1.1" xmlns="http://www.w3.org/2000/svg" xmlns:xlink="http://www.w3.org/1999/xlink" width="32" height="32" viewBox="0 0 32 32">
<path fill="#444444" d="M27.2 16q0-3.040-1.504-5.624t-4.080-4.080-5.616-1.496q-2.288 0-4.36 0.888t-3.568 2.384-2.384 3.568-0.888 4.36 0.888 4.36 2.384 3.568 3.568 2.384 4.36 0.888q3.040 0 5.616-1.496t4.080-4.080 1.504-5.624zM17.12 18.368h-2.496v-0.688q0-0.896 0.384-1.568 0.352-0.624 1.408-1.424 0.976-0.688 1.296-1.136 0.32-0.416 0.32-0.992 0-0.592-0.448-0.928-0.448-0.304-1.264-0.304-1.408 0-3.2 0.912l-1.024-2.048q2.096-1.184 4.432-1.184 1.92 0 3.072 0.928 1.136 0.928 1.136 2.48 0 1.056-0.464 1.776-0.432 0.72-1.776 1.696-0.88 0.64-1.136 1.008-0.24 0.352-0.24 0.912v0.56zM14.768 22.752q-0.432-0.416-0.432-1.168 0-0.8 0.416-1.2t1.232-0.4q0.752 0 1.2 0.416 0.432 0.416 0.432 1.184 0 0.752-0.432 1.152-0.432 0.432-1.2 0.432t-1.216-0.416z"></path>
</svg>
