<?xml version="1.0" encoding="utf-8"?>
<!-- Generated by IcoMoon.io -->
<!DOCTYPE svg PUBLIC "-//W3C//DTD SVG 1.1//EN" "http://www.w3.org/Graphics/SVG/1.1/DTD/svg11.dtd">
<svg version="1.1" xmlns="http://www.w3.org/2000/svg" xmlns:xlink="http://www.w3.org/1999/xlink" width="11" height="32" viewBox="0 0 11 32">
<path fill="#444444" d="M0.016 11.594q-0.016 0.563 0.367 0.961t0.945 0.383q0.547 0.031 0.938-0.391l1.766-1.75v10.984q-0.016 0.563 0.383 0.938t0.977 0.359q0.547 0.031 0.953-0.344t0.422-0.938v-10.984l1.75 1.75q0.375 0.391 0.938 0.391 0.578 0 0.961-0.383t0.383-0.945q-0.031-0.578-0.422-0.906l-3.984-4.094q-0.391-0.375-0.984-0.422-0.594 0.031-0.984 0.438l-4 4.063q-0.406 0.344-0.406 0.891z"></path>
</svg>
