<?xml version="1.0" encoding="utf-8"?>
<!-- Generated by IcoMoon.io -->
<!DOCTYPE svg PUBLIC "-//W3C//DTD SVG 1.1//EN" "http://www.w3.org/Graphics/SVG/1.1/DTD/svg11.dtd">
<svg version="1.1" xmlns="http://www.w3.org/2000/svg" xmlns:xlink="http://www.w3.org/1999/xlink" width="24" height="32" viewBox="0 0 24 32">
<path fill="#444444" d="M0 15.469q0-3.266 1.617-6.039t4.383-4.383 6.016-1.609q2.438 0 4.656 0.953t3.828 2.563 2.563 3.836 0.953 4.68q0 2.438-0.953 4.664t-2.563 3.828-3.828 2.547-4.656 0.945q-2.453 0-4.68-0.953t-3.836-2.563-2.555-3.82-0.945-4.648zM2.641 15.469q0 3.797 2.766 6.594 2.766 2.766 6.609 2.766 2.531 0 4.688-1.258t3.422-3.414 1.266-4.688-1.266-4.695-3.422-3.422-4.688-1.258-4.688 1.258-3.422 3.422-1.266 4.695zM7.859 19.5l4-9.375q0.031-0.172 0.156-0.172t0.156 0.172l3.984 9.375q0.063 0.172-0.023 0.266t-0.258 0l-3.703-1.391q-0.156-0.063-0.313 0l-3.734 1.391q-0.156 0.094-0.25 0t-0.016-0.266z"></path>
</svg>
