<?xml version="1.0" encoding="utf-8"?>
<!-- Generated by IcoMoon.io -->
<!DOCTYPE svg PUBLIC "-//W3C//DTD SVG 1.1//EN" "http://www.w3.org/Graphics/SVG/1.1/DTD/svg11.dtd">
<svg version="1.1" xmlns="http://www.w3.org/2000/svg" xmlns:xlink="http://www.w3.org/1999/xlink" width="31" height="32" viewBox="0 0 31 32">
<path fill="#444444" d="M0 16q0 0.766 0.578 1.281 0.547 0.547 1.297 0.547h12.609q0.828 0 1.461 0.609t0.633 1.469-0.633 1.484-1.461 0.625-1.469-0.641q-0.625-0.547-1.297-0.547-0.766 0-1.297 0.523t-0.531 1.289q0 0.75 0.531 1.281 1.703 1.703 4.063 1.703t4.023-1.68 1.664-4.039q0-2.375-1.664-4.063t-4.023-1.688h-12.609q-0.75 0-1.313 0.547t-0.563 1.297zM0 9.547q0 0.719 0.578 1.234 0.531 0.531 1.297 0.531h23.516q2.359 0 4.039-1.68t1.68-4.039-1.672-4.016-4.047-1.656q-2.422 0-4.031 1.625-0.516 0.531-0.516 1.328 0 0.781 0.5 1.273t1.266 0.492q0.781 0 1.344-0.516 0.594-0.594 1.438-0.594t1.461 0.602 0.617 1.461-0.617 1.484-1.461 0.625h-23.516q-0.75 0-1.313 0.547t-0.563 1.297zM21.625 27.422h4.109l2.75-13.297h-4.109z"></path>
</svg>
