<?xml version="1.0" encoding="utf-8"?>
<!-- Generated by IcoMoon.io -->
<!DOCTYPE svg PUBLIC "-//W3C//DTD SVG 1.1//EN" "http://www.w3.org/Graphics/SVG/1.1/DTD/svg11.dtd">
<svg version="1.1" xmlns="http://www.w3.org/2000/svg" xmlns:xlink="http://www.w3.org/1999/xlink" width="33" height="32" viewBox="0 0 33 32">
<path fill="#444444" d="M0 15.969q0 0.766 0.578 1.281 0.531 0.547 1.297 0.547h12.531q0.828 0 1.453 0.602t0.625 1.445q0 0.859-0.633 1.484t-1.445 0.625-1.453-0.641q-0.578-0.516-1.313-0.516-0.766 0-1.281 0.508t-0.516 1.258q0 0.766 0.531 1.281 1.672 1.703 4.031 1.703 2.344 0 4.008-1.68t1.664-4.023-1.664-4.023-4.008-1.68h-12.531q-0.75 0-1.313 0.539t-0.563 1.289zM0 9.547q0 0.719 0.578 1.234 0.531 0.531 1.297 0.531h23.375q2.359 0 4.031-1.664t1.672-4.023q0-2.344-1.664-3.984t-4.039-1.641q-2.438 0-4.016 1.594-0.5 0.547-0.5 1.313 0 0.781 0.492 1.273t1.273 0.492q0.766 0 1.328-0.5 0.609-0.609 1.422-0.609 0.844 0 1.445 0.602t0.602 1.461q0 0.875-0.602 1.484t-1.445 0.609h-23.375q-0.75 0-1.313 0.539t-0.563 1.289zM21.969 23.938q0.047 0.984 0.469 1.703t1.117 1.109 1.492 0.57 1.734 0.18q1.422 0 2.586-0.531t1.883-1.352 1.211-1.883 0.688-2.055 0.195-1.914q0-2.641-1.352-4.055t-3.617-1.414q-2.328 0-3.938 1.422t-1.609 3.734q0 1.656 1.055 2.703t2.711 1.047q0.891 0 1.742-0.359t1.195-0.906h0.047q-0.297 1.188-0.969 2.031t-1.766 0.844q-0.719 0-0.984-0.172-0.313-0.266-0.406-0.703h-3.484zM26.25 19.141q0-0.781 0.484-1.352t1.438-0.57q0.844 0 1.289 0.43t0.445 1.273q0 0.234-0.094 0.516t-0.297 0.594-0.609 0.516-0.938 0.203-0.898-0.188-0.531-0.477-0.227-0.523-0.063-0.422z"></path>
</svg>
