<?xml version="1.0" encoding="utf-8"?>
<!-- Generated by IcoMoon.io -->
<!DOCTYPE svg PUBLIC "-//W3C//DTD SVG 1.1//EN" "http://www.w3.org/Graphics/SVG/1.1/DTD/svg11.dtd">
<svg version="1.1" xmlns="http://www.w3.org/2000/svg" xmlns:xlink="http://www.w3.org/1999/xlink" width="35" height="32" viewBox="0 0 35 32">
<path fill="#444444" d="M0 16.828q0-0.563 0.391-0.938t0.953-0.375h20.141q0.547 0 0.906 0.367t0.359 0.945q0 0.547-0.359 0.906t-0.906 0.359h-20.141q-0.563 0-0.953-0.359t-0.391-0.906zM4.031 12q0-0.547 0.391-0.922 0.375-0.375 0.938-0.375h20.156q0.531 0 0.898 0.375t0.367 0.922-0.367 0.93-0.898 0.383h-20.156q-0.547 0-0.938-0.383t-0.391-0.93zM6.719 21.563q0-0.531 0.406-0.906 0.359-0.359 0.906-0.359h20.172q0.563 0 0.938 0.359t0.375 0.906-0.383 0.938-0.93 0.391h-20.172q-0.547 0-0.93-0.391t-0.383-0.938zM24.359 16.828q0-0.578 0.367-0.945t0.945-0.367h7.531q0.578 0 0.945 0.375t0.367 0.938q0 0.547-0.375 0.906t-0.938 0.359h-7.531q-0.578 0-0.945-0.359t-0.367-0.906z"></path>
</svg>
