<?xml version="1.0" encoding="utf-8"?>
<!-- Generated by IcoMoon.io -->
<!DOCTYPE svg PUBLIC "-//W3C//DTD SVG 1.1//EN" "http://www.w3.org/Graphics/SVG/1.1/DTD/svg11.dtd">
<svg version="1.1" xmlns="http://www.w3.org/2000/svg" xmlns:xlink="http://www.w3.org/1999/xlink" width="34" height="32" viewBox="0 0 34 32">
<path fill="#444444" d="M0.094 16.063q0 0.766 0.563 1.281 0.594 0.563 1.313 0.563h12.609q0.828 0 1.453 0.594t0.625 1.453q0 0.875-0.625 1.5t-1.453 0.625-1.469-0.641q-0.578-0.531-1.313-0.531-0.766 0-1.289 0.516t-0.523 1.266q0 0.766 0.531 1.281 1.703 1.703 4.063 1.703t4.023-1.68 1.664-4.039-1.672-4.047-4.016-1.688h-12.609q-0.75 0-1.313 0.547t-0.563 1.297zM0.094 9.594q0 0.75 0.563 1.25 0.531 0.531 1.313 0.531h23.516q2.359 0 4.039-1.68t1.68-4.039-1.672-4.008-4.047-1.648q-2.453 0-4.031 1.625-0.531 0.547-0.531 1.297 0 0.781 0.508 1.273t1.273 0.492 1.328-0.5q0.594-0.594 1.453-0.594 0.844 0 1.453 0.602t0.609 1.461q0 0.875-0.609 1.5t-1.453 0.625h-23.516q-0.75 0-1.313 0.531t-0.563 1.281zM21.797 24.922h5.953l-0.531 2.578h3.672l0.594-2.578h1.688l0.594-3.172h-1.672l1.5-7.234h-3.703l-7.375 6.938zM25.547 21.75l3.734-3.688h0.047l-0.813 3.688h-2.969z"></path>
</svg>
