<?xml version="1.0" encoding="utf-8"?>
<!-- Generated by IcoMoon.io -->
<!DOCTYPE svg PUBLIC "-//W3C//DTD SVG 1.1//EN" "http://www.w3.org/Graphics/SVG/1.1/DTD/svg11.dtd">
<svg version="1.1" xmlns="http://www.w3.org/2000/svg" xmlns:xlink="http://www.w3.org/1999/xlink" width="24" height="32" viewBox="0 0 24 32">
<path fill="#444444" d="M23.087 10.834q1.25 3.017 0.817 6.198t-2.372 5.726-4.942 3.789q-2.252 0.933-4.667 0.901t-4.517-0.902-3.835-2.563-2.671-3.959q-0.933-2.252-0.904-4.674t0.902-4.517 2.562-3.818 3.94-2.655q2.266-0.939 4.688-0.91t4.525 0.9 3.822 2.552 2.652 3.933zM20.647 11.845q-1.453-3.508-5.078-5.033-3.613-1.497-7.165-0.026-2.339 0.969-3.849 2.956t-1.855 4.464 0.625 4.815 2.966 3.854 4.471 1.852 4.812-0.632 3.849-2.956 1.852-4.471-0.628-4.822zM14.283 10.117l-0.108 10.192q0.037 0.171-0.079 0.219t-0.21-0.099l-7.269-7.137q-0.124-0.135-0.080-0.254t0.238-0.099l3.953-0.132q0.168-0.002 0.289-0.12l2.918-2.714q0.108-0.146 0.231-0.096t0.116 0.239z"></path>
</svg>
