<?xml version="1.0" encoding="utf-8"?>
<!-- Generated by IcoMoon.io -->
<!DOCTYPE svg PUBLIC "-//W3C//DTD SVG 1.1//EN" "http://www.w3.org/Graphics/SVG/1.1/DTD/svg11.dtd">
<svg version="1.1" xmlns="http://www.w3.org/2000/svg" xmlns:xlink="http://www.w3.org/1999/xlink" width="24" height="32" viewBox="0 0 24 32">
<path fill="#444444" d="M0 15.406q0-2.438 0.945-4.664t2.547-3.82 3.813-2.547 4.648-0.953q2.453 0 4.672 0.953t3.828 2.555 2.563 3.82 0.953 4.641q0 2.438-0.953 4.664t-2.563 3.836-3.828 2.555-4.656 0.945q-2.422 0-4.641-0.945t-3.82-2.547-2.555-3.82-0.953-4.672zM2.625 15.406q0 2.531 1.258 4.68t3.414 3.391 4.672 1.242q1.891 0 3.625-0.742t2.992-1.992 2-2.977 0.742-3.617q0-3.813-2.781-6.594-2.781-2.75-6.594-2.75-1.891 0-3.617 0.75t-2.977 2-1.992 2.984-0.742 3.625zM5.859 15.281q0-0.156 0.156-0.219l3.609-1.625q0.156-0.078 0.234-0.234l1.609-3.578q0.141-0.188 0.25-0.188 0.125 0 0.172 0.188l3.875 9.453q0.031 0.172-0.031 0.234t-0.25 0.031l-9.469-3.875q-0.156-0.047-0.156-0.188z"></path>
</svg>
