<?xml version="1.0" encoding="utf-8"?>
<!-- Generated by IcoMoon.io -->
<!DOCTYPE svg PUBLIC "-//W3C//DTD SVG 1.1//EN" "http://www.w3.org/Graphics/SVG/1.1/DTD/svg11.dtd">
<svg version="1.1" xmlns="http://www.w3.org/2000/svg" xmlns:xlink="http://www.w3.org/1999/xlink" width="40" height="32" viewBox="0 0 40 32">
<path fill="#444444" d="M0 15.969q0 0.766 0.578 1.281 0.531 0.547 1.297 0.547h12.531q0.828 0 1.453 0.602t0.625 1.445q0 0.859-0.633 1.484t-1.445 0.625-1.453-0.641q-0.578-0.516-1.313-0.516-0.766 0-1.281 0.508t-0.516 1.258q0 0.766 0.531 1.281 1.672 1.703 4.031 1.703 2.344 0 4.008-1.68t1.664-4.023-1.664-4.023-4.008-1.68h-12.531q-0.75 0-1.313 0.539t-0.563 1.289zM0 9.547q0 0.719 0.578 1.234 0.531 0.531 1.297 0.531h23.375q2.359 0 4.031-1.664t1.672-4.023q0-2.344-1.664-3.984t-4.039-1.641q-2.438 0-4.016 1.594-0.5 0.547-0.5 1.313 0 0.781 0.492 1.273t1.273 0.492q0.766 0 1.328-0.5 0.609-0.609 1.422-0.609 0.844 0 1.445 0.602t0.602 1.461q0 0.875-0.602 1.484t-1.445 0.609h-23.375q-0.75 0-1.313 0.539t-0.563 1.289zM21.5 27.328h4.094l2.734-13.234h-4.078zM28.484 22.469q0 1.297 0.406 2.297t1.094 1.578 1.508 0.867 1.742 0.289q1.531 0 2.734-0.625t1.891-1.547 1.141-2.086 0.609-2.109 0.156-1.758q0-2.422-1.328-3.75t-3.547-1.328q-2.578 0-4.492 2.281t-1.914 5.891zM31.906 22.625q0-0.391 0.070-0.977t0.273-1.398 0.508-1.492 0.859-1.156 1.242-0.477q0.672 0 1.078 0.453t0.406 1.313q0 2.406-0.836 4.086t-2.055 1.68q-1.547 0-1.547-2.031z"></path>
</svg>
