<?xml version="1.0" encoding="utf-8"?>
<!-- Generated by IcoMoon.io -->
<!DOCTYPE svg PUBLIC "-//W3C//DTD SVG 1.1//EN" "http://www.w3.org/Graphics/SVG/1.1/DTD/svg11.dtd">
<svg version="1.1" xmlns="http://www.w3.org/2000/svg" xmlns:xlink="http://www.w3.org/1999/xlink" width="24" height="32" viewBox="0 0 24 32">
<path fill="#444444" d="M0 15.453q0-2.438 0.961-4.664t2.57-3.836 3.828-2.555 4.656-0.945 4.664 0.945 3.836 2.555 2.563 3.828 0.953 4.672-0.953 4.672-2.563 3.82-3.836 2.547-4.664 0.945-4.664-0.953-3.836-2.563-2.563-3.828-0.953-4.641zM2.656 15.453q0 3.828 2.766 6.594 2.75 2.75 6.594 2.75 2.547 0 4.711-1.258t3.422-3.406 1.258-4.68q0-1.891-0.742-3.625t-2.008-2.992-3-2-3.641-0.742q-1.891 0-3.617 0.742t-2.984 2-2.008 2.992-0.75 3.625zM7.875 11.406q-0.078-0.172 0.016-0.258t0.25-0.008l3.719 1.391q0.156 0.063 0.359 0l3.672-1.391q0.156-0.078 0.25 0.008t0.031 0.258l-3.953 9.359q-0.047 0.156-0.203 0.156-0.109 0-0.156-0.156z"></path>
</svg>
