<?xml version="1.0" encoding="utf-8"?>
<!-- Generated by IcoMoon.io -->
<!DOCTYPE svg PUBLIC "-//W3C//DTD SVG 1.1//EN" "http://www.w3.org/Graphics/SVG/1.1/DTD/svg11.dtd">
<svg version="1.1" xmlns="http://www.w3.org/2000/svg" xmlns:xlink="http://www.w3.org/1999/xlink" width="40" height="32" viewBox="0 0 40 32">
<path fill="#444444" d="M0 16.063q0 0.766 0.578 1.281 0.563 0.563 1.297 0.563h12.609q0.844 0 1.469 0.602t0.625 1.461-0.633 1.484-1.461 0.625-1.469-0.641q-0.578-0.516-1.297-0.516-0.781 0-1.305 0.508t-0.523 1.273q0 0.781 0.531 1.297 1.688 1.688 4.063 1.688 2.359 0 4.023-1.68t1.664-4.039-1.672-4.055-4.016-1.695h-12.609q-0.75 0-1.313 0.547t-0.563 1.297zM0 9.625q0 0.703 0.578 1.219 0.547 0.547 1.297 0.547h23.516q2.359 0 4.039-1.68t1.68-4.039-1.672-4.016-4.047-1.656q-2.438 0-4.031 1.641-0.516 0.516-0.516 1.297t0.5 1.273 1.266 0.492q0.781 0 1.344-0.5 0.594-0.609 1.438-0.609t1.461 0.602 0.617 1.477q0 0.859-0.617 1.484t-1.461 0.625h-23.516q-0.75 0-1.313 0.547t-0.563 1.297zM21.625 27.5h4.109l2.75-13.313h-4.109zM27.547 27.5h11.031l0.672-3.172h-6.109v-0.031q0.5-0.234 1.438-0.609t1.578-0.641 1.438-0.734 1.281-0.961 0.828-1.25 0.344-1.664q0-1.391-0.719-2.328t-1.797-1.328-2.422-0.391q-2.422 0-3.953 1.305t-1.828 3.852h3.453q0-0.938 0.547-1.578t1.547-0.641q0.75 0 1.117 0.398t0.367 0.914q0 0.813-0.547 1.266t-2.078 1.203l-0.047 0.023t-0.047 0.016-0.047 0.023q-2.219 1.063-2.75 1.375-1.984 1.188-2.75 2.906-0.406 0.906-0.547 2.047z"></path>
</svg>
