<?xml version="1.0" encoding="utf-8"?>
<!-- Generated by IcoMoon.io -->
<!DOCTYPE svg PUBLIC "-//W3C//DTD SVG 1.1//EN" "http://www.w3.org/Graphics/SVG/1.1/DTD/svg11.dtd">
<svg version="1.1" xmlns="http://www.w3.org/2000/svg" xmlns:xlink="http://www.w3.org/1999/xlink" width="34" height="32" viewBox="0 0 34 32">
<path fill="#444444" d="M0 16q0 0.75 0.578 1.266 0.531 0.547 1.297 0.547h12.531q0.828 0 1.461 0.609t0.633 1.453q0 0.859-0.633 1.477t-1.461 0.617q-0.813 0-1.453-0.641-0.563-0.516-1.297-0.516-0.766 0-1.289 0.508t-0.523 1.258q0 0.766 0.531 1.297 1.688 1.688 4.031 1.688 2.359 0 4.023-1.672t1.664-4.016-1.672-4.031-4.016-1.688h-12.531q-0.75 0-1.313 0.547t-0.563 1.297zM0 9.563q0 0.719 0.578 1.234 0.531 0.531 1.297 0.531h23.391q2.359 0 4.031-1.672t1.672-4.016-1.664-3.992-4.039-1.648q-2.438 0-4.016 1.625-0.5 0.516-0.5 1.297t0.492 1.266 1.258 0.484q0.781 0 1.328-0.5 0.594-0.594 1.438-0.594 0.828 0 1.445 0.602t0.617 1.461-0.617 1.484-1.445 0.625h-23.391q-0.75 0-1.313 0.531t-0.563 1.281zM21.922 23.297q-0.063 0.797 0.195 1.523t0.828 1.344 1.625 0.984 2.477 0.367q1.438 0 2.555-0.383t1.742-0.945 1.023-1.313 0.531-1.367 0.133-1.227q0-1.672-1.070-2.688t-2.758-1.016q-1.734 0-2.422 0.719h-0.031l0.578-1.703h5.75l0.656-3.141h-8.734l-2.422 7.438h3.328q0.406-0.844 1.844-0.844 0.797 0 1.281 0.414t0.484 1.242q0 0.844-0.578 1.359t-1.672 0.516q-0.781 0-1.219-0.281-0.531-0.281-0.594-1h-3.531z"></path>
</svg>
