<?xml version="1.0" encoding="utf-8"?>
<!-- Generated by IcoMoon.io -->
<!DOCTYPE svg PUBLIC "-//W3C//DTD SVG 1.1//EN" "http://www.w3.org/Graphics/SVG/1.1/DTD/svg11.dtd">
<svg version="1.1" xmlns="http://www.w3.org/2000/svg" xmlns:xlink="http://www.w3.org/1999/xlink" width="34" height="32" viewBox="0 0 34 32">
<path fill="#444444" d="M0 15.969q0 0.766 0.578 1.281 0.531 0.547 1.297 0.547h12.531q0.828 0 1.453 0.602t0.625 1.445q0 0.859-0.633 1.484t-1.445 0.625-1.453-0.641q-0.578-0.516-1.313-0.516-0.766 0-1.281 0.508t-0.516 1.258q0 0.766 0.531 1.281 1.672 1.703 4.031 1.703 2.344 0 4.008-1.68t1.664-4.023-1.664-4.023-4.008-1.68h-12.531q-0.75 0-1.313 0.539t-0.563 1.289zM0 9.547q0 0.719 0.578 1.234 0.531 0.531 1.297 0.531h23.375q2.359 0 4.031-1.664t1.672-4.023q0-2.344-1.664-3.984t-4.039-1.641q-2.438 0-4.016 1.594-0.5 0.547-0.5 1.313 0 0.781 0.492 1.273t1.273 0.492q0.766 0 1.328-0.5 0.609-0.609 1.422-0.609 0.844 0 1.445 0.602t0.602 1.461q0 0.875-0.602 1.484t-1.445 0.609h-23.375q-0.75 0-1.313 0.539t-0.563 1.289zM21.797 23.781q0 1.828 1.43 2.773t3.852 0.945q1.484 0 2.625-0.297t1.781-0.734 1.039-1.039 0.523-1.102 0.125-1.016q0-1.031-0.594-1.773t-1.563-0.945l0.031-0.047v0.016q1.125-0.156 1.859-0.992t0.734-1.977q0-0.953-0.438-1.633t-1.188-1.023-1.531-0.492-1.688-0.148q-1.188 0-2.141 0.234t-1.547 0.617-0.984 0.891-0.547 1.008-0.156 1.031q0 0.859 0.453 1.5t1.25 0.891v0.047q-1.406 0.156-2.367 1.023t-0.961 2.242zM25.328 23.406q0-0.875 0.703-1.281t1.688-0.406q1.016 0 1.477 0.461t0.461 0.992v0.219q0 0.703-0.633 1.063t-1.617 0.359l0.047-0.016q-0.344 0-0.672-0.047t-0.68-0.188-0.563-0.438-0.211-0.719zM26.594 18.281q0-0.797 0.617-1.156t1.492-0.359q0.75 0 1.273 0.336t0.523 1.055q0 0.188-0.078 0.391t-0.281 0.445-0.656 0.398-1.094 0.156q-1 0-1.398-0.383t-0.398-0.883z"></path>
</svg>
