<?xml version="1.0" encoding="utf-8"?>
<!-- Generated by IcoMoon.io -->
<!DOCTYPE svg PUBLIC "-//W3C//DTD SVG 1.1//EN" "http://www.w3.org/Graphics/SVG/1.1/DTD/svg11.dtd">
<svg version="1.1" xmlns="http://www.w3.org/2000/svg" xmlns:xlink="http://www.w3.org/1999/xlink" width="24" height="32" viewBox="0 0 24 32">
<path fill="#444444" d="M7.429 26.547q-3.017-1.25-4.96-3.805t-2.372-5.726 0.815-6.174q0.933-2.252 2.662-3.937t3.832-2.556 4.525-0.899 4.688 0.91q2.252 0.933 3.944 2.665t2.556 3.832 0.888 4.511-0.909 4.664q-0.939 2.266-2.671 3.959t-3.835 2.563-4.507 0.898-4.656-0.906zM8.44 24.108q3.508 1.453 7.15-0.032 3.613-1.497 5.084-5.048 0.969-2.339 0.632-4.812t-1.845-4.468-3.846-2.963-4.822-0.628-4.471 1.852-2.956 3.849-0.632 4.812 1.852 4.471 3.854 2.966zM14.161 20.829l-7.131-7.283q-0.147-0.095-0.099-0.21t0.219-0.079l10.186-0.093q0.183 0.008 0.236 0.123t-0.099 0.238l-2.702 2.889q-0.118 0.12-0.12 0.289l-0.144 3.982q0.027 0.18-0.096 0.231t-0.251-0.087z"></path>
</svg>
