<?xml version="1.0" encoding="utf-8"?>
<!-- Generated by IcoMoon.io -->
<!DOCTYPE svg PUBLIC "-//W3C//DTD SVG 1.1//EN" "http://www.w3.org/Graphics/SVG/1.1/DTD/svg11.dtd">
<svg version="1.1" xmlns="http://www.w3.org/2000/svg" xmlns:xlink="http://www.w3.org/1999/xlink" width="34" height="32" viewBox="0 0 34 32">
<path fill="#444444" d="M-0.078 15.969q0 0.781 0.563 1.297 0.547 0.531 1.313 0.531h12.531q0.828 0 1.461 0.594t0.633 1.453-0.633 1.484-1.461 0.625q-0.813 0-1.453-0.641-0.594-0.516-1.297-0.516-0.766 0-1.289 0.508t-0.523 1.258q0 0.766 0.516 1.281 1.703 1.703 4.047 1.703 2.359 0 4.016-1.672t1.656-4.031q0-2.344-1.664-4.023t-4.008-1.68h-12.531q-0.766 0-1.32 0.539t-0.555 1.289zM-0.078 9.547q0 0.734 0.563 1.25t1.313 0.516h23.359q2.359 0 4.031-1.664t1.672-4.008q0-2.359-1.664-4t-4.039-1.641q-2.406 0-4 1.594-0.5 0.547-0.5 1.328 0 0.766 0.492 1.258t1.258 0.492q0.781 0 1.344-0.516 0.578-0.578 1.406-0.578 0.844 0 1.469 0.602t0.625 1.461-0.625 1.469-1.469 0.609h-23.359q-0.766 0-1.32 0.539t-0.555 1.289zM22.234 22.5q0 1.297 0.406 2.289t1.094 1.57 1.516 0.859 1.75 0.281q1.281 0 2.344-0.43t1.742-1.156 1.18-1.586 0.758-1.805 0.375-1.719 0.117-1.43q0-2.422-1.336-3.75t-3.539-1.328q-1.234 0-2.383 0.586t-2.047 1.625-1.438 2.602-0.539 3.391zM25.656 22.594q0-0.375 0.070-0.961t0.273-1.391 0.508-1.477 0.859-1.148 1.242-0.477 1.078 0.438 0.391 1.313q0 2.406-0.828 4.086t-2.047 1.68q-1.547 0-1.547-2.063z"></path>
</svg>
