<?xml version="1.0" encoding="utf-8"?>
<!-- Generated by IcoMoon.io -->
<!DOCTYPE svg PUBLIC "-//W3C//DTD SVG 1.1//EN" "http://www.w3.org/Graphics/SVG/1.1/DTD/svg11.dtd">
<svg version="1.1" xmlns="http://www.w3.org/2000/svg" xmlns:xlink="http://www.w3.org/1999/xlink" width="24" height="32" viewBox="0 0 24 32">
<path fill="#444444" d="M16.618 26.53q-3.017 1.25-6.198 0.817t-5.726-2.372-3.789-4.942q-0.933-2.252-0.901-4.667t0.902-4.517 2.563-3.835 3.959-2.671q2.252-0.933 4.674-0.904t4.517 0.902 3.818 2.562 2.655 3.94q0.939 2.266 0.91 4.688t-0.899 4.525-2.552 3.822-3.933 2.652zM15.608 24.090q3.508-1.453 5.033-5.078 1.497-3.613 0.026-7.165-0.969-2.339-2.956-3.849t-4.464-1.855-4.815 0.625-3.854 2.966-1.852 4.471 0.632 4.812 2.956 3.849 4.471 1.852 4.822-0.628zM17.335 17.726l-10.192-0.108q-0.171 0.037-0.219-0.079t0.099-0.21l7.137-7.269q0.135-0.124 0.254-0.080t0.099 0.238l0.132 3.953q0.002 0.168 0.12 0.289l2.714 2.918q0.146 0.108 0.096 0.231t-0.239 0.116z"></path>
</svg>
