<?xml version="1.0" encoding="utf-8"?>
<!-- Generated by IcoMoon.io -->
<!DOCTYPE svg PUBLIC "-//W3C//DTD SVG 1.1//EN" "http://www.w3.org/Graphics/SVG/1.1/DTD/svg11.dtd">
<svg version="1.1" xmlns="http://www.w3.org/2000/svg" xmlns:xlink="http://www.w3.org/1999/xlink" width="24" height="32" viewBox="0 0 24 32">
<path fill="#444444" d="M23.105 20.023q-1.25 3.017-3.805 4.96t-5.726 2.372-6.174-0.815q-2.252-0.933-3.937-2.662t-2.556-3.832-0.899-4.525 0.91-4.688q0.933-2.252 2.665-3.944t3.832-2.556 4.511-0.888 4.664 0.909q2.266 0.939 3.959 2.671t2.563 3.835 0.898 4.507-0.906 4.656zM20.665 19.013q1.453-3.508-0.032-7.15-1.497-3.613-5.048-5.084-2.339-0.969-4.812-0.632t-4.468 1.845-2.963 3.846-0.628 4.822 1.852 4.471 3.849 2.956 4.812 0.632 4.471-1.852 2.966-3.854zM17.386 13.291l-7.283 7.131q-0.095 0.147-0.21 0.099t-0.079-0.219l-0.093-10.186q0.008-0.183 0.123-0.236t0.238 0.099l2.889 2.702q0.12 0.118 0.289 0.12l3.982 0.144q0.18-0.027 0.231 0.096t-0.087 0.251z"></path>
</svg>
