<?xml version="1.0" encoding="utf-8"?>
<!-- Generated by IcoMoon.io -->
<!DOCTYPE svg PUBLIC "-//W3C//DTD SVG 1.1//EN" "http://www.w3.org/Graphics/SVG/1.1/DTD/svg11.dtd">
<svg version="1.1" xmlns="http://www.w3.org/2000/svg" xmlns:xlink="http://www.w3.org/1999/xlink" width="34" height="32" viewBox="0 0 34 32">
<path fill="#444444" d="M0 15.969q0 0.781 0.578 1.297 0.531 0.531 1.297 0.531h12.531q0.828 0 1.453 0.609t0.625 1.469-0.625 1.469-1.453 0.609q-0.813 0-1.453-0.641-0.578-0.516-1.313-0.516-0.766 0-1.281 0.508t-0.516 1.273q0 0.75 0.531 1.266 1.672 1.703 4.031 1.703 2.344 0 4.008-1.664t1.664-4.008q0-2.359-1.664-4.039t-4.008-1.68h-12.531q-0.75 0-1.313 0.531t-0.563 1.281zM0 9.563q0 0.719 0.578 1.234 0.516 0.516 1.297 0.516h23.375q2.359 0 4.031-1.664t1.672-4.008-1.664-3.992-4.039-1.648q-2.438 0-4.016 1.625-0.5 0.516-0.5 1.297 0 0.766 0.492 1.258t1.273 0.492q0.766 0 1.328-0.5 0.594-0.594 1.422-0.594 0.844 0 1.445 0.602t0.602 1.461-0.602 1.469-1.445 0.609h-23.375q-0.75 0-1.313 0.547t-0.563 1.297zM22.484 22.203q0 2.391 1.25 3.844t3.813 1.453q2.375 0 3.914-1.445t1.539-3.805q0-1.609-1.109-2.617t-2.75-1.008q-1.828 0-2.859 1.25h-0.031q0.828-2.906 2.75-2.906 0.609 0 0.969 0.234 0.313 0.219 0.391 0.688h3.516q-0.031-0.781-0.32-1.406t-0.734-1.031-1.047-0.672-1.242-0.375-1.328-0.109q-1.563 0-2.797 0.602t-1.945 1.484-1.18 2.008-0.633 2.055-0.164 1.758zM25.906 22.953q0-0.922 0.609-1.398t1.375-0.477q0.469 0 0.805 0.141t0.5 0.32 0.258 0.445 0.109 0.414 0.016 0.32q0 0.781-0.531 1.313t-1.422 0.531q-0.766 0-1.242-0.445t-0.477-1.164z"></path>
</svg>
