<?xml version="1.0" encoding="UTF-8" standalone="no"?>
<!-- Generator: Adobe Illustrator 18.1.1, SVG Export Plug-In . SVG Version: 6.00 Build 0)  -->

<svg
   xmlns:dc="http://purl.org/dc/elements/1.1/"
   xmlns:cc="http://creativecommons.org/ns#"
   xmlns:rdf="http://www.w3.org/1999/02/22-rdf-syntax-ns#"
   xmlns:svg="http://www.w3.org/2000/svg"
   xmlns="http://www.w3.org/2000/svg"
   xmlns:sodipodi="http://sodipodi.sourceforge.net/DTD/sodipodi-0.dtd"
   xmlns:inkscape="http://www.inkscape.org/namespaces/inkscape"
   version="1.1"
   id="Capa_1"
   x="0px"
   y="0px"
   viewBox="0 0 48 48"
   xml:space="preserve"
   inkscape:version="0.48.4 r9939"
   width="100%"
   height="100%"
   sodipodi:docname="walk.svg"><metadata
   id="metadata15"><rdf:RDF><cc:Work
       rdf:about=""><dc:format>image/svg+xml</dc:format><dc:type
         rdf:resource="http://purl.org/dc/dcmitype/StillImage" /></cc:Work></rdf:RDF></metadata><defs
   id="defs13" /><sodipodi:namedview
   pagecolor="#ffffff"
   bordercolor="#666666"
   borderopacity="1"
   objecttolerance="10"
   gridtolerance="10"
   guidetolerance="10"
   inkscape:pageopacity="0"
   inkscape:pageshadow="2"
   inkscape:window-width="1680"
   inkscape:window-height="987"
   id="namedview11"
   showgrid="false"
   fit-margin-top="0"
   fit-margin-left="0"
   fit-margin-right="0"
   fit-margin-bottom="0"
   inkscape:zoom="2.8365883"
   inkscape:cx="143.45581"
   inkscape:cy="31.81556"
   inkscape:window-x="1272"
   inkscape:window-y="-8"
   inkscape:window-maximized="1"
   inkscape:current-layer="Capa_1" />
<g
   id="g3"
   transform="matrix(0.10162602,0,0,0.10198843,0.08526335,-3.0420278e-5)">
	<g
   id="g5">
		<path
   style="fill:#010002"
   d="m 223.821,76.022 c 10.333,-0.333 19,-4.333 26,-12 7,-7.667 10.333,-16.667 10,-27 -0.333,-10.335 -4.167,-19.168 -11.5,-26.5 -7.333,-7.333 -16.167,-10.833 -26.5,-10.5 -10.333,0.333 -19,4.333 -26,12 -7,7.667 -10.5,16.667 -10.5,27 0,10.333 3.833,19.167 11.5,26.5 7.667,7.333 16.667,10.833 27,10.5 z"
   id="path7"
   inkscape:connector-curvature="0" />
		<path
   style="fill:#010002"
   d="m 350.321,202.522 -55,-30 -45,-72 c -8.667,-10.667 -19.333,-16 -32,-16 -8.667,0 -17,3.667 -25,11 l -68,69 c -2,2.667 -3.333,5.667 -4,9 l -9,77 v 2 c 0,4.666 1.667,8.666 5,12 3.333,3.332 7.333,5 12,5 4.667,0 8.5,-1.668 11.5,-5 3,-3.334 4.833,-7 5.5,-11 l 7,-66 24,-24 -22,184 -39,87.001 c -1.333,4 -2,7.658 -2,11.002 0,7.322 2.5,13.5 7.5,18.5 5,5 11.167,7.164 18.5,6.5 10,0 17.333,-4.678 22,-14 l 42,-94.002 c 0,-0.67 0.333,-1.835 1,-3.5 0.668,-1.67 1.335,-3.17 2,-4.5 0.667,-1.335 1,-2.67 1,-4 l 5,-45.001 43,148.003 c 4.667,12 13,17.666 25,17 6.667,0 12.5,-2.5 17.5,-7.5 5,-5 7.5,-11.178 7.5,-18.5 0,-0.678 -0.167,-1.5 -0.5,-2.5 -0.333,-1 -0.5,-1.836 -0.5,-2.502 l -60,-205.001 7,-67 17,27 c 1.333,2 3,3.667 5,5 l 59,33 c 4,1.333 6.667,2 8,2 4.667,0 8.667,-1.833 12,-5.5 3.333,-3.668 5,-7.834 5,-12.5 0,-6 -2.667,-10.667 -8,-14 z"
   id="path9"
   inkscape:connector-curvature="0" />
	</g>
</g>
</svg>