<?xml version="1.0" encoding="utf-8"?>
<!-- Generated by IcoMoon.io -->
<!DOCTYPE svg PUBLIC "-//W3C//DTD SVG 1.1//EN" "http://www.w3.org/Graphics/SVG/1.1/DTD/svg11.dtd">
<svg version="1.1" xmlns="http://www.w3.org/2000/svg" xmlns:xlink="http://www.w3.org/1999/xlink" width="32" height="32" viewBox="0 0 32 32">
<path fill="#444444" d="M27.994 12.22c0.006 0.046 0.010 0.090 0.010 0.136v7.296c0 0.046-0.004 0.090-0.008 0.14-0.002 0.012-0.006 0.028-0.008 0.044-0.006 0.028-0.010 0.056-0.018 0.086-0.004 0.016-0.012 0.032-0.016 0.048-0.010 0.026-0.018 0.050-0.028 0.076-0.008 0.016-0.016 0.032-0.024 0.048-0.010 0.024-0.022 0.046-0.036 0.070-0.008 0.014-0.020 0.030-0.030 0.046-0.012 0.020-0.026 0.040-0.042 0.062-0.012 0.014-0.024 0.028-0.036 0.044-0.016 0.016-0.032 0.036-0.052 0.054-0.012 0.014-0.026 0.028-0.042 0.042s-0.036 0.032-0.058 0.048c-0.012 0.012-0.028 0.024-0.044 0.036l-0.018 0.012-10.972 7.298c-0.174 0.116-0.372 0.172-0.572 0.172s-0.398-0.056-0.574-0.176l-10.972-7.298c-0.004-0.004-0.010-0.008-0.016-0.012l-0.046-0.036c-0.020-0.014-0.040-0.032-0.058-0.048-0.014-0.014-0.028-0.028-0.042-0.042-0.016-0.016-0.034-0.036-0.050-0.054-0.012-0.014-0.024-0.028-0.036-0.044-0.014-0.020-0.028-0.040-0.042-0.062-0.012-0.014-0.022-0.030-0.030-0.046-0.014-0.024-0.026-0.046-0.036-0.070-0.008-0.014-0.016-0.030-0.024-0.048-0.010-0.026-0.018-0.050-0.026-0.076-0.006-0.014-0.012-0.030-0.016-0.048-0.008-0.030-0.012-0.058-0.018-0.086-0.002-0.016-0.006-0.032-0.008-0.046-0.006-0.044-0.010-0.090-0.010-0.134v-7.296c0-0.046 0.004-0.090 0.010-0.136 0.002-0.014 0.006-0.028 0.008-0.044 0.006-0.030 0.010-0.058 0.018-0.086 0.004-0.018 0.010-0.034 0.016-0.050 0.008-0.024 0.016-0.050 0.026-0.076 0.008-0.016 0.016-0.032 0.024-0.050 0.010-0.024 0.022-0.044 0.036-0.070 0.010-0.014 0.020-0.030 0.030-0.046 0.012-0.020 0.028-0.042 0.042-0.062 0.010-0.016 0.022-0.028 0.036-0.044 0.016-0.020 0.032-0.038 0.050-0.056 0.014-0.012 0.028-0.026 0.042-0.042 0.018-0.016 0.038-0.032 0.058-0.048l0.046-0.034c0.006-0.004 0.012-0.010 0.018-0.014l10.972-7.296c0.346-0.23 0.798-0.23 1.144 0l10.97 7.3c0.006 0.004 0.012 0.010 0.018 0.014 0.014 0.012 0.030 0.024 0.044 0.036 0.020 0.014 0.040 0.030 0.058 0.048 0.016 0.014 0.030 0.028 0.042 0.042 0.018 0.016 0.034 0.034 0.052 0.054 0.012 0.014 0.024 0.028 0.036 0.044 0.014 0.020 0.028 0.040 0.042 0.062 0.010 0.014 0.022 0.030 0.030 0.046 0.014 0.024 0.026 0.044 0.036 0.068 0.008 0.016 0.016 0.032 0.024 0.050 0.010 0.026 0.018 0.050 0.028 0.074 0.004 0.016 0.012 0.032 0.016 0.050 0.008 0.028 0.012 0.056 0.018 0.086 0.002 0.014 0.006 0.028 0.008 0.044zM17.032 6.98v4.802l4.472 2.984 3.612-2.41zM14.968 6.98l-8.082 5.376 3.61 2.41 4.472-2.986v-4.8zM6.060 14.282v3.444l2.58-1.722zM14.968 25.028v-4.802l-4.472-2.984-3.61 2.408zM16 18.44l3.648-2.436-3.648-2.436-3.648 2.436zM17.032 25.028l8.084-5.376-3.612-2.408-4.472 2.984v4.8zM25.942 17.726v-3.444l-2.582 1.722z"></path>
</svg>
