<?xml version="1.0" encoding="utf-8"?>
<!-- Generated by IcoMoon.io -->
<!DOCTYPE svg PUBLIC "-//W3C//DTD SVG 1.1//EN" "http://www.w3.org/Graphics/SVG/1.1/DTD/svg11.dtd">
<svg version="1.1" xmlns="http://www.w3.org/2000/svg" xmlns:xlink="http://www.w3.org/1999/xlink" width="32" height="32" viewBox="0 0 32 32">
<path fill="#444444" d="M26 16c0 0.874-0.562 1.608-1.342 1.88 0.216 0.322 0.342 0.704 0.342 1.12 0 0.872-0.562 1.606-1.342 1.88 0.216 0.322 0.342 0.704 0.342 1.12 0 1.104-0.896 2-2 2h-1c1.104 0 2 0.896 2 2s-0.896 2-2 2h-7c-3 0-4-2-6-2h-2v-10h3c2 0 5-4 5-10 0 0 0-2 1-2s3 2.25 3 5c0 3-0.5 5-0.5 5h6.5c1.104 0 2 0.896 2 2z"></path>
</svg>
