<?xml version="1.0" encoding="utf-8"?>
<!-- Generated by IcoMoon.io -->
<!DOCTYPE svg PUBLIC "-//W3C//DTD SVG 1.1//EN" "http://www.w3.org/Graphics/SVG/1.1/DTD/svg11.dtd">
<svg version="1.1" xmlns="http://www.w3.org/2000/svg" xmlns:xlink="http://www.w3.org/1999/xlink" width="32" height="32" viewBox="0 0 32 32">
<path fill="#444444" d="M16 30c2 0 4-0.5 5.75-1.25-0.25-2.25-1-5.75-3.25-10.75-4.5 1.5-8.75 4.75-11 9 2.25 2 5.25 3 8.5 3zM24 27.5c3.25-2.25 5.5-6 6-10-3-0.5-5.75-0.5-9 0 0.25 0.5 2 4.75 3 10zM2 15v1c0 3.5 1.25 6.75 3.5 9.25 2.75-4.5 7.75-7.75 12.25-9.25-0.25-0.75-0.75-1.75-1.25-2.75-5.75 1.75-9.25 2.25-14.5 1.75zM27.5 8c-2.5 2-5.75 3-8.75 4.5 0.75 1 1 1.75 1.5 2.75 3.25-0.75 7.5-0.5 9.75 0-0.25-2.75-1-5.25-2.5-7.25zM10.5 3c-4 1.75-7 5.25-8 9.75 4.5 0.5 10.75-0.75 13-1.5-1.5-3-3-5.5-5-8.25zM16 2c-1 0-2 0.25-3 0.25 2 3.25 3 5 4.75 8 2-0.75 6-2 8.25-4-2.5-2.5-6-4.25-10-4.25zM16 0c8.75 0 16 7.25 16 16s-7.25 16-16 16-16-7.25-16-16 7.25-16 16-16z"></path>
</svg>
