<?xml version="1.0" encoding="utf-8"?>
<!-- Generated by IcoMoon.io -->
<!DOCTYPE svg PUBLIC "-//W3C//DTD SVG 1.1//EN" "http://www.w3.org/Graphics/SVG/1.1/DTD/svg11.dtd">
<svg version="1.1" xmlns="http://www.w3.org/2000/svg" xmlns:xlink="http://www.w3.org/1999/xlink" width="32" height="32" viewBox="0 0 32 32">
<path fill="#444444" d="M26 2c2.208 0 4 1.792 4 4v20c0 2.208-1.792 4-4 4h-4.404v-11.112h4.21l0.194-4.054h-4.406v-3.198c0-1.114 0.238-1.788 1.696-1.788 1.354 0 2.594 0.010 2.594 0.010l0.092-3.786s-1.214-0.156-2.852-0.156c-4.056 0-5.814 2.498-5.814 5.218v3.7h-3.974v4.052h3.974v11.114h-11.31c-2.208 0-4-1.792-4-4v-20c0-2.208 1.792-4 4-4h20z"></path>
</svg>
