<?xml version="1.0" encoding="utf-8"?>
<!-- Generated by IcoMoon.io -->
<!DOCTYPE svg PUBLIC "-//W3C//DTD SVG 1.1//EN" "http://www.w3.org/Graphics/SVG/1.1/DTD/svg11.dtd">
<svg version="1.1" xmlns="http://www.w3.org/2000/svg" xmlns:xlink="http://www.w3.org/1999/xlink" width="32" height="32" viewBox="0 0 32 32">
<path fill="#444444" d="M23.090 4c1.88 0 2.384 1.072 1.976 3.056l-0.81 4.042c-0.64 3.232-1.376 6.964-1.47 7.346-0.172 0.69-0.436 1.862-2.078 1.862h-3.912c-0.156 0-0.156 0-0.314 0.158-0.104 0.104-6.146 7.116-6.146 7.116-0.472 0.542-1.256 0.446-1.542 0.33-0.286-0.114-0.792-0.464-0.792-1.406v-20.338s0.52-2.166 2.286-2.166h12.802zM21.796 10.264l0.536-2.8c0.098-0.464-0.256-0.82-0.634-0.82h-10.274c-0.466 0-0.778 0.42-0.778 0.778v15.87c0 0.050 0.038 0.060 0.076 0.018 0 0 3.786-4.544 4.206-5.068 0.42-0.522 0.612-0.604 1.24-0.604h3.456c0.472 0 0.738-0.396 0.786-0.628 0.050-0.232 0.452-2.33 0.538-2.754s-0.302-0.858-0.7-0.858h-4.234c-0.562 0-0.966-0.398-0.966-0.958v-0.61c0-0.562 0.402-0.944 0.962-0.944h4.988s0.734-0.32 0.798-0.622z"></path>
</svg>
