<?xml version="1.0" encoding="utf-8"?>
<!-- Generated by IcoMoon.io -->
<!DOCTYPE svg PUBLIC "-//W3C//DTD SVG 1.1//EN" "http://www.w3.org/Graphics/SVG/1.1/DTD/svg11.dtd">
<svg version="1.1" xmlns="http://www.w3.org/2000/svg" xmlns:xlink="http://www.w3.org/1999/xlink" width="32" height="32" viewBox="0 0 32 32">
<path fill="#444444" d="M22 16h8v4h-4.844c-1.544 3.53-5.056 6-9.156 6-2.762 0-5.242-1.138-7.048-2.952l0.010-0.010c-0.782-0.782-0.782-2.046 0-2.828s2.046-0.784 2.828 0c1.084 1.088 2.554 1.79 4.21 1.79 3.314 0 6-2.686 6-6zM16 10c-3.314 0-6 2.686-6 6h-8v-4h4.844c1.544-3.53 5.058-6 9.156-6 2.764 0 5.242 1.14 7.048 2.952 0.782 0.782 0.782 2.046 0 2.828s-2.046 0.782-2.828 0l-0.010 0.010c-1.084-1.088-2.552-1.79-4.21-1.79zM13 16c0-1.658 1.344-3 3-3 1.658 0 3 1.342 3 3s-1.342 3-3 3c-1.656 0-3-1.342-3-3z"></path>
</svg>
