<?xml version="1.0" encoding="utf-8"?>
<!-- Generated by IcoMoon.io -->
<!DOCTYPE svg PUBLIC "-//W3C//DTD SVG 1.1//EN" "http://www.w3.org/Graphics/SVG/1.1/DTD/svg11.dtd">
<svg version="1.1" xmlns="http://www.w3.org/2000/svg" xmlns:xlink="http://www.w3.org/1999/xlink" width="32" height="32" viewBox="0 0 32 32">
<path fill="#444444" d="M16 0c8.836 0 16 7.164 16 16 0 7.066-4.58 13.058-10.934 15.178-0.812 0.156-1.1-0.34-1.1-0.77 0-0.522 0.020-2.25 0.020-4.386 0-1.496-0.512-2.472-1.086-2.964 3.564-0.396 7.304-1.75 7.304-7.896 0-1.746-0.618-3.174-1.642-4.292 0.164-0.404 0.714-2.032-0.16-4.234 0 0-1.342-0.43-4.396 1.64-1.278-0.356-2.646-0.532-4.006-0.538-1.36 0.006-2.728 0.182-4.006 0.538-3.056-2.070-4.4-1.64-4.4-1.64-0.87 2.202-0.32 3.828-0.154 4.234-1.024 1.118-1.648 2.546-1.648 4.292 0 6.13 3.736 7.506 7.288 7.908-0.458 0.402-0.87 1.104-1.016 2.14-0.91 0.41-3.23 1.114-4.656-1.332 0 0-0.846-1.534-2.452-1.648 0 0-1.564-0.020-0.11 0.972 0 0 1.048 0.492 1.776 2.344 0 0 0.938 3.108 5.39 2.144 0.008 1.332 0.022 2.34 0.022 2.718 0 0.426-0.292 0.918-1.092 0.774-6.358-2.116-10.942-8.112-10.942-15.182 0-8.836 7.164-16 16-16z"></path>
</svg>
