<?xml version="1.0" encoding="utf-8"?>
<!-- Generated by IcoMoon.io -->
<!DOCTYPE svg PUBLIC "-//W3C//DTD SVG 1.1//EN" "http://www.w3.org/Graphics/SVG/1.1/DTD/svg11.dtd">
<svg version="1.1" xmlns="http://www.w3.org/2000/svg" xmlns:xlink="http://www.w3.org/1999/xlink" width="32" height="32" viewBox="0 0 32 32">
<path fill="#444444" d="M28 14h4v2h-4v4h-2v-4h-4v-2h4v-4h2v4zM20.336 2l-2.352 1.324h-2.278c0.844 0.698 2.61 2.166 2.61 4.96 0 2.718-1.544 4.004-3.086 5.218-0.478 0.476-1.030 0.992-1.030 1.8s0.552 1.248 0.956 1.58l1.324 1.028c1.616 1.358 3.084 2.608 3.084 5.144 0 3.456-3.342 6.946-9.662 6.946-5.33 0-7.902-2.536-7.902-5.256 0-1.322 0.662-3.196 2.83-4.482 2.278-1.398 5.366-1.58 7.018-1.69-0.514-0.662-1.102-1.36-1.102-2.496 0-0.628 0.184-0.996 0.368-1.434-0.406 0.032-0.808 0.072-1.176 0.072-3.894 0-6.1-2.904-6.1-5.77 0-1.688 0.772-3.562 2.352-4.922 2.096-1.728 4.594-2.022 6.576-2.022h7.57zM17.102 24.488c0-1.872-1.212-2.866-4.006-4.852-0.294-0.036-0.478-0.036-0.844-0.036-0.33 0-2.316 0.072-3.858 0.588-0.81 0.294-3.162 1.174-3.162 3.786 0 2.606 2.536 4.482 6.468 4.482 3.528 0 5.402-1.69 5.402-3.968zM14.164 12.656c0.844-0.846 0.918-2.022 0.916-2.682 0-2.646-1.58-6.762-4.628-6.762-0.958 0-1.986 0.478-2.574 1.212-0.624 0.772-0.808 1.764-0.808 2.72 0 2.462 1.432 6.54 4.594 6.54 0.918 0 1.912-0.442 2.5-1.028z"></path>
</svg>
