<?xml version="1.0" encoding="utf-8"?>
<!-- Generated by IcoMoon.io -->
<!DOCTYPE svg PUBLIC "-//W3C//DTD SVG 1.1//EN" "http://www.w3.org/Graphics/SVG/1.1/DTD/svg11.dtd">
<svg version="1.1" xmlns="http://www.w3.org/2000/svg" xmlns:xlink="http://www.w3.org/1999/xlink" width="32" height="32" viewBox="0 0 32 32">
<path fill="#444444" d="M8.936 23.092c-0.57 0-1.12 0.016-1.722 0.016-1.99 0-3.758 0.5-5.214 1.302v-7.576c1.22 1.222 2.964 1.972 5.156 1.974 0.316 0 0.62-0.016 0.92-0.038-0.294 0.562-0.504 1.19-0.504 1.848 0 1.108 0.61 1.74 1.364 2.474zM8.988 17.358c-2.556-0.076-4.986-2.422-5.426-5.778-0.442-3.358 1.272-5.926 3.828-5.85s4.742 2.83 5.182 6.188c0.442 3.356-1.030 5.516-3.584 5.44zM15.086 28.596c0.078 0.332 0.122 0.674 0.122 1.024 0 0.128-0.010 0.254-0.016 0.38h-9.192c-1.802 0-3.308-1.2-3.808-2.836 1.17-1.73 3.566-2.966 6.272-2.936 0.888 0.010 1.716 0.152 2.468 0.396 2.068 1.436 3.734 2.334 4.154 3.972zM30 8h-4v-4h-2v4h-4v2h4v4h2v-4h4v16.002c0 2.208-1.792 4-4 4h-7.916c0.040-0.262 0.066-0.524 0.066-0.786 0-2.874-0.62-4.32-3.682-6.616-0.878-0.66-2.792-2.012-2.792-2.92 0-1.062 0.304-1.588 1.904-2.836 1.64-1.282 2.802-2.972 2.802-5.068 0-2.284-0.934-4.358-2.69-5.364h2.49l2.12-2.226h-9.484c-2.724 0-5.19 1.138-6.818 2.834v-1.020c0-2.208 1.792-4 4-4h20c2.208 0 4 1.792 4 4v2z"></path>
</svg>
