<?xml version="1.0" encoding="utf-8"?>
<!-- Generated by IcoMoon.io -->
<!DOCTYPE svg PUBLIC "-//W3C//DTD SVG 1.1//EN" "http://www.w3.org/Graphics/SVG/1.1/DTD/svg11.dtd">
<svg version="1.1" xmlns="http://www.w3.org/2000/svg" xmlns:xlink="http://www.w3.org/1999/xlink" width="32" height="32" viewBox="0 0 32 32">
<path fill="#444444" d="M26 2c2.208 0 4 1.792 4 4v20c0 2.208-1.792 4-4 4h-20c-2.208 0-4-1.792-4-4v-20c0-2.208 1.792-4 4-4h20zM16 10c-3.314 0-6 2.686-6 6 0 3.312 2.686 6 6 6 3.312 0 6-2.688 6-6 0-3.314-2.688-6-6-6zM28 26v-12h-4.284c0.166 0.642 0.284 1.304 0.284 2 0 4.418-3.582 8-8 8s-8-3.582-8-8c0-0.696 0.116-1.358 0.284-2h-4.284v12c0 1.106 0.896 2 2 2h20c1.106 0 2-0.894 2-2zM28 8v-2c0-1.104-0.894-2-2-2h-2c-1.106 0-2 0.896-2 2v2c0 1.104 0.894 2 2 2h2c1.106 0 2-0.896 2-2z"></path>
</svg>
