<?xml version="1.0" encoding="utf-8"?>
<!-- Generated by IcoMoon.io -->
<!DOCTYPE svg PUBLIC "-//W3C//DTD SVG 1.1//EN" "http://www.w3.org/Graphics/SVG/1.1/DTD/svg11.dtd">
<svg version="1.1" xmlns="http://www.w3.org/2000/svg" xmlns:xlink="http://www.w3.org/1999/xlink" width="32" height="32" viewBox="0 0 32 32">
<path fill="#444444" d="M26 2c2.208 0 4 1.792 4 4v20c0 2.208-1.792 4-4 4h-20c-2.208 0-4-1.792-4-4v-20c0-2.208 1.792-4 4-4h20zM10.362 26v-12.39h-4.118v12.39h4.118zM8.302 11.918c1.436 0 2.33-0.952 2.33-2.14-0.026-1.214-0.894-2.14-2.302-2.14-1.41 0-2.33 0.926-2.33 2.14 0 1.188 0.894 2.14 2.276 2.14h0.026zM25.21 26v-7.104c0-3.804-2.032-5.576-4.742-5.576-2.184 0-3.164 1.202-3.71 2.046v-1.756h-4.118c0.054 1.162 0 12.39 0 12.39h4.118v-6.92c0-0.37 0.028-0.74 0.134-1.002 0.298-0.74 0.976-1.506 2.114-1.506 1.492 0 2.086 1.136 2.086 2.8v6.628h4.118z"></path>
</svg>
