<?xml version="1.0" encoding="utf-8"?>
<!-- Generated by IcoMoon.io -->
<!DOCTYPE svg PUBLIC "-//W3C//DTD SVG 1.1//EN" "http://www.w3.org/Graphics/SVG/1.1/DTD/svg11.dtd">
<svg version="1.1" xmlns="http://www.w3.org/2000/svg" xmlns:xlink="http://www.w3.org/1999/xlink" width="32" height="32" viewBox="0 0 32 32">
<path fill="#444444" d="M22.47 3.364c0 0 8.804 3.584 5.784 13.1-4.176 8.664-12.26 5.454-12.26 5.454v4.336s-0.308 2.396-3.17 3.442c-2.864 1.042-5.494-0.93-5.494-0.93v-4.372c1.306 1.336 3.058 2.098 3.752 0.156v-14.78h4.87v8.398s7.194 2.164 8.162-4.528c0.154-7.428-8.546-7.388-8.546-7.388s-5.456-0.348-8.164 4.024c-2.050 3.482 0.58 6.616 0.58 6.616l-3.52 3.132s-5.3-6.538-0.116-13.618c6.732-7.62 18.122-3.042 18.122-3.042z"></path>
</svg>
