<?xml version="1.0" encoding="utf-8"?>
<!-- Generated by IcoMoon.io -->
<!DOCTYPE svg PUBLIC "-//W3C//DTD SVG 1.1//EN" "http://www.w3.org/Graphics/SVG/1.1/DTD/svg11.dtd">
<svg version="1.1" xmlns="http://www.w3.org/2000/svg" xmlns:xlink="http://www.w3.org/1999/xlink" width="32" height="32" viewBox="0 0 32 32">
<path fill="#444444" d="M16 0c8.838 0 16 7.164 16 16 0 8.838-7.162 16-16 16-1.576 0-3.094-0.23-4.534-0.658 0.606-0.96 1.27-2.192 1.61-3.426 0.198-0.712 1.126-4.4 1.126-4.4 0.558 1.062 2.182 1.996 3.91 1.996 5.142 0 8.632-4.69 8.632-10.966 0-4.746-4.020-9.166-10.128-9.166-7.602 0-11.436 5.45-11.436 9.996 0 2.752 1.040 5.202 3.276 6.112 0.366 0.15 0.694 0.008 0.8-0.398 0.074-0.282 0.25-0.992 0.328-1.284 0.106-0.402 0.064-0.542-0.232-0.894-0.642-0.76-1.054-1.742-1.054-3.136 0-4.044 3.024-7.664 7.876-7.664 4.296 0 6.658 2.626 6.658 6.132 0 4.614-2.038 8.506-5.072 8.506-1.674 0-2.926-1.384-2.526-3.080 0.48-2.026 1.414-4.216 1.414-5.678 0-1.31-0.702-2.402-2.158-2.402-1.71 0-3.086 1.77-3.086 4.142 0 1.51 0.512 2.532 0.512 2.532s-1.752 7.42-2.058 8.718c-0.288 1.216-0.324 2.554-0.28 3.674-5.638-2.474-9.578-8.106-9.578-14.656 0-8.836 7.164-16 16-16z"></path>
</svg>
