<?xml version="1.0" encoding="utf-8"?>
<!-- Generated by IcoMoon.io -->
<!DOCTYPE svg PUBLIC "-//W3C//DTD SVG 1.1//EN" "http://www.w3.org/Graphics/SVG/1.1/DTD/svg11.dtd">
<svg version="1.1" xmlns="http://www.w3.org/2000/svg" xmlns:xlink="http://www.w3.org/1999/xlink" width="32" height="32" viewBox="0 0 32 32">
<path fill="#444444" d="M16.768 0c7.526 0 12.484 5.448 12.484 11.296 0 7.736-4.302 13.518-10.64 13.518-2.13 0-4.132-1.152-4.818-2.46 0 0-1.144 4.546-1.388 5.424-0.42 1.52-1.238 3.040-1.986 4.222l-2.328-0.844c-0.056-1.38-0.010-3.032 0.344-4.53 0.378-1.6 2.536-10.746 2.536-10.746s-0.63-1.26-0.63-3.122c0-2.922 1.696-5.106 3.804-5.106 1.794 0 2.66 1.346 2.66 2.96 0 1.802-1.152 4.5-1.742 7-0.494 2.088 1.050 3.794 3.112 3.794 3.738 0 6.252-4.798 6.252-10.484 0-4.322-2.912-7.558-8.206-7.558-5.98 0-9.708 4.462-9.708 9.446 0 1.72 0.508 2.93 1.3 3.866 0.368 0.434 0.416 0.608 0.286 1.104-0.094 0.36-0.312 1.234-0.402 1.582-0.132 0.5-0.536 0.676-0.988 0.49-2.754-1.12-4.038-4.14-4.038-7.532 0-5.604 4.724-12.32 14.096-12.32z"></path>
</svg>
