<?xml version="1.0" encoding="utf-8"?>
<!-- Generated by IcoMoon.io -->
<!DOCTYPE svg PUBLIC "-//W3C//DTD SVG 1.1//EN" "http://www.w3.org/Graphics/SVG/1.1/DTD/svg11.dtd">
<svg version="1.1" xmlns="http://www.w3.org/2000/svg" xmlns:xlink="http://www.w3.org/1999/xlink" width="32" height="32" viewBox="0 0 32 32">
<path fill="#444444" d="M24 4c2.208 0 4 1.792 4 4v6c0 6.626-5.374 12-12 12s-12-5.374-12-12v-6c0-2.208 1.792-4 4-4h16zM23.414 13.414c0.782-0.782 0.782-2.048 0-2.828-0.782-0.782-2.046-0.782-2.828 0l-4.586 4.586-4.586-4.586c-0.782-0.782-2.048-0.782-2.828 0-0.782 0.78-0.782 2.046 0 2.828l5.656 5.656 0.066-0.066c0.35 0.584 0.962 0.996 1.692 0.996s1.342-0.412 1.692-0.996l0.066 0.066z"></path>
</svg>
