<?xml version="1.0" encoding="utf-8"?>
<!-- Generated by IcoMoon.io -->
<!DOCTYPE svg PUBLIC "-//W3C//DTD SVG 1.1//EN" "http://www.w3.org/Graphics/SVG/1.1/DTD/svg11.dtd">
<svg version="1.1" xmlns="http://www.w3.org/2000/svg" xmlns:xlink="http://www.w3.org/1999/xlink" width="32" height="32" viewBox="0 0 32 32">
<path fill="#444444" d="M16 2c7.72 0 14 6.282 14 14 0 7.72-6.28 14-14 14-7.718 0-14-6.28-14-14 0-7.718 6.282-14 14-14zM17.388 4.352c-3.3-0.164-6.576 1.148-8.822 3.44-2.288 2.254-3.376 5.534-2.964 8.62 0.366 3.082 2.228 5.914 4.806 7.438 2.512 1.5 5.708 1.628 8.296 0.454-0.736 0.204-1.51 0.318-2.308 0.318-4.742 0-8.6-3.858-8.6-8.6 0-2.248 0.87-4.296 2.286-5.83 0.016-0.016 0.030-0.030 0.044-0.046 0.072-0.074 0.142-0.148 0.214-0.222 0.008-0.006 0.014-0.016 0.022-0.020 2-2.318 4.954-3.784 8.254-3.784 3.454 0 6.534 1.608 8.532 4.116-0.326-0.524-0.688-1.026-1.084-1.494-2.156-2.638-5.37-4.272-8.676-4.39zM22.11 16.278c0.068 1.412-0.396 2.858-1.262 4.018-0.868 1.154-2.112 2.026-3.52 2.452-1.17 0.356-2.446 0.4-3.658 0.11 0.844 0.338 1.764 0.526 2.726 0.526 4.062 0 7.364-3.304 7.364-7.364 0-0.012-0.002-0.026-0.002-0.042-0.214-2.224-1.378-4.318-3.13-5.612-2.146-1.634-5.192-1.826-7.488-0.594-1.144 0.602-2.138 1.518-2.764 2.608-0.634 1.092-0.914 2.37-0.816 3.608 0.166 2.484 1.95 4.766 4.244 5.394 2.288 0.688 4.896-0.306 6.124-2.232 1.29-1.882 0.98-4.58-0.568-6.12-1.47-1.628-4.078-1.812-5.748-0.576-0.844 0.604-1.446 1.474-1.646 2.454-0.208 0.97-0.026 2.010 0.476 2.84 0.502 0.84 1.308 1.462 2.218 1.688 0.91 0.236 1.9 0.076 2.68-0.4 0.79-0.476 1.368-1.252 1.53-2.12 0.178-0.864-0.026-1.788-0.536-2.482-0.502-0.712-1.294-1.146-2.124-1.202-0.828-0.064-1.654 0.27-2.212 0.848-0.572 0.562-0.814 1.392-0.698 2.154 0.118 0.76 0.598 1.464 1.25 1.806 0.414 0.23 0.898 0.31 1.358 0.256-0.97-0.024-1.784-0.676-2.054-1.564-0.008-0.012-0.016-0.026-0.022-0.042-0.28-0.648-0.204-1.474 0.252-2.084 0.444-0.606 1.212-0.99 2.012-0.95 0.798 0.026 1.584 0.516 2 1.234 0.428 0.716 0.5 1.668 0.122 2.474-0.376 0.808-1.152 1.41-2.056 1.588-0.898 0.194-1.918-0.074-2.62-0.74-0.7-0.64-1.126-1.628-1.054-2.63 0.060-2.080 2.358-3.71 4.486-3.14 2.162 0.494 3.546 3.074 2.716 5.286-0.76 2.23-3.512 3.524-5.842 2.608-1.158-0.43-2.106-1.342-2.652-2.462-0.546-1.128-0.66-2.478-0.28-3.714 0.748-2.526 3.534-4.206 6.232-3.726 2.74 0.4 4.894 3.010 4.962 5.844zM16 28.758c4.988 0 9.312-2.88 11.408-7.058 0.582-1.324 0.92-2.746 0.92-4.152 0-4.984-3.86-8.662-8.644-9.494 2.414 1 4.364 3.13 5.18 5.664 1.096 3.174 0.326 6.998-2.080 9.514-2.316 2.546-6.006 3.838-9.502 3.222-3.532-0.556-6.608-3.098-8.086-6.374-1.528-3.272-1.412-7.316 0.42-10.538 1.824-3.224 5.146-5.538 8.848-6.172 0.184-0.034 0.37-0.062 0.556-0.084-6.578 0.502-11.776 6.010-11.776 12.714 0 7.036 5.722 12.758 12.756 12.758z"></path>
</svg>
