<?xml version="1.0" encoding="utf-8"?>
<!-- Generated by IcoMoon.io -->
<!DOCTYPE svg PUBLIC "-//W3C//DTD SVG 1.1//EN" "http://www.w3.org/Graphics/SVG/1.1/DTD/svg11.dtd">
<svg version="1.1" xmlns="http://www.w3.org/2000/svg" xmlns:xlink="http://www.w3.org/1999/xlink" width="32" height="32" viewBox="0 0 32 32">
<path fill="#444444" d="M29.012 18.968c0.506 1.026 0.792 2.17 0.786 3.396 0 4.214-3.42 7.636-7.634 7.636-1.306 0-2.53-0.334-3.604-0.908-0.788 0.138-1.594 0.216-2.414 0.216-7.27 0-13.166-5.894-13.166-13.164 0-0.91 0.096-1.792 0.27-2.65-0.664-1.128-1.048-2.45-1.048-3.858 0-4.216 3.42-7.636 7.636-7.636 1.496 0 2.886 0.428 4.066 1.172 0.726-0.122 1.478-0.194 2.248-0.194 7.272 0 13.166 5.896 13.166 13.166 0 0.97-0.104 1.918-0.306 2.824zM22.908 22.436c0.608-0.868 0.916-1.854 0.918-2.94 0-0.91-0.176-1.686-0.534-2.318-0.358-0.63-0.856-1.154-1.488-1.566-0.612-0.402-1.372-0.752-2.246-1.032-0.866-0.28-1.848-0.534-2.914-0.76-0.84-0.194-1.454-0.342-1.82-0.448-0.36-0.096-0.71-0.238-1.060-0.412-0.342-0.166-0.602-0.368-0.788-0.594-0.174-0.218-0.262-0.474-0.262-0.77 0-0.488 0.264-0.898 0.816-1.258 0.568-0.368 1.338-0.562 2.282-0.562 1.014 0 1.756 0.176 2.196 0.51 0.456 0.338 0.848 0.838 1.18 1.458 0.29 0.49 0.546 0.832 0.792 1.050 0.256 0.228 0.634 0.35 1.124 0.35 0.546 0 0.998-0.194 1.358-0.57 0.36-0.366 0.542-0.794 0.542-1.268 0-0.49-0.142-0.99-0.394-1.496-0.27-0.506-0.7-0.986-1.28-1.442-0.576-0.446-1.31-0.814-2.172-1.086-0.872-0.262-1.902-0.4-3.074-0.4-1.48 0-2.774 0.206-3.866 0.61-1.102 0.412-1.968 1.006-2.556 1.776-0.594 0.77-0.89 1.664-0.89 2.66 0 1.050 0.278 1.934 0.848 2.644 0.548 0.69 1.312 1.248 2.256 1.652 0.918 0.394 2.082 0.74 3.448 1.032 1.004 0.208 1.808 0.41 2.41 0.594 0.576 0.176 1.052 0.436 1.406 0.77 0.346 0.324 0.51 0.734 0.51 1.252 0 0.662-0.316 1.2-0.97 1.646-0.674 0.454-1.568 0.686-2.652 0.686-0.796 0-1.444-0.112-1.916-0.338-0.474-0.218-0.848-0.508-1.102-0.848-0.27-0.354-0.522-0.804-0.76-1.34-0.21-0.49-0.462-0.872-0.77-1.126-0.324-0.27-0.708-0.402-1.164-0.402-0.548 0-1.012 0.162-1.372 0.506-0.368 0.342-0.552 0.76-0.552 1.244 0 0.764 0.28 1.572 0.842 2.378 0.548 0.796 1.286 1.444 2.168 1.924 1.24 0.654 2.826 0.986 4.714 0.986 1.574 0 2.96-0.242 4.11-0.722 1.178-0.484 2.066-1.164 2.682-2.030z"></path>
</svg>
