<?xml version="1.0" encoding="utf-8"?>
<!-- Generated by IcoMoon.io -->
<!DOCTYPE svg PUBLIC "-//W3C//DTD SVG 1.1//EN" "http://www.w3.org/Graphics/SVG/1.1/DTD/svg11.dtd">
<svg version="1.1" xmlns="http://www.w3.org/2000/svg" xmlns:xlink="http://www.w3.org/1999/xlink" width="32" height="32" viewBox="0 0 32 32">
<path fill="#444444" d="M19.347 17.225c-0.132-0.342-0.319-0.666-0.557-0.959 0.532-0.313 0.952-0.559 0.952-0.559l4.765-2.82c-0.055-0.169-0.086-0.35-0.086-0.538 0-0.965 0.784-1.747 1.752-1.747s1.752 0.782 1.752 1.747c0 0.964-0.784 1.746-1.752 1.746-0.394 0-0.756-0.131-1.049-0.35-1.060 0.68-2.546 1.593-4.817 2.922l-0.96 0.559zM20.095 21.267c-0.163 0.046-0.322 0.135-0.475 0.255-0.059-0.033-0.205-0.116-0.205-0.116-0.158-0.084-0.343-0.18-0.803-0.487-0.23 0.26-0.494 0.496-0.786 0.7l0.763 0.451c0.001 0.001 0.372 0.215 0.5 0.289-0.026 0.114-0.046 0.224-0.046 0.322 0 0.137 0.019 0.276 0.057 0.412 0.224 0.79 1.034 1.255 1.807 1.037 0.367-0.103 0.672-0.346 0.86-0.682 0.126-0.222 0.191-0.474 0.191-0.729 0-0.14-0.019-0.28-0.058-0.416-0.223-0.789-1.035-1.255-1.806-1.037zM18.708 18.302c-0.187-1.649-1.914-2.808-3.861-2.59s-3.373 1.733-3.187 3.382c0.187 1.649 1.916 2.809 3.861 2.59s3.373-1.732 3.187-3.382zM28.223 16.709c-1.007 0-1.853 0.684-2.101 1.611-1.991-0.031-4.256-0.054-6.551-0.063 0.009 0.139 0.010 0.278 0.002 0.419-0.013 0.233-0.052 0.462-0.111 0.685 2.321-0.009 4.612-0.032 6.625-0.062 0.196 0.998 1.077 1.751 2.136 1.751 1.202 0 2.177-0.971 2.177-2.17s-0.975-2.171-2.177-2.171zM11.753 21.181c-0.146-0.157-0.274-0.325-0.387-0.5-0.867 0.532-1.62 1.010-2.244 1.424-0.33-0.314-0.753-0.482-1.199-0.465-0.444 0.018-0.856 0.207-1.158 0.531s-0.459 0.748-0.442 1.192c0.036 0.915 0.811 1.63 1.729 1.595 0.898-0.034 1.602-0.764 1.602-1.659l-0.002-0.064c-0.004-0.101-0.028-0.213-0.058-0.33 0.048-0.028 1.275-0.739 2.468-1.43-0.108-0.092-0.211-0.19-0.308-0.295zM5.525 13.664c0.295 0.198 0.649 0.27 0.999 0.201 0.184-0.035 0.361-0.125 0.531-0.255 0.085 0.066 1.689 1.308 1.689 1.308l2.639 2.033c0.19-0.315 0.428-0.606 0.7-0.867l-0.018-0.013c-2.335-1.812-3.739-2.732-4.518-3.192 0.029-0.111 0.052-0.218 0.052-0.315l-0.025-0.254c-0.14-0.717-0.841-1.187-1.56-1.047-0.349 0.068-0.651 0.267-0.85 0.562-0.149 0.221-0.228 0.476-0.228 0.737 0 0.085 0.008 0.171 0.026 0.257 0.068 0.347 0.268 0.647 0.562 0.845zM14.967 12.053c-0.025 0.782-0.046 1.78-0.060 2.74 0.175-0.019 0.353-0.030 0.533-0.030 0.177 0 0.353 0.010 0.525 0.030-0.015-0.96-0.034-1.956-0.060-2.74 1.205-0.225 2.075-1.252 2.075-2.477 0-1.398-1.141-2.536-2.545-2.536s-2.544 1.138-2.544 2.536c0 1.225 0.87 2.253 2.076 2.477zM10.845 18.652c0.007-0.131 0.021-0.26 0.044-0.388-2.001 0.012-3.914 0.034-5.562 0.061-0.174-0.858-0.934-1.504-1.844-1.504-1.039 0-1.882 0.84-1.882 1.877 0 1.035 0.843 1.874 1.882 1.874 0.831 0 1.535-0.537 1.784-1.282 1.656 0.028 3.583 0.049 5.6 0.061-0.033-0.23-0.040-0.465-0.021-0.7z"></path>
</svg>
