<?xml version="1.0" encoding="utf-8"?>
<!-- Generated by IcoMoon.io -->
<!DOCTYPE svg PUBLIC "-//W3C//DTD SVG 1.1//EN" "http://www.w3.org/Graphics/SVG/1.1/DTD/svg11.dtd">
<svg version="1.1" xmlns="http://www.w3.org/2000/svg" xmlns:xlink="http://www.w3.org/1999/xlink" width="32" height="32" viewBox="0 0 32 32">
<path fill="#444444" d="M10.374 25.527c-1.936-0.493-3.015-2.062-3.019-4.389-0.001-0.744 0.052-1.101 0.234-1.579 0.447-1.173 1.63-2.058 3.186-2.384 0.775-0.162 1.013-0.336 1.013-0.739 0-0.126 0.092-0.503 0.205-0.837 0.512-1.516 1.46-2.78 2.472-3.297 1.060-0.541 1.595-0.663 2.877-0.656 1.821 0.010 2.729 0.412 4 1.772l0.699 0.748 0.626-0.221c3.030-1.068 6.050 0.75 6.293 3.79l0.067 0.831 0.597 0.218c1.704 0.622 2.505 1.928 2.359 3.848-0.095 1.256-0.671 2.258-1.584 2.756l-0.429 0.234-9.536 0.019c-7.328 0.014-9.657-0.012-10.060-0.115z"></path>
<path fill="#444444" d="M3.226 24.185c-1.131-0.274-2.328-1.291-2.89-2.455-0.319-0.66-0.336-0.757-0.336-1.925 0-1.111 0.027-1.289 0.281-1.84 0.535-1.163 1.559-2.003 2.845-2.332 0.271-0.070 0.526-0.181 0.567-0.247s0.085-0.427 0.099-0.801c0.089-2.326 1.587-4.375 3.678-5.034 1.13-0.356 2.549-0.268 3.778 0.233 0.39 0.159 0.346 0.193 1.17-0.908 0.487-0.651 1.472-1.461 2.278-1.874 0.87-0.445 1.775-0.65 2.857-0.648 3.024 0.008 5.63 1.935 6.594 4.877 0.308 0.94 0.293 1.203-0.071 1.211-0.159 0.003-0.613 0.092-1.009 0.198l-0.721 0.191-0.658-0.67c-1.855-1.89-4.882-2.299-7.456-1.006-1.028 0.516-1.854 1.258-2.478 2.224-0.445 0.689-1.012 1.974-1.012 2.293 0 0.226-0.18 0.339-0.948 0.596-2.378 0.795-3.766 2.63-3.765 4.978 0 0.855 0.216 1.901 0.516 2.5 0.113 0.226 0.176 0.441 0.14 0.477-0.092 0.094-3.050 0.062-3.459-0.037z"></path>
</svg>
