<?xml version="1.0" encoding="utf-8"?>
<!-- Generated by IcoMoon.io -->
<!DOCTYPE svg PUBLIC "-//W3C//DTD SVG 1.1//EN" "http://www.w3.org/Graphics/SVG/1.1/DTD/svg11.dtd">
<svg version="1.1" xmlns="http://www.w3.org/2000/svg" xmlns:xlink="http://www.w3.org/1999/xlink" width="32" height="32" viewBox="0 0 32 32">
<path fill="#444444" d="M4.558 31.735c-1.986-0.639-3.67-2.335-4.3-4.33l-0.259-0.819v-21.173l0.263-0.833c0.635-2.010 2.395-3.753 4.429-4.386 0.593-0.185 1.161-0.194 11.308-0.194s10.714 0.010 11.308 0.194c2.034 0.633 3.794 2.376 4.429 4.386l0.263 0.833v21.173l-0.263 0.833c-0.63 1.994-2.329 3.689-4.332 4.322l-0.819 0.259-21.236-0.009-0.792-0.255zM12.052 21.968c0.872-0.264 1.539-0.639 2.13-1.198 0.663-0.627 1.034-1.293 1.301-2.337 0.187-0.73 0.206-1.158 0.206-4.683v-3.88h-3.209l-0.032 3.922c-0.031 3.886-0.034 3.927-0.278 4.422-0.359 0.729-0.859 1.025-1.836 1.088-1.242 0.080-1.971-0.308-2.405-1.276-0.166-0.37-0.19-0.839-0.221-4.286l-0.035-3.87h-3.205l0.002 3.818c0.002 4.21 0.060 4.767 0.617 5.901 0.666 1.357 1.921 2.215 3.72 2.544 0.714 0.131 2.581 0.035 3.245-0.166zM20.548 20.234l0.028-1.74 1.114-0.003c2.736-0.009 4.455-0.774 5.3-2.36 0.621-1.166 0.66-2.654 0.099-3.856-0.308-0.66-1.149-1.475-1.878-1.82-1.065-0.503-1.714-0.58-4.926-0.582l-2.935-0.002v12.161l3.169-0.057 0.028-1.74zM20.571 14.296v-1.725h1.225c1.066 0 1.284 0.030 1.681 0.234 0.622 0.319 0.86 0.777 0.809 1.56-0.044 0.678-0.265 1.051-0.816 1.375-0.289 0.17-0.584 0.214-1.625 0.244l-1.273 0.037v-1.725z"></path>
</svg>
