<?xml version="1.0" encoding="utf-8"?>
<!-- Generated by IcoMoon.io -->
<!DOCTYPE svg PUBLIC "-//W3C//DTD SVG 1.1//EN" "http://www.w3.org/Graphics/SVG/1.1/DTD/svg11.dtd">
<svg version="1.1" xmlns="http://www.w3.org/2000/svg" xmlns:xlink="http://www.w3.org/1999/xlink" width="32" height="32" viewBox="0 0 32 32">
<path fill="#444444" d="M16 2c7.732 0 14 6.268 14 14s-6.268 14-14 14-14-6.268-14-14 6.268-14 14-14zM21.68 22.606c0.46 0 0.87-0.37 0.872-0.876 0-0.518-0.204-0.726-0.554-0.93-2.35-1.408-5.080-2.112-8.144-2.112-1.788 0-3.512 0.226-5.24 0.62-0.424 0.080-0.762 0.372-0.762 0.96 0 0.456 0.354 0.88 0.886 0.88 0.172 0 0.46-0.090 0.69-0.138 1.41-0.292 2.918-0.484 4.416-0.484 2.684 0 5.214 0.646 7.244 1.872 0.212 0.13 0.366 0.208 0.592 0.208zM23.206 18.9c0.608 0 1.090-0.49 1.092-1.094 0-0.498-0.172-0.838-0.638-1.106-2.788-1.668-6.334-2.58-9.998-2.58-2.34 0-3.946 0.332-5.52 0.764-0.582 0.166-0.87 0.574-0.87 1.17 0 0.606 0.49 1.096 1.092 1.096 0.256 0 0.408-0.080 0.68-0.158 1.268-0.336 2.798-0.584 4.57-0.584 3.456 0 6.612 0.898 8.89 2.25 0.208 0.118 0.4 0.242 0.702 0.242zM24.942 14.59c0.708 0 1.322-0.548 1.318-1.31 0-0.668-0.296-1.032-0.722-1.272-3.158-1.858-7.484-2.702-11.594-2.702-2.422 0-4.648 0.274-6.644 0.862-0.508 0.15-0.98 0.578-0.98 1.338 0 0.748 0.574 1.338 1.32 1.338 0.258 0 0.516-0.1 0.72-0.152 1.766-0.478 3.694-0.672 5.592-0.672 3.802 0 7.736 0.836 10.27 2.356 0.266 0.146 0.434 0.214 0.72 0.214z"></path>
</svg>
