<?xml version="1.0" encoding="utf-8"?>
<!-- Generated by IcoMoon.io -->
<!DOCTYPE svg PUBLIC "-//W3C//DTD SVG 1.1//EN" "http://www.w3.org/Graphics/SVG/1.1/DTD/svg11.dtd">
<svg version="1.1" xmlns="http://www.w3.org/2000/svg" xmlns:xlink="http://www.w3.org/1999/xlink" width="32" height="32" viewBox="0 0 32 32">
<path fill="#444444" d="M17.27 12.742v-1.452c0-0.69-0.57-1.248-1.27-1.248s-1.27 0.558-1.27 1.248l-0.006 7.516c-0.040 2.878-2.422 5.194-5.358 5.194-2.964 0-5.366-2.358-5.366-5.27v-3.268h4.106v3.228c0 0.686 0.568 1.246 1.27 1.246s1.27-0.558 1.27-1.246v-7.612c0.104-2.82 2.456-5.078 5.354-5.078 2.908 0 5.268 2.274 5.354 5.11v1.666l-2.444 0.716zM23.894 15.462h4.106v3.268c0 2.912-2.402 5.27-5.366 5.27-2.946 0-5.338-2.334-5.364-5.22v-3.286l1.64 0.75 2.442-0.716v3.31c0 0.692 0.568 1.25 1.272 1.25 0.702 0 1.27-0.558 1.27-1.25v-3.376z"></path>
</svg>
