<?xml version="1.0" encoding="utf-8"?>
<!-- Generated by IcoMoon.io -->
<!DOCTYPE svg PUBLIC "-//W3C//DTD SVG 1.1//EN" "http://www.w3.org/Graphics/SVG/1.1/DTD/svg11.dtd">
<svg version="1.1" xmlns="http://www.w3.org/2000/svg" xmlns:xlink="http://www.w3.org/1999/xlink" width="32" height="32" viewBox="0 0 32 32">
<path fill="#444444" d="M17.050 2v7.078h6.644v4.394h-6.644v7.18c0 1.624 0.086 2.666 0.26 3.128 0.17 0.458 0.492 0.826 0.958 1.102 0.62 0.372 1.326 0.558 2.124 0.558 1.416 0 2.826-0.46 4.23-1.382v4.416c-1.198 0.562-2.282 0.958-3.25 1.186-0.968 0.226-2.016 0.34-3.144 0.34-1.28 0-2.412-0.162-3.396-0.484s-1.822-0.786-2.516-1.382c-0.696-0.598-1.176-1.234-1.444-1.908s-0.402-1.65-0.402-2.93v-9.824h-3.094v-3.962c1.1-0.358 2.042-0.87 2.826-1.538 0.786-0.666 1.414-1.466 1.888-2.404 0.474-0.934 0.8-2.122 0.98-3.568h3.98z"></path>
</svg>
