<?xml version="1.0" encoding="utf-8"?>
<!-- Generated by IcoMoon.io -->
<!DOCTYPE svg PUBLIC "-//W3C//DTD SVG 1.1//EN" "http://www.w3.org/Graphics/SVG/1.1/DTD/svg11.dtd">
<svg version="1.1" xmlns="http://www.w3.org/2000/svg" xmlns:xlink="http://www.w3.org/1999/xlink" width="32" height="32" viewBox="0 0 32 32">
<path fill="#444444" d="M30 7.254c-0.77 1.152-1.746 2.162-2.868 2.972 0.012 0.246 0.020 0.494 0.020 0.742 0 7.59-5.78 16.344-16.348 16.344-3.244 0-6.262-0.95-8.804-2.582 0.45 0.054 0.908 0.082 1.372 0.082 2.688 0 5.168-0.918 7.132-2.46-2.512-0.044-4.634-1.702-5.366-3.986 0.352 0.062 0.71 0.102 1.082 0.102 0.524 0 1.030-0.070 1.512-0.2-2.63-0.528-4.608-2.848-4.608-5.632v-0.074c0.776 0.43 1.662 0.688 2.602 0.718-1.542-1.030-2.554-2.788-2.554-4.78 0-1.052 0.284-2.042 0.778-2.89 2.834 3.476 7.068 5.762 11.842 6.002-0.098-0.42-0.15-0.858-0.15-1.308 0-3.172 2.572-5.744 5.744-5.744 1.654 0 3.148 0.698 4.196 1.814 1.306-0.258 2.536-0.736 3.644-1.394-0.428 1.342-1.34 2.468-2.524 3.178 1.162-0.138 2.268-0.446 3.298-0.904z"></path>
</svg>
