<?xml version="1.0" encoding="utf-8"?>
<!-- Generated by IcoMoon.io -->
<!DOCTYPE svg PUBLIC "-//W3C//DTD SVG 1.1//EN" "http://www.w3.org/Graphics/SVG/1.1/DTD/svg11.dtd">
<svg version="1.1" xmlns="http://www.w3.org/2000/svg" xmlns:xlink="http://www.w3.org/1999/xlink" width="32" height="32" viewBox="0 0 32 32">
<path fill="#444444" d="M25.918 4.002c2.878 0.084 4.234 1.934 4.068 5.548-0.124 2.702-2.028 6.398-5.71 11.094-3.806 4.902-7.028 7.356-9.662 7.356-1.632 0-3.014-1.494-4.14-4.48-0.754-2.738-1.508-5.474-2.26-8.212-0.838-2.984-1.738-4.478-2.698-4.478-0.21 0-0.944 0.434-2.198 1.306l-1.318-1.682c1.382-1.204 2.744-2.408 4.086-3.612 1.842-1.578 3.226-2.408 4.148-2.492 2.18-0.208 3.52 1.27 4.024 4.428 0.544 3.41 0.92 5.53 1.132 6.36 0.628 2.828 1.32 4.24 2.074 4.24 0.586 0 1.466-0.918 2.642-2.752 1.172-1.834 1.8-3.232 1.884-4.19 0.166-1.584-0.46-2.378-1.884-2.378-0.672 0-1.364 0.156-2.074 0.456 1.376-4.468 4.008-6.636 7.886-6.512z"></path>
</svg>
