<?xml version="1.0" encoding="utf-8"?>
<!-- Generated by IcoMoon.io -->
<!DOCTYPE svg PUBLIC "-//W3C//DTD SVG 1.1//EN" "http://www.w3.org/Graphics/SVG/1.1/DTD/svg11.dtd">
<svg version="1.1" xmlns="http://www.w3.org/2000/svg" xmlns:xlink="http://www.w3.org/1999/xlink" width="32" height="32" viewBox="0 0 32 32">
<path fill="#444444" d="M16 2c7.718 0 14 6.28 14 14 0 7.718-6.282 14-14 14-7.72 0-14-6.282-14-14 0-7.72 6.28-14 14-14zM3.414 16c0 4.982 2.894 9.288 7.094 11.328l-6.004-16.452c-0.698 1.566-1.090 3.298-1.090 5.124zM16 28.586c1.466 0 2.872-0.252 4.182-0.712-0.034-0.054-0.064-0.112-0.090-0.176l-3.868-10.598-3.78 10.974c1.128 0.332 2.32 0.512 3.556 0.512zM17.734 10.098l4.548 13.534 1.256-4.196c0.546-1.742 0.958-2.992 0.958-4.070 0-1.556-0.56-2.634-1.038-3.47-0.636-1.038-1.234-1.916-1.234-2.954 0-1.158 0.878-2.234 2.112-2.234 0.056 0 0.11 0.006 0.164 0.010-2.24-2.052-5.222-3.304-8.5-3.304-4.398 0-8.266 2.254-10.516 5.672 0.296 0.010 0.574 0.014 0.81 0.014 1.316 0 3.354-0.16 3.354-0.16 0.678-0.040 0.758 0.958 0.082 1.038 0 0-0.684 0.080-1.44 0.12l4.58 13.634 2.754-8.26-1.96-5.374c-0.678-0.040-1.32-0.12-1.32-0.12-0.676-0.040-0.598-1.078 0.080-1.038 0 0 2.078 0.16 3.316 0.16 1.316 0 3.356-0.16 3.356-0.16 0.678-0.040 0.758 0.958 0.080 1.038 0 0-0.682 0.080-1.442 0.12zM27.044 9.96c0.056 0.402 0.086 0.832 0.088 1.294 0 1.278-0.242 2.714-0.958 4.508l-3.846 11.116c3.742-2.18 6.258-6.236 6.258-10.878 0-2.19-0.56-4.248-1.542-6.040z"></path>
</svg>
